<svg width="436" height="311" viewBox="0 0 436 311" fill="none" xmlns="http://www.w3.org/2000/svg">
<g clip-path="url(#clip0_16_32)">
<path d="M158.161 2.74268C158.495 2.68689 158.912 2.68345 159.482 2.72998C159.764 2.753 160.055 2.78595 160.385 2.82373C160.703 2.8601 161.065 2.90239 161.426 2.93506L161.44 2.93604C171.49 3.7917 181.532 4.66445 191.575 5.54541H191.577C201.964 6.44939 212.403 7.4341 222.833 8.27393H222.836C228.612 8.7337 234.207 10.1608 240.114 11.5396V11.5386C247.658 13.3079 255.173 15.2708 262.643 17.3765H262.644C269.61 19.3396 275.822 23.0761 281.821 27.5259L281.822 27.5269C287.743 31.9131 293.584 36.3099 299.129 41.0181L299.13 41.019C304.007 45.156 307.504 50.604 310.324 56.6274V56.6294C315.634 67.9558 320.098 79.6593 324.096 91.563V91.564C325.404 95.4648 326.081 99.5728 326.347 103.774L326.395 104.616C326.78 112.352 327.048 120.101 327.249 127.857V127.859C327.39 133.223 327.432 138.581 327.34 143.934C327.209 151.151 326.379 158.346 325.152 165.527C324.397 169.934 323.561 174.301 322.733 178.725C315.331 177.042 307.957 175.389 300.591 173.652H300.59C297.756 172.984 294.985 172.214 292.129 171.439C294.563 161.1 296.043 150.614 296.515 139.996V139.995C296.957 129.968 296.585 119.912 294.922 109.912V109.911C293.437 100.991 290.626 92.4565 285.878 84.5786C282.648 79.2142 279.371 74.2162 276.456 68.8999V68.8989C271.426 59.7322 264.177 52.9664 255.054 48.2075C245.835 43.3971 236.166 39.8605 226.304 37.0063L224.329 36.4448L222.606 35.9722C213.988 33.6484 205.263 31.9021 196.631 30.1743H196.63C188.648 28.5779 180.653 28.3567 172.694 28.9419L171.102 29.0698C167.976 29.3409 165.367 29.7442 162.515 29.8511H162.513C156.384 30.0832 150.346 30.8477 144.368 32.0913C134.208 34.2004 124.529 37.6378 115.112 41.6265L115.109 41.6274C110.843 43.4388 106.311 45.406 102.267 48.4409C101.576 48.9571 100.742 49.3529 99.6265 49.8843C91.8586 53.562 84.6276 58.1267 78.1392 63.9048L78.1382 63.9058C73.3373 68.1867 69.1749 72.993 65.2632 77.8784V77.8794C56.1818 89.2311 48.9302 101.671 44.1421 115.503V115.505C38.671 131.345 36.5169 147.657 36.7212 164.276C36.8412 173.904 38.1277 183.361 40.4634 192.678V192.679C44.2479 207.758 50.1232 221.989 59.1323 234.888L59.1333 234.889C65.6732 244.24 73.4543 252.501 83.2212 258.801C91.4161 264.092 100.242 268.009 109.377 271.063C123.83 275.895 138.66 279.123 153.936 280.273C159.883 280.722 165.918 280.557 171.876 279.203L171.877 279.204C180.265 277.309 188.616 275.263 196.929 273.1H196.93C210.129 269.658 222.881 264.813 234.418 256.891C243.158 250.89 251.749 244.517 259.294 236.723C267.343 228.407 273.727 218.965 278.292 208.292C279.567 205.309 280.842 202.323 282.118 199.338C283.142 196.941 284.166 194.543 285.19 192.147C286.503 192.33 287.745 192.503 289.021 192.746V192.747C296.374 194.164 303.711 195.605 311.057 197.073L311.06 197.074C313.352 197.528 315.621 198.018 317.917 198.512C316.388 203.219 315.004 207.776 313.233 212.266L313.232 212.267C307.408 227.054 299.18 240.407 288.644 252.353C282.933 258.823 276.387 264.401 269.336 269.532C260.856 275.698 252.134 281.324 242.786 285.871C231.264 291.475 219.265 295.799 206.855 298.903L205.653 299.2C196.411 301.446 187.112 303.508 177.791 305.482L173.794 306.323C170.712 306.966 167.753 306.921 164.081 307.262H164.076C162.699 307.393 161.323 307.524 159.939 307.654H148.625C148.383 307.604 147.977 307.523 147.681 307.492L147.657 307.489L147.631 307.487L145.504 307.321C143.766 307.193 142.102 307.082 140.424 306.906L139.415 306.792C130.849 305.749 122.374 304.065 113.886 302.144H113.885C102.21 299.502 90.6855 296.223 79.1138 292.867C71.303 290.6 64.0182 287.299 57.3228 282.759C49.8802 277.713 43.3041 271.622 37.0864 265.004L35.8472 263.673C24.6979 251.595 16.3286 237.735 10.2798 222.419H10.2808C7.00762 214.117 4.81172 205.551 3.8833 196.724L3.79736 195.869C3.27411 190.395 3.13109 184.976 2.79736 179.311V179.306C2.70666 177.814 2.61463 176.321 2.52393 174.829C2.50748 168.732 2.5083 162.634 2.5083 156.541C2.60691 155.718 2.80526 154.464 2.85791 153.377C3.39936 142.623 5.54265 132.108 8.46631 121.643V121.642C12.9027 105.742 19.3168 90.7693 28.3257 77.0093L29.2056 75.6812C35.3048 66.5816 42.5863 58.4337 50.5181 50.7427C57.6885 43.7969 65.1746 37.3088 73.3325 31.689C84.1625 24.2289 95.6299 18.0183 107.886 13.4077C111.483 12.0558 115.271 11.5049 119.514 10.564L119.513 10.563C127.22 8.8606 134.926 7.18607 142.652 5.604H142.654C147.794 4.54597 152.973 3.60375 158.159 2.74365L158.161 2.74268Z" fill="#292929" stroke="white" stroke-width="5"/>
<mask id="path-2-inside-1_16_32" fill="white">
<path d="M321.155 196.652C317.95 195.972 314.753 195.259 311.539 194.621C304.196 193.153 296.846 191.71 289.486 190.292C287.556 189.922 285.593 189.696 283.638 189.402C281.498 189.092 279.358 188.773 277.218 188.462C269.741 187.313 262.391 185.55 255.098 183.57C250.424 182.303 245.734 181.078 241.06 179.836C239.079 179.383 237.099 178.93 235.11 178.476C234.867 178.376 234.64 178.233 234.388 178.183C230.671 177.486 226.97 176.697 223.236 176.127C217.211 175.212 211.203 174.239 205.346 172.527C203.55 172.007 201.738 171.562 199.933 171.084C197.802 170.37 195.679 169.665 193.548 168.952C190.233 167.912 186.935 166.804 183.587 165.856C179.282 164.639 174.919 163.615 170.614 162.373C168.273 161.702 168.331 161.585 166.821 163.523C164.547 166.426 162.248 169.313 159.948 172.191C158.983 173.391 157.011 173.937 156.097 173.282C154.679 172.267 154.402 170.421 155.484 169.07C156.34 167.996 157.263 166.972 158.094 165.881C163.976 158.178 167.618 149.644 167.744 139.801C167.761 138.24 167.979 136.662 168.298 135.127C168.659 133.373 169.498 132.844 171.26 133.045C172.015 133.129 172.745 133.431 173.492 133.583C174.038 133.692 174.163 133.985 174.13 134.506C173.937 137.308 173.828 140.128 173.593 142.931C173.45 144.726 174.012 145.641 175.749 146.102C180.465 147.353 185.181 148.628 189.906 149.879C193.103 150.726 196.308 151.532 199.514 152.354C201.628 152.866 203.735 153.369 205.849 153.881C205.942 153.915 206.034 153.957 206.135 153.974C210.481 154.88 214.837 155.711 219.158 156.718C225.561 158.211 231.93 159.822 238.316 161.383C240.38 161.887 242.453 162.382 244.517 162.885C244.668 162.944 244.819 163.019 244.978 163.053C250.382 164.295 255.786 165.529 261.191 166.762C268.382 168.398 275.582 170.018 282.782 171.646C284.871 172.166 286.969 172.686 289.058 173.207C292.7 174.172 296.325 175.212 300.001 176.085C307.83 177.931 315.684 179.685 323.522 181.472C323.908 181.564 324.311 181.59 324.713 181.648C327.684 182.571 330.436 182.043 333.256 180.809C339.281 178.183 345.457 175.909 351.457 173.24C354.864 171.721 358.069 169.749 361.325 167.903C362.5 167.232 363.691 166.804 365.034 166.863C370.757 167.106 376.48 167.349 382.194 167.61C388.48 167.895 394.773 168.222 401.058 168.499C408.283 168.818 415.508 169.112 422.742 169.414C424.546 169.489 425.762 170.429 426.425 172.049C427.105 173.719 426.879 175.321 425.561 176.58C423.044 178.98 420.199 180.868 416.935 182.152C408.334 185.55 399.774 189.041 391.182 192.456C387.103 194.076 385.87 195.226 385.92 200.646C385.945 203.802 387.271 206.327 389.688 208.417C396.216 214.048 402.351 220.106 408.157 226.467C409.819 228.279 410.608 230.528 410.692 232.97C410.775 235.353 409.349 236.906 406.957 236.847C405.027 236.797 403.089 236.528 401.192 236.176C389.554 234.019 377.932 231.804 366.301 229.614C360.981 228.615 355.652 227.616 350.324 226.635C347.488 226.114 345.138 224.755 343.535 222.372C338.92 215.516 333.373 209.399 328.288 202.921C327.331 201.704 326.711 200.227 326.006 198.834C325.846 198.532 325.98 198.079 325.98 197.542C324.411 197.248 322.783 196.954 321.155 196.652ZM170.555 156.038C172.091 156.659 173.459 157.431 174.919 157.775C180.868 159.159 186.818 160.46 192.599 162.508C202.082 165.864 211.698 168.726 221.726 170.051C230.839 171.26 239.793 173.324 248.612 175.917C253.353 177.31 258.01 179.081 262.827 180.071C274.013 182.37 285.282 184.258 296.502 186.39C304.448 187.9 312.42 189.335 320.291 191.189C329.857 193.438 339.323 196.082 348.839 198.557C354.436 200.009 360.108 201.032 365.882 201.494C368.449 201.695 371 202.006 373.568 202.241C375.263 202.4 376.967 202.593 378.662 202.635C379.19 202.652 379.904 202.375 380.239 201.981C381.75 200.185 380.86 197.089 378.678 196.367C373.962 194.806 369.087 194 364.153 193.665C359.815 193.371 355.451 193.363 351.104 193.22C350.769 193.212 350.425 193.212 350.106 193.128C347.144 192.364 344.207 191.5 341.219 190.812C334.884 189.352 328.531 187.992 322.188 186.583C311.463 184.191 300.731 181.816 290.007 179.374C281.842 177.511 273.694 175.556 265.537 173.66C258.841 172.107 252.111 170.689 245.432 169.036C240.095 167.71 234.867 165.923 229.513 164.689C222.162 162.994 214.727 161.643 207.326 160.124C197.29 158.06 187.439 155.249 177.587 152.48C175.892 152.002 174.197 151.548 172.46 151.079C171.831 152.723 171.235 154.267 170.555 156.038ZM338.484 184.35C341.865 185.366 345.138 186.39 348.436 187.321C349.812 187.707 351.23 188.051 352.648 188.143C356.189 188.37 359.739 188.403 363.28 188.588C368.122 188.84 372.914 189.511 377.655 190.543C379.585 190.963 381.498 191.357 383.461 190.602C393.095 186.885 402.804 183.343 412.143 178.913C414.518 177.788 416.884 176.647 419.242 175.523C419.167 174.356 418.261 174.549 417.682 174.566C412.278 174.725 406.932 173.987 401.57 173.542C396.141 173.098 390.695 172.779 385.249 172.552C380.466 172.351 375.666 172.376 370.883 172.275C367.073 172.2 363.465 173.056 360.024 174.633C355.082 176.899 350.156 179.198 345.205 181.447C343.007 182.454 340.766 183.369 338.484 184.35ZM334.12 200C334.338 200.344 334.456 200.546 334.59 200.739C339.037 206.772 343.502 212.806 347.941 218.847C348.637 219.796 349.518 220.358 350.643 220.593C355.241 221.566 359.823 222.615 364.43 223.496C370.589 224.671 376.765 225.737 382.941 226.819C387.473 227.616 392.012 228.363 396.552 229.135C399.028 229.555 401.503 229.974 404.138 230.428C403.962 230.167 403.903 230.058 403.819 229.958C397.878 223.203 391.232 217.161 384.51 211.203C383.302 210.137 381.917 209.055 380.415 208.585C377.822 207.779 375.104 207.276 372.402 206.948C368.424 206.462 364.413 206.269 360.419 205.899C355.191 205.421 350.03 204.515 344.962 203.172C341.387 202.232 337.871 201.108 334.12 200Z"/>
</mask>
<path d="M321.155 196.652C317.95 195.972 314.753 195.259 311.539 194.621C304.196 193.153 296.846 191.71 289.486 190.292C287.556 189.922 285.593 189.696 283.638 189.402C281.498 189.092 279.358 188.773 277.218 188.462C269.741 187.313 262.391 185.55 255.098 183.57C250.424 182.303 245.734 181.078 241.06 179.836C239.079 179.383 237.099 178.93 235.11 178.476C234.867 178.376 234.64 178.233 234.388 178.183C230.671 177.486 226.97 176.697 223.236 176.127C217.211 175.212 211.203 174.239 205.346 172.527C203.55 172.007 201.738 171.562 199.933 171.084C197.802 170.37 195.679 169.665 193.548 168.952C190.233 167.912 186.935 166.804 183.587 165.856C179.282 164.639 174.919 163.615 170.614 162.373C168.273 161.702 168.331 161.585 166.821 163.523C164.547 166.426 162.248 169.313 159.948 172.191C158.983 173.391 157.011 173.937 156.097 173.282C154.679 172.267 154.402 170.421 155.484 169.07C156.34 167.996 157.263 166.972 158.094 165.881C163.976 158.178 167.618 149.644 167.744 139.801C167.761 138.24 167.979 136.662 168.298 135.127C168.659 133.373 169.498 132.844 171.26 133.045C172.015 133.129 172.745 133.431 173.492 133.583C174.038 133.692 174.163 133.985 174.13 134.506C173.937 137.308 173.828 140.128 173.593 142.931C173.45 144.726 174.012 145.641 175.749 146.102C180.465 147.353 185.181 148.628 189.906 149.879C193.103 150.726 196.308 151.532 199.514 152.354C201.628 152.866 203.735 153.369 205.849 153.881C205.942 153.915 206.034 153.957 206.135 153.974C210.481 154.88 214.837 155.711 219.158 156.718C225.561 158.211 231.93 159.822 238.316 161.383C240.38 161.887 242.453 162.382 244.517 162.885C244.668 162.944 244.819 163.019 244.978 163.053C250.382 164.295 255.786 165.529 261.191 166.762C268.382 168.398 275.582 170.018 282.782 171.646C284.871 172.166 286.969 172.686 289.058 173.207C292.7 174.172 296.325 175.212 300.001 176.085C307.83 177.931 315.684 179.685 323.522 181.472C323.908 181.564 324.311 181.59 324.713 181.648C327.684 182.571 330.436 182.043 333.256 180.809C339.281 178.183 345.457 175.909 351.457 173.24C354.864 171.721 358.069 169.749 361.325 167.903C362.5 167.232 363.691 166.804 365.034 166.863C370.757 167.106 376.48 167.349 382.194 167.61C388.48 167.895 394.773 168.222 401.058 168.499C408.283 168.818 415.508 169.112 422.742 169.414C424.546 169.489 425.762 170.429 426.425 172.049C427.105 173.719 426.879 175.321 425.561 176.58C423.044 178.98 420.199 180.868 416.935 182.152C408.334 185.55 399.774 189.041 391.182 192.456C387.103 194.076 385.87 195.226 385.92 200.646C385.945 203.802 387.271 206.327 389.688 208.417C396.216 214.048 402.351 220.106 408.157 226.467C409.819 228.279 410.608 230.528 410.692 232.97C410.775 235.353 409.349 236.906 406.957 236.847C405.027 236.797 403.089 236.528 401.192 236.176C389.554 234.019 377.932 231.804 366.301 229.614C360.981 228.615 355.652 227.616 350.324 226.635C347.488 226.114 345.138 224.755 343.535 222.372C338.92 215.516 333.373 209.399 328.288 202.921C327.331 201.704 326.711 200.227 326.006 198.834C325.846 198.532 325.98 198.079 325.98 197.542C324.411 197.248 322.783 196.954 321.155 196.652ZM170.555 156.038C172.091 156.659 173.459 157.431 174.919 157.775C180.868 159.159 186.818 160.46 192.599 162.508C202.082 165.864 211.698 168.726 221.726 170.051C230.839 171.26 239.793 173.324 248.612 175.917C253.353 177.31 258.01 179.081 262.827 180.071C274.013 182.37 285.282 184.258 296.502 186.39C304.448 187.9 312.42 189.335 320.291 191.189C329.857 193.438 339.323 196.082 348.839 198.557C354.436 200.009 360.108 201.032 365.882 201.494C368.449 201.695 371 202.006 373.568 202.241C375.263 202.4 376.967 202.593 378.662 202.635C379.19 202.652 379.904 202.375 380.239 201.981C381.75 200.185 380.86 197.089 378.678 196.367C373.962 194.806 369.087 194 364.153 193.665C359.815 193.371 355.451 193.363 351.104 193.22C350.769 193.212 350.425 193.212 350.106 193.128C347.144 192.364 344.207 191.5 341.219 190.812C334.884 189.352 328.531 187.992 322.188 186.583C311.463 184.191 300.731 181.816 290.007 179.374C281.842 177.511 273.694 175.556 265.537 173.66C258.841 172.107 252.111 170.689 245.432 169.036C240.095 167.71 234.867 165.923 229.513 164.689C222.162 162.994 214.727 161.643 207.326 160.124C197.29 158.06 187.439 155.249 177.587 152.48C175.892 152.002 174.197 151.548 172.46 151.079C171.831 152.723 171.235 154.267 170.555 156.038ZM338.484 184.35C341.865 185.366 345.138 186.39 348.436 187.321C349.812 187.707 351.23 188.051 352.648 188.143C356.189 188.37 359.739 188.403 363.28 188.588C368.122 188.84 372.914 189.511 377.655 190.543C379.585 190.963 381.498 191.357 383.461 190.602C393.095 186.885 402.804 183.343 412.143 178.913C414.518 177.788 416.884 176.647 419.242 175.523C419.167 174.356 418.261 174.549 417.682 174.566C412.278 174.725 406.932 173.987 401.57 173.542C396.141 173.098 390.695 172.779 385.249 172.552C380.466 172.351 375.666 172.376 370.883 172.275C367.073 172.2 363.465 173.056 360.024 174.633C355.082 176.899 350.156 179.198 345.205 181.447C343.007 182.454 340.766 183.369 338.484 184.35ZM334.12 200C334.338 200.344 334.456 200.546 334.59 200.739C339.037 206.772 343.502 212.806 347.941 218.847C348.637 219.796 349.518 220.358 350.643 220.593C355.241 221.566 359.823 222.615 364.43 223.496C370.589 224.671 376.765 225.737 382.941 226.819C387.473 227.616 392.012 228.363 396.552 229.135C399.028 229.555 401.503 229.974 404.138 230.428C403.962 230.167 403.903 230.058 403.819 229.958C397.878 223.203 391.232 217.161 384.51 211.203C383.302 210.137 381.917 209.055 380.415 208.585C377.822 207.779 375.104 207.276 372.402 206.948C368.424 206.462 364.413 206.269 360.419 205.899C355.191 205.421 350.03 204.515 344.962 203.172C341.387 202.232 337.871 201.108 334.12 200Z" fill="#292929" stroke="white" stroke-width="10" mask="url(#path-2-inside-1_16_32)"/>
<path d="M396.475 195.364C396.872 195.059 397.358 194.931 398.131 195.017C402.952 195.563 407.818 195.901 412.625 196.352C415.873 196.656 419.089 196.872 422.251 197.421V197.422C422.715 197.504 423.189 197.752 423.691 198.106C424.19 198.459 424.652 198.865 425.153 199.267C425.154 199.27 425.155 199.272 425.156 199.275C425.167 199.312 425.178 199.378 425.179 199.478C425.181 199.68 425.141 199.949 425.058 200.243C424.976 200.534 424.859 200.825 424.724 201.068C424.584 201.32 424.445 201.481 424.339 201.556C424.085 201.73 423.794 201.868 423.504 201.988C423.3 202.073 423.046 202.17 422.852 202.251C416.47 201.609 410.493 201.018 404.516 200.401H404.517C402.198 200.158 399.877 199.873 397.552 199.588H397.551C397.274 199.552 397 199.473 396.761 199.357L396.543 199.243C396.048 198.964 395.654 198.598 395.413 198.232C395.13 197.804 395.108 197.465 395.208 197.251L395.209 197.249C395.661 196.275 396.048 195.693 396.475 195.364Z" fill="white" stroke="white"/>
<path d="M407.726 207.94V207.941C413.268 208.445 418.792 208.922 424.331 209.434V209.435C426.829 209.669 429.322 209.92 431.796 210.246V210.247C432.936 210.4 433.85 211.106 434.655 212.048L434.657 212.051C434.671 212.068 434.723 212.159 434.735 212.383C434.746 212.591 434.718 212.852 434.65 213.129C434.526 213.635 434.298 214.08 434.059 214.32L433.956 214.41L433.952 214.413C433.716 214.592 433.434 214.738 433.154 214.861C433.015 214.923 432.881 214.977 432.755 215.027C432.686 215.056 432.615 215.086 432.548 215.114C428.76 214.754 425.219 214.431 421.74 214.093L418.236 213.743C414.549 213.366 410.862 212.913 407.167 212.477H407.166C406.916 212.448 406.665 212.384 406.449 212.29C405.877 212.031 405.395 211.626 405.087 211.201C404.769 210.76 404.693 210.382 404.755 210.148L404.756 210.145C405.127 208.707 406.39 207.821 407.726 207.94Z" fill="white" stroke="white"/>
<path d="M277.226 188.454C279.366 188.764 281.506 189.083 283.646 189.394C281.095 195.36 278.544 201.335 275.993 207.301C271.554 217.681 265.344 226.87 257.498 234.976C250.139 242.587 241.706 248.847 233.004 254.821C221.785 262.525 209.34 267.274 196.3 270.673C188.009 272.829 179.685 274.868 171.327 276.756C165.68 278.032 159.898 278.208 154.125 277.772C139.079 276.639 124.453 273.459 110.171 268.684C101.184 265.68 92.5572 261.845 84.577 256.693C75.1366 250.6 67.5844 242.603 61.1818 233.448C52.3708 220.853 46.6143 206.906 42.8885 192.062C40.5977 182.932 39.3306 173.66 39.2215 164.236C39.0201 147.856 41.1431 131.837 46.5052 116.313C51.1876 102.778 58.2867 90.585 67.2152 79.4329C71.092 74.5826 75.1534 69.9002 79.8023 65.7633C86.0874 60.1662 93.111 55.7272 100.697 52.1357C101.754 51.6322 102.837 51.1287 103.768 50.4322C107.536 47.6127 111.79 45.7414 116.087 43.9205C125.418 39.9682 134.934 36.5948 144.877 34.5305C150.726 33.3138 156.625 32.567 162.608 32.3404C165.52 32.2313 168.415 31.8033 171.319 31.5516C179.635 30.8299 187.917 30.9726 196.14 32.6173C205.371 34.455 214.593 36.3095 223.656 38.8437C234.095 41.7639 244.265 45.3806 253.898 50.4154C262.617 54.972 269.49 61.3914 274.264 70.0932C277.21 75.4637 280.575 80.6077 283.738 85.8607C288.295 93.4213 291.022 101.645 292.457 110.313C294.085 120.106 294.454 129.983 294.018 139.876C293.539 150.642 292.012 161.274 289.486 171.755C289.369 172.242 289.209 172.72 289.075 173.198C286.986 172.678 284.888 172.158 282.798 171.637C283.512 167.828 284.409 164.035 284.888 160.192C285.685 153.722 286.423 147.227 286.776 140.724C287.036 135.957 286.709 131.149 286.499 126.366C286.222 120.005 285.366 113.703 284.049 107.477C282.572 100.495 280.398 93.757 276.664 87.6145C273.811 82.9153 270.824 78.3 268.029 73.5757C263.775 66.3675 257.935 60.8459 250.567 56.9439C242.662 52.7566 234.313 49.677 225.762 47.1176C216.582 44.3736 207.225 42.3765 197.844 40.48C192.557 39.4143 187.254 38.3738 181.833 38.4745C176.849 38.5668 171.864 38.8605 166.888 39.2129C162.315 39.5318 157.741 39.8843 153.202 40.4884C147.798 41.2101 142.452 42.3178 137.233 43.9709C132.005 45.6324 126.735 47.168 121.507 48.8546C118.621 49.7861 115.625 50.6084 112.973 52.035C107.578 54.9384 102.358 58.1607 97.1221 61.3578C85.0133 68.759 74.7255 78.1406 66.5606 89.7794C60.2168 98.817 55.4924 108.652 52.0855 119.141C49.7779 126.248 47.7555 133.431 46.6479 140.824C45.9011 145.784 45.4983 150.793 45.0535 155.786C44.6004 160.846 44.9276 165.906 45.5822 170.916C46.178 175.422 47.0591 179.895 47.9318 184.35C49.2408 191.055 50.7597 197.709 53.168 204.12C58.186 217.488 65.4026 229.513 75.1366 239.969C83.6287 249.082 93.7823 255.686 105.614 259.722C121.121 265.008 136.646 270.194 153.151 271.394C157.641 271.722 162.155 271.747 166.586 270.991C172.091 270.052 177.579 268.961 183 267.643C190.115 265.915 197.257 264.178 204.23 261.962C216.078 258.186 226.845 252.212 236.797 244.777C241.857 241.001 246.598 236.864 251.154 232.509C255.879 227.994 260.267 223.228 263.532 217.53C268.902 208.216 273.14 198.372 277.226 188.454Z" fill="#292929"/>
<path d="M277.226 188.454C273.148 198.372 268.902 208.207 263.548 217.522C260.276 223.219 255.887 227.986 251.171 232.5C246.606 236.864 241.865 241.001 236.814 244.768C226.853 252.195 216.095 258.178 204.247 261.954C197.273 264.178 190.141 265.915 183.016 267.635C177.595 268.952 172.108 270.043 166.603 270.983C162.172 271.747 157.649 271.713 153.168 271.386C136.662 270.194 121.138 265.008 105.631 259.713C93.7991 255.677 83.6455 249.082 75.1534 239.96C65.4194 229.504 58.1944 217.48 53.1848 204.112C50.7764 197.693 49.266 191.038 47.9485 184.342C47.0758 179.878 46.1863 175.414 45.5989 170.907C44.936 165.898 44.6171 160.829 45.0703 155.778C45.515 150.785 45.9178 145.775 46.6646 140.816C47.7723 133.423 49.7946 126.24 52.1023 119.133C55.5092 108.643 60.2419 98.8086 66.5774 89.771C74.7422 78.1322 85.0301 68.7506 97.1388 61.3494C102.367 58.1523 107.595 54.93 112.99 52.0266C115.642 50.6 118.629 49.7777 121.524 48.8462C126.744 47.1596 132.013 45.6156 137.25 43.9625C142.469 42.3094 147.814 41.2017 153.218 40.48C157.758 39.8675 162.332 39.5234 166.905 39.2045C171.881 38.8605 176.865 38.5584 181.85 38.4661C187.262 38.3654 192.566 39.3975 197.861 40.4716C207.242 42.3681 216.599 44.3652 225.779 47.1092C234.33 49.6686 242.687 52.7482 250.584 56.9355C257.951 60.8375 263.783 66.3591 268.046 73.5673C270.841 78.3 273.828 82.9153 276.681 87.6061C280.415 93.7486 282.58 100.487 284.065 107.468C285.383 113.703 286.239 119.997 286.516 126.357C286.725 131.141 287.053 135.949 286.793 140.715C286.44 147.218 285.702 153.713 284.905 160.183C284.435 164.026 283.528 167.811 282.815 171.629C275.615 170.001 268.424 168.373 261.224 166.737C255.82 165.512 250.416 164.27 245.012 163.028C244.852 162.994 244.701 162.919 244.55 162.86C244.693 161.736 244.903 160.611 244.978 159.478C245.297 154.435 245.666 149.392 245.834 144.34C246.086 136.989 245.616 129.68 243.971 122.481C242.327 115.314 239.23 108.769 235.513 102.484C233.44 98.9764 231.124 95.6282 228.003 92.9849C225.762 91.0885 223.32 89.4186 220.895 87.7487C215.65 84.1404 210.406 80.5489 204.448 78.1154C196.09 74.6917 187.489 72.4932 178.409 72.51C174.491 72.5184 170.572 72.6107 166.645 72.619C161.501 72.6358 156.416 73.2484 151.414 74.398C134.111 78.3839 120.14 87.7571 108.669 101.066C101.737 109.113 96.6102 118.26 92.5991 128.069C86.8007 142.242 84.6525 156.927 86.2384 172.149C87.0944 180.339 89.0999 188.269 91.7348 196.065C94.6046 204.565 99.2702 211.866 105.748 218.042C110.674 222.741 116.221 226.601 122.036 230.1C129.731 234.732 137.997 237.854 146.858 239.28C150.584 239.876 154.36 240.338 158.127 240.497C162.541 240.69 166.997 240.816 171.377 240.38C175.38 239.985 179.366 239.02 183.251 237.904C191.743 235.454 199.606 231.577 206.965 226.693C216.389 220.442 224.101 212.445 230.621 203.265C235.672 196.149 238.836 188.185 241.085 179.811C245.767 181.053 250.449 182.278 255.124 183.545C262.399 185.542 269.741 187.304 277.226 188.454Z" fill="#292929"/>
<path d="M238.332 161.375C231.946 159.814 225.577 158.194 219.175 156.709C214.853 155.702 210.49 154.88 206.151 153.965C206.051 153.948 205.958 153.906 205.866 153.873C206.017 151.314 206.252 148.763 206.277 146.203C206.302 144.282 206.067 142.36 205.933 140.438C205.807 138.517 205.799 136.578 205.497 134.682C204.943 131.191 204.062 127.776 202.619 124.511C200.269 119.191 196.644 115.096 191.399 112.512C188.303 110.985 184.971 110.179 181.623 109.382C177.746 108.467 173.819 107.93 169.859 107.687C164.975 107.393 160.125 107.821 155.417 109.113C151.599 110.162 147.764 111.278 144.097 112.755C139.364 114.668 135.479 117.907 132.013 121.633C128.153 125.77 125.435 130.595 123.689 135.94C122.044 140.975 121.205 146.17 121.205 151.465C121.205 154.351 121.23 157.288 121.7 160.124C122.338 163.985 123.916 167.559 125.938 170.933C128.531 175.237 131.829 178.946 135.748 182.051C138.785 184.459 142.125 186.415 145.7 187.984C150.458 190.073 155.476 191.038 160.586 191.324C163.489 191.483 166.452 191.173 169.347 190.745C174.776 189.939 179.802 187.925 184.527 185.139C188.068 183.05 191.324 180.591 194.361 177.83C196.543 175.85 198.515 173.693 199.916 171.067C201.721 171.545 203.542 171.981 205.329 172.51C211.195 174.222 217.194 175.195 223.219 176.11C226.954 176.681 230.654 177.461 234.372 178.166C234.623 178.216 234.858 178.359 235.093 178.46C234.992 178.728 234.875 178.988 234.799 179.265C232.492 186.985 229.127 194.193 224.545 200.831C220.559 206.604 215.801 211.681 210.406 216.137C206.143 219.653 201.586 222.758 196.753 225.468C192.306 227.969 187.724 230.1 182.798 231.518C177.73 232.97 172.569 233.86 167.308 234.027C162.122 234.195 156.919 234.288 151.767 233.415C148.67 232.895 145.574 232.316 142.511 231.619C135.731 230.067 129.504 227.163 123.58 223.58C119.233 220.945 115.189 217.899 111.538 214.392C109.155 212.101 106.973 209.575 104.909 206.982C101.72 202.979 99.3289 198.481 97.6758 193.648C96.4423 190.023 95.4269 186.322 94.4619 182.622C93.95 180.65 93.6731 178.602 93.4214 176.572C93.1864 174.742 93.1361 172.888 92.9934 171.042C92.792 168.474 92.4983 165.906 92.4144 163.338C92.3473 161.282 92.5067 159.21 92.6158 157.146C92.7081 155.467 92.7836 153.781 93.0354 152.119C93.5137 148.914 94.0004 145.7 94.6717 142.528C96.0311 136.075 98.3219 129.924 101.309 124.05C102.912 120.903 104.523 117.748 106.403 114.769C109.919 109.197 114.089 104.129 118.898 99.589C125.904 92.9766 133.7 87.5474 142.62 83.8467C149.098 81.1615 155.878 79.6511 162.869 79.0972C166.577 78.8035 170.286 78.4847 173.995 78.3168C176.06 78.2245 178.132 78.3588 180.197 78.5014C182.63 78.6693 185.081 78.8455 187.489 79.2147C195.645 80.4734 203.088 83.6286 210.104 87.9166C222.8 95.6702 231.863 106.302 236.184 120.702C237.829 126.173 238.718 131.778 238.92 137.485C239.046 141.277 239.205 145.07 239.096 148.863C239.004 153.042 238.601 157.213 238.332 161.375Z" fill="#292929"/>
<path d="M199.53 152.354C196.325 151.532 193.119 150.718 189.922 149.879C185.198 148.637 180.49 147.361 175.766 146.102C174.029 145.641 173.467 144.726 173.609 142.931C173.836 140.128 173.953 137.317 174.146 134.506C174.18 133.985 174.054 133.692 173.509 133.583C172.762 133.423 172.032 133.129 171.277 133.045C169.514 132.844 168.675 133.373 168.314 135.127C167.996 136.662 167.777 138.24 167.761 139.801C167.635 149.652 163.993 158.178 158.11 165.881C157.28 166.972 156.357 167.996 155.501 169.07C154.418 170.429 154.695 172.275 156.113 173.282C157.028 173.937 159 173.391 159.965 172.191C162.264 169.313 164.563 166.426 166.837 163.523C168.356 161.585 168.298 161.702 170.63 162.373C174.927 163.615 179.29 164.639 183.603 165.856C186.943 166.804 190.241 167.912 193.564 168.952C189.78 175.036 184.283 178.955 177.721 181.539C170.891 184.233 163.808 185.206 156.533 184.325C149.031 183.419 142.695 180.088 137.501 174.625C129.706 166.435 125.728 156.843 127.457 145.431C129.328 133.104 135.848 123.882 146.832 117.933C152.211 115.021 158.136 113.888 164.169 113.536C170.018 113.2 175.841 113.653 181.598 114.878C185.752 115.759 189.377 117.488 192.179 120.744C193.883 122.724 195.016 125.048 196.107 127.39C198.607 132.743 200 138.374 200.076 144.273C200.093 146.975 199.715 149.66 199.53 152.354Z" fill="#FCD08B"/>
<path d="M238.332 161.375C238.609 157.204 239.004 153.042 239.121 148.872C239.222 145.087 239.071 141.286 238.945 137.493C238.752 131.787 237.854 126.181 236.209 120.71C231.888 106.302 222.825 95.6786 210.129 87.925C203.122 83.637 195.679 80.4902 187.514 79.2231C185.106 78.8539 182.656 78.6776 180.222 78.5098C178.158 78.3672 176.077 78.2329 174.021 78.3252C170.303 78.493 166.603 78.8119 162.894 79.1056C155.904 79.6594 149.124 81.1699 142.645 83.8551C133.725 87.5557 125.93 92.985 118.923 99.5974C114.115 104.137 109.953 109.206 106.428 114.777C104.549 117.756 102.929 120.911 101.335 124.058C98.3473 129.932 96.0648 136.083 94.697 142.536C94.0257 145.708 93.539 148.922 93.0607 152.127C92.8174 153.789 92.7335 155.476 92.6412 157.154C92.5321 159.218 92.3726 161.282 92.4398 163.347C92.5237 165.923 92.8258 168.482 93.0188 171.05C93.1614 172.896 93.2118 174.751 93.4467 176.58C93.6985 178.611 93.9754 180.658 94.4873 182.63C95.4523 186.339 96.4676 190.04 97.7012 193.656C99.3543 198.49 101.737 202.988 104.935 206.99C106.999 209.575 109.181 212.109 111.564 214.4C115.214 217.908 119.259 220.954 123.605 223.589C129.53 227.18 135.748 230.083 142.536 231.627C145.599 232.324 148.696 232.903 151.792 233.423C156.944 234.296 162.147 234.195 167.333 234.036C172.594 233.868 177.747 232.978 182.823 231.527C187.749 230.117 192.331 227.986 196.778 225.477C201.603 222.758 206.168 219.661 210.431 216.145C215.827 211.69 220.585 206.613 224.571 200.839C229.152 194.202 232.517 186.994 234.825 179.274C234.909 178.997 235.026 178.737 235.119 178.468C237.099 178.921 239.079 179.374 241.068 179.827C238.819 188.202 235.656 196.165 230.604 203.281C224.084 212.462 216.372 220.467 206.949 226.71C199.589 231.586 191.727 235.471 183.235 237.921C179.358 239.037 175.363 239.994 171.361 240.396C166.98 240.833 162.525 240.707 158.111 240.514C154.343 240.346 150.567 239.893 146.841 239.297C137.98 237.871 129.714 234.757 122.019 230.117C116.204 226.618 110.657 222.758 105.732 218.059C99.2536 211.883 94.588 204.582 91.7181 196.082C89.0916 188.278 87.0777 180.348 86.2217 172.166C84.6358 156.953 86.7756 142.259 92.5824 128.086C96.6019 118.277 101.721 109.13 108.652 101.083C120.123 87.7739 134.095 78.4007 151.398 74.4148C156.399 73.2568 161.484 72.6442 166.628 72.6358C170.547 72.6275 174.466 72.5268 178.393 72.5268C187.472 72.5184 196.073 74.7085 204.431 78.1322C210.389 80.5657 215.634 84.1572 220.878 87.7655C223.303 89.4354 225.745 91.1053 227.986 93.0017C231.107 95.645 233.423 98.9932 235.496 102.501C239.205 108.786 242.31 115.34 243.955 122.497C245.608 129.697 246.069 137.006 245.818 144.357C245.641 149.409 245.272 154.452 244.962 159.495C244.895 160.628 244.685 161.752 244.534 162.877C242.469 162.382 240.397 161.878 238.332 161.375Z" fill="#FDFEFE"/>
<path d="M199.531 152.354C199.724 149.669 200.093 146.984 200.068 144.298C200 138.399 198.599 132.769 196.098 127.415C194.999 125.065 193.875 122.749 192.171 120.769C189.369 117.513 185.735 115.784 181.59 114.903C175.833 113.678 170.01 113.225 164.161 113.561C158.119 113.905 152.203 115.046 146.824 117.958C135.84 123.899 129.32 133.121 127.448 145.456C125.72 156.869 129.697 166.46 137.493 174.65C142.687 180.113 149.023 183.444 156.525 184.35C163.808 185.232 170.882 184.25 177.713 181.564C184.275 178.98 189.78 175.061 193.556 168.977C195.687 169.691 197.81 170.396 199.942 171.109C198.54 173.735 196.568 175.892 194.387 177.872C191.349 180.633 188.093 183.092 184.552 185.181C179.828 187.976 174.801 189.981 169.372 190.787C166.485 191.215 163.515 191.533 160.611 191.366C155.493 191.08 150.483 190.115 145.725 188.026C142.15 186.457 138.81 184.51 135.773 182.093C131.854 178.98 128.565 175.279 125.963 170.975C123.932 167.61 122.355 164.026 121.726 160.166C121.256 157.33 121.23 154.402 121.23 151.507C121.23 146.212 122.07 141.009 123.714 135.982C125.46 130.637 128.179 125.812 132.039 121.675C135.504 117.949 139.389 114.71 144.122 112.797C147.789 111.32 151.624 110.204 155.442 109.155C160.158 107.863 165.008 107.427 169.884 107.729C173.844 107.964 177.772 108.501 181.648 109.424C184.997 110.213 188.328 111.026 191.424 112.554C196.669 115.13 200.286 119.233 202.644 124.553C204.087 127.818 204.968 131.225 205.522 134.724C205.824 136.62 205.824 138.559 205.958 140.48C206.084 142.402 206.319 144.332 206.302 146.245C206.269 148.805 206.034 151.355 205.891 153.915C203.751 153.369 201.637 152.858 199.531 152.354Z" fill="#FFFDFC"/>
<path d="M170.555 156.038C171.235 154.267 171.831 152.723 172.468 151.062C174.205 151.54 175.9 151.993 177.596 152.463C187.455 155.232 197.299 158.043 207.335 160.108C214.727 161.627 222.162 162.978 229.521 164.673C234.875 165.906 240.103 167.693 245.44 169.019C252.111 170.672 258.841 172.091 265.546 173.643C273.711 175.531 281.85 177.495 290.015 179.358C300.731 181.799 311.463 184.174 322.196 186.566C328.54 187.984 334.892 189.343 341.228 190.795C344.207 191.483 347.152 192.339 350.114 193.111C350.433 193.195 350.777 193.195 351.113 193.203C355.459 193.346 359.823 193.354 364.161 193.648C369.095 193.984 373.971 194.789 378.687 196.35C380.869 197.072 381.766 200.168 380.248 201.964C379.92 202.358 379.199 202.635 378.67 202.618C376.967 202.576 375.271 202.383 373.576 202.224C371.017 201.981 368.458 201.679 365.89 201.477C360.117 201.024 354.444 200 348.847 198.54C339.34 196.065 329.866 193.422 320.299 191.173C312.428 189.327 304.457 187.883 296.51 186.373C285.291 184.241 274.021 182.353 262.835 180.054C258.019 179.064 253.361 177.293 248.62 175.9C239.801 173.307 230.847 171.243 221.734 170.035C211.698 168.709 202.09 165.847 192.608 162.491C186.826 160.443 180.877 159.143 174.927 157.758C173.459 157.431 172.091 156.659 170.555 156.038Z" fill="#C0AF9B"/>
<path d="M338.483 184.35C340.766 183.369 343.006 182.454 345.205 181.447C350.156 179.198 355.082 176.899 360.024 174.633C363.473 173.056 367.073 172.2 370.883 172.275C375.674 172.376 380.466 172.351 385.249 172.552C390.695 172.779 396.141 173.098 401.57 173.542C406.94 173.987 412.277 174.726 417.681 174.566C418.26 174.549 419.167 174.356 419.242 175.523C416.884 176.647 414.518 177.788 412.143 178.913C402.795 183.343 393.095 186.885 383.461 190.602C381.498 191.357 379.584 190.963 377.654 190.543C372.913 189.511 368.122 188.831 363.28 188.588C359.739 188.403 356.189 188.37 352.648 188.143C351.23 188.051 349.812 187.715 348.436 187.321C345.138 186.39 341.874 185.366 338.483 184.35Z" fill="#FFA483"/>
<path d="M334.12 200C337.871 201.108 341.387 202.232 344.962 203.172C350.03 204.507 355.191 205.421 360.419 205.9C364.413 206.26 368.424 206.462 372.402 206.948C375.104 207.276 377.822 207.779 380.415 208.585C381.909 209.055 383.302 210.129 384.51 211.203C391.232 217.161 397.878 223.203 403.819 229.958C403.903 230.05 403.962 230.167 404.138 230.428C401.495 229.983 399.027 229.563 396.552 229.135C392.012 228.363 387.473 227.616 382.941 226.819C376.765 225.737 370.589 224.671 364.43 223.496C359.815 222.615 355.233 221.566 350.643 220.593C349.518 220.358 348.637 219.796 347.941 218.847C343.502 212.797 339.046 206.772 334.59 200.739C334.447 200.554 334.338 200.344 334.12 200Z" fill="#FFA483"/>
<path d="M295.383 168.44L320.846 175.263L320 180.485L293.83 174.235L295.383 168.44Z" fill="#292929"/>
<path d="M287.281 189.485L316.5 195.485L314.5 200.985L286 196.485L287.281 189.485Z" fill="#292929"/>
</g>
<defs>
<clipPath id="clip0_16_32">
<rect width="435.437" height="310.154" fill="white"/>
</clipPath>
</defs>
</svg>
