<svg width="1600" height="500" viewBox="0 0 1600 500" fill="none" xmlns="http://www.w3.org/2000/svg">
<g clip-path="url(#clip0_16_29)">
<g clip-path="url(#clip1_16_29)">
<path d="M180.832 96.2845C181.402 96.1895 182.006 96.1992 182.644 96.2513C182.963 96.2773 183.285 96.3133 183.614 96.3509C183.94 96.3883 184.275 96.4274 184.607 96.4574H184.609C194.661 97.3132 204.705 98.1857 214.75 99.0668H214.75C223.858 99.8593 232.968 100.711 242.086 101.474L245.995 101.794C250.466 102.15 254.83 103.069 259.197 104.08L263.568 105.106C270.198 106.661 276.803 108.363 283.373 110.18L286.186 110.966C293.487 113.024 299.925 116.919 306.012 121.434V121.435C311.936 125.823 317.823 130.254 323.423 135.008H323.424C328.602 139.4 332.248 145.129 335.134 151.294H335.135C340.153 161.996 344.412 173.019 348.234 184.204L348.993 186.444C350.368 190.547 351.069 194.832 351.343 199.162L351.393 200.03C351.779 207.786 352.047 215.552 352.249 223.32V223.321C352.391 228.71 352.432 234.098 352.34 239.485C352.215 246.37 351.465 253.216 350.351 260.019L350.124 261.378C349.253 266.463 348.265 271.519 347.325 276.605C347.09 276.575 346.872 276.546 346.642 276.497H346.641C338.795 274.71 330.956 272.958 323.132 271.113C319.639 270.289 316.194 269.302 312.699 268.37C312.794 268.053 312.894 267.718 312.972 267.395C315.505 256.884 317.037 246.22 317.517 235.421C317.955 225.501 317.585 215.588 315.95 205.754C314.498 197.036 311.761 188.749 307.167 181.125C303.99 175.85 300.642 170.735 297.703 165.375C292.877 156.581 285.929 150.086 277.129 145.495C267.456 140.448 257.251 136.811 246.791 133.885C237.699 131.345 228.458 129.495 219.239 127.65C210.957 125.993 202.624 125.852 194.275 126.577C191.696 126.8 189.2 127.152 186.674 127.309L185.589 127.364C179.577 127.591 173.65 128.342 167.776 129.564C158.413 131.507 149.435 134.605 140.647 138.247L138.891 138.983C134.608 140.802 130.29 142.686 126.467 145.555C125.805 146.05 125.058 146.446 124.275 146.827L123.483 147.206C115.861 150.815 108.795 155.279 102.469 160.912V160.913C97.7902 165.086 93.7084 169.793 89.8247 174.643V174.644C80.8658 185.843 73.7362 198.084 69.0327 211.672V211.673C63.6489 227.26 61.5192 243.338 61.7212 259.765C61.8392 269.229 63.1031 278.533 65.4028 287.706H65.4038C69.1413 302.598 74.9282 316.594 83.772 329.257V329.258C90.202 338.452 97.8073 346.509 107.306 352.636V352.635C115.329 357.815 123.995 361.667 133.012 364.681C147.328 369.467 161.995 372.657 177.086 373.793C182.901 374.232 188.727 374.064 194.437 372.766C202.801 370.877 211.13 368.837 219.425 366.679H219.426C232.491 363.272 245.004 358.503 256.287 350.756C264.996 344.776 273.454 338.494 280.857 330.846C288.743 322.698 294.989 313.459 299.453 303.021C300.728 300.038 302.003 297.052 303.279 294.067C304.504 291.199 305.728 288.331 306.954 285.465C308.792 285.735 310.598 285.953 312.4 286.296V286.297C319.758 287.715 327.099 289.158 334.449 290.626H334.45C337.477 291.227 340.485 291.893 343.513 292.538C341.724 297.905 340.151 303.297 338.093 308.514V308.515C332.182 323.522 323.829 337.074 313.143 349.191C307.309 355.801 300.643 361.475 293.513 366.663C284.977 372.871 276.149 378.568 266.66 383.183C254.634 389.032 242.098 393.502 229.125 396.658C219.858 398.91 210.538 400.976 201.205 402.952L197.204 403.794C193.982 404.467 190.672 404.451 187.265 404.768H187.264C185.857 404.901 184.449 405.035 183.034 405.168H171.424C171.161 405.117 170.796 405.03 170.472 404.995L170.462 404.994L168.374 404.831C166.292 404.679 164.23 404.542 162.173 404.291H162.172C154.594 403.369 147.101 401.952 139.64 400.321L136.445 399.609L134.245 399.104C123.257 396.541 112.405 393.449 101.557 390.302C93.5639 387.983 86.0848 384.597 79.2007 379.93C71.0877 374.43 64.0177 367.737 57.3774 360.544C46.3988 348.651 38.0839 335.068 32.0015 320.119L31.4204 318.667C27.9789 309.938 25.7002 300.905 24.8071 291.574C24.2796 286.055 24.1298 280.521 23.8013 274.944V274.943L23.6626 272.664C23.6168 271.91 23.5698 271.156 23.5239 270.402C23.5072 264.242 23.5083 258.082 23.5083 251.929C23.621 250.94 23.8089 249.851 23.8599 248.791C24.4112 237.84 26.5928 227.171 29.5405 216.619C34.1688 200.032 40.9366 184.406 50.5444 170.082C56.7455 160.831 64.129 152.574 72.1265 144.82C79.3472 137.825 86.9203 131.258 95.1978 125.556C106.144 118.016 117.756 111.726 130.183 107.051C133.957 105.633 138.024 105.025 142.082 104.125L142.081 104.124C148.827 102.634 155.579 101.165 162.348 99.7582L165.25 99.1595C169.774 98.2284 174.325 97.3869 178.879 96.6127L180.832 96.2845Z" fill="#292929" stroke="white"/>
<mask id="path-2-inside-1_16_29" fill="white">
<path d="M344.155 292.167C340.95 291.487 337.753 290.774 334.539 290.136C327.196 288.668 319.846 287.224 312.486 285.806C310.556 285.437 308.593 285.21 306.638 284.917C304.498 284.606 302.358 284.287 300.218 283.977C292.741 282.827 285.39 281.065 278.098 279.085C273.424 277.817 268.734 276.592 264.06 275.35C262.079 274.897 260.099 274.444 258.11 273.991C257.867 273.89 257.64 273.748 257.388 273.697C253.671 273.001 249.97 272.212 246.236 271.641C240.211 270.727 234.203 269.753 228.346 268.041C226.55 267.521 224.738 267.076 222.933 266.598C220.802 265.885 218.679 265.18 216.548 264.467C213.233 263.426 209.935 262.319 206.587 261.37C202.282 260.154 197.919 259.13 193.614 257.888C191.273 257.217 191.331 257.099 189.821 259.038C187.547 261.941 185.248 264.828 182.948 267.706C181.983 268.906 180.011 269.451 179.097 268.797C177.679 267.781 177.402 265.935 178.484 264.584C179.34 263.51 180.263 262.486 181.094 261.396C186.976 253.692 190.618 245.158 190.744 235.315C190.761 233.754 190.979 232.177 191.298 230.641C191.659 228.887 192.498 228.359 194.26 228.56C195.015 228.644 195.745 228.946 196.492 229.097C197.038 229.206 197.163 229.5 197.13 230.02C196.937 232.823 196.828 235.642 196.593 238.445C196.45 240.241 197.012 241.155 198.749 241.617C203.465 242.867 208.181 244.143 212.906 245.393C216.103 246.241 219.308 247.046 222.514 247.869C224.628 248.38 226.735 248.884 228.849 249.396C228.942 249.429 229.034 249.471 229.135 249.488C233.481 250.394 237.837 251.225 242.158 252.232C248.561 253.726 254.93 255.337 261.316 256.898C263.38 257.401 265.453 257.896 267.517 258.4C267.668 258.459 267.819 258.534 267.978 258.568C273.382 259.81 278.786 261.043 284.191 262.277C291.382 263.913 298.582 265.532 305.782 267.16C307.871 267.681 309.969 268.201 312.058 268.721C315.7 269.686 319.325 270.727 323.001 271.599C330.83 273.446 338.684 275.199 346.522 276.987C346.908 277.079 347.311 277.104 347.713 277.163C350.684 278.086 353.436 277.557 356.256 276.324C362.281 273.697 368.457 271.423 374.457 268.755C377.864 267.236 381.069 265.264 384.325 263.418C385.5 262.747 386.691 262.319 388.034 262.377C393.757 262.621 399.48 262.864 405.194 263.124C411.48 263.409 417.773 263.737 424.058 264.014C431.283 264.333 438.508 264.626 445.742 264.928C447.546 265.004 448.762 265.944 449.425 267.563C450.105 269.233 449.879 270.836 448.561 272.095C446.044 274.494 443.199 276.383 439.935 277.666C431.334 281.065 422.774 284.556 414.182 287.971C410.103 289.591 408.87 290.74 408.92 296.161C408.945 299.316 410.271 301.842 412.688 303.931C419.216 309.562 425.35 315.621 431.157 321.981C432.819 323.794 433.608 326.043 433.692 328.485C433.775 330.868 432.349 332.42 429.957 332.361C428.027 332.311 426.089 332.043 424.192 331.69C412.554 329.534 400.932 327.318 389.301 325.128C383.981 324.13 378.652 323.131 373.324 322.149C370.488 321.629 368.138 320.27 366.535 317.886C361.92 311.031 356.373 304.913 351.288 298.435C350.331 297.218 349.711 295.741 349.006 294.348C348.846 294.046 348.98 293.593 348.98 293.056C347.411 292.763 345.783 292.469 344.155 292.167ZM193.555 251.552C195.091 252.173 196.459 252.945 197.919 253.289C203.868 254.674 209.818 255.975 215.599 258.022C225.082 261.379 234.698 264.24 244.726 265.566C253.839 266.774 262.793 268.839 271.612 271.432C276.353 272.825 281.01 274.595 285.827 275.585C297.013 277.885 308.282 279.773 319.501 281.904C327.448 283.415 335.42 284.849 343.291 286.704C352.857 288.953 362.323 291.596 371.839 294.072C377.436 295.523 383.108 296.547 388.882 297.009C391.449 297.21 394 297.52 396.568 297.755C398.263 297.915 399.967 298.108 401.662 298.15C402.19 298.167 402.904 297.89 403.239 297.495C404.75 295.7 403.86 292.603 401.678 291.881C396.962 290.321 392.087 289.515 387.153 289.179C382.815 288.886 378.451 288.877 374.104 288.735C373.769 288.726 373.425 288.726 373.106 288.642C370.144 287.879 367.207 287.014 364.219 286.326C357.884 284.866 351.531 283.507 345.188 282.097C334.463 279.706 323.731 277.331 313.007 274.889C304.842 273.026 296.694 271.071 288.537 269.174C281.841 267.622 275.111 266.204 268.432 264.551C263.095 263.225 257.867 261.437 252.513 260.204C245.162 258.509 237.727 257.158 230.326 255.639C220.29 253.575 210.439 250.764 200.587 247.994C198.892 247.516 197.197 247.063 195.46 246.593C194.831 248.238 194.235 249.782 193.555 251.552ZM361.484 279.865C364.865 280.88 368.138 281.904 371.436 282.836C372.812 283.222 374.23 283.566 375.648 283.658C379.189 283.884 382.739 283.918 386.28 284.103C391.122 284.354 395.913 285.026 400.655 286.058C402.585 286.477 404.498 286.872 406.461 286.117C416.095 282.399 425.804 278.858 435.143 274.427C437.518 273.303 439.884 272.162 442.242 271.037C442.167 269.871 441.261 270.064 440.682 270.081C435.277 270.24 429.932 269.502 424.57 269.057C419.141 268.612 413.695 268.293 408.249 268.067C403.466 267.865 398.666 267.89 393.883 267.79C390.073 267.714 386.465 268.57 383.024 270.148C378.082 272.413 373.156 274.713 368.205 276.962C366.007 277.969 363.766 278.883 361.484 279.865ZM357.12 295.515C357.338 295.859 357.456 296.06 357.59 296.253C362.037 302.287 366.502 308.32 370.941 314.362C371.637 315.31 372.518 315.872 373.643 316.107C378.241 317.081 382.823 318.13 387.43 319.011C393.589 320.186 399.765 321.251 405.941 322.334C410.473 323.131 415.012 323.878 419.552 324.65C422.027 325.069 424.503 325.489 427.138 325.942C426.962 325.682 426.903 325.573 426.819 325.472C420.878 318.717 414.232 312.675 407.51 306.717C406.302 305.652 404.917 304.569 403.415 304.099C400.822 303.294 398.104 302.79 395.402 302.463C391.424 301.976 387.413 301.783 383.419 301.414C378.191 300.936 373.03 300.029 367.962 298.687C364.387 297.747 360.871 296.623 357.12 295.515Z"/>
</mask>
<path d="M344.155 292.167C340.95 291.487 337.753 290.774 334.539 290.136C327.196 288.668 319.846 287.224 312.486 285.806C310.556 285.437 308.593 285.21 306.638 284.917C304.498 284.606 302.358 284.287 300.218 283.977C292.741 282.827 285.39 281.065 278.098 279.085C273.424 277.817 268.734 276.592 264.06 275.35C262.079 274.897 260.099 274.444 258.11 273.991C257.867 273.89 257.64 273.748 257.388 273.697C253.671 273.001 249.97 272.212 246.236 271.641C240.211 270.727 234.203 269.753 228.346 268.041C226.55 267.521 224.738 267.076 222.933 266.598C220.802 265.885 218.679 265.18 216.548 264.467C213.233 263.426 209.935 262.319 206.587 261.37C202.282 260.154 197.919 259.13 193.614 257.888C191.273 257.217 191.331 257.099 189.821 259.038C187.547 261.941 185.248 264.828 182.948 267.706C181.983 268.906 180.011 269.451 179.097 268.797C177.679 267.781 177.402 265.935 178.484 264.584C179.34 263.51 180.263 262.486 181.094 261.396C186.976 253.692 190.618 245.158 190.744 235.315C190.761 233.754 190.979 232.177 191.298 230.641C191.659 228.887 192.498 228.359 194.26 228.56C195.015 228.644 195.745 228.946 196.492 229.097C197.038 229.206 197.163 229.5 197.13 230.02C196.937 232.823 196.828 235.642 196.593 238.445C196.45 240.241 197.012 241.155 198.749 241.617C203.465 242.867 208.181 244.143 212.906 245.393C216.103 246.241 219.308 247.046 222.514 247.869C224.628 248.38 226.735 248.884 228.849 249.396C228.942 249.429 229.034 249.471 229.135 249.488C233.481 250.394 237.837 251.225 242.158 252.232C248.561 253.726 254.93 255.337 261.316 256.898C263.38 257.401 265.453 257.896 267.517 258.4C267.668 258.459 267.819 258.534 267.978 258.568C273.382 259.81 278.786 261.043 284.191 262.277C291.382 263.913 298.582 265.532 305.782 267.16C307.871 267.681 309.969 268.201 312.058 268.721C315.7 269.686 319.325 270.727 323.001 271.599C330.83 273.446 338.684 275.199 346.522 276.987C346.908 277.079 347.311 277.104 347.713 277.163C350.684 278.086 353.436 277.557 356.256 276.324C362.281 273.697 368.457 271.423 374.457 268.755C377.864 267.236 381.069 265.264 384.325 263.418C385.5 262.747 386.691 262.319 388.034 262.377C393.757 262.621 399.48 262.864 405.194 263.124C411.48 263.409 417.773 263.737 424.058 264.014C431.283 264.333 438.508 264.626 445.742 264.928C447.546 265.004 448.762 265.944 449.425 267.563C450.105 269.233 449.879 270.836 448.561 272.095C446.044 274.494 443.199 276.383 439.935 277.666C431.334 281.065 422.774 284.556 414.182 287.971C410.103 289.591 408.87 290.74 408.92 296.161C408.945 299.316 410.271 301.842 412.688 303.931C419.216 309.562 425.35 315.621 431.157 321.981C432.819 323.794 433.608 326.043 433.692 328.485C433.775 330.868 432.349 332.42 429.957 332.361C428.027 332.311 426.089 332.043 424.192 331.69C412.554 329.534 400.932 327.318 389.301 325.128C383.981 324.13 378.652 323.131 373.324 322.149C370.488 321.629 368.138 320.27 366.535 317.886C361.92 311.031 356.373 304.913 351.288 298.435C350.331 297.218 349.711 295.741 349.006 294.348C348.846 294.046 348.98 293.593 348.98 293.056C347.411 292.763 345.783 292.469 344.155 292.167ZM193.555 251.552C195.091 252.173 196.459 252.945 197.919 253.289C203.868 254.674 209.818 255.975 215.599 258.022C225.082 261.379 234.698 264.24 244.726 265.566C253.839 266.774 262.793 268.839 271.612 271.432C276.353 272.825 281.01 274.595 285.827 275.585C297.013 277.885 308.282 279.773 319.501 281.904C327.448 283.415 335.42 284.849 343.291 286.704C352.857 288.953 362.323 291.596 371.839 294.072C377.436 295.523 383.108 296.547 388.882 297.009C391.449 297.21 394 297.52 396.568 297.755C398.263 297.915 399.967 298.108 401.662 298.15C402.19 298.167 402.904 297.89 403.239 297.495C404.75 295.7 403.86 292.603 401.678 291.881C396.962 290.321 392.087 289.515 387.153 289.179C382.815 288.886 378.451 288.877 374.104 288.735C373.769 288.726 373.425 288.726 373.106 288.642C370.144 287.879 367.207 287.014 364.219 286.326C357.884 284.866 351.531 283.507 345.188 282.097C334.463 279.706 323.731 277.331 313.007 274.889C304.842 273.026 296.694 271.071 288.537 269.174C281.841 267.622 275.111 266.204 268.432 264.551C263.095 263.225 257.867 261.437 252.513 260.204C245.162 258.509 237.727 257.158 230.326 255.639C220.29 253.575 210.439 250.764 200.587 247.994C198.892 247.516 197.197 247.063 195.46 246.593C194.831 248.238 194.235 249.782 193.555 251.552ZM361.484 279.865C364.865 280.88 368.138 281.904 371.436 282.836C372.812 283.222 374.23 283.566 375.648 283.658C379.189 283.884 382.739 283.918 386.28 284.103C391.122 284.354 395.913 285.026 400.655 286.058C402.585 286.477 404.498 286.872 406.461 286.117C416.095 282.399 425.804 278.858 435.143 274.427C437.518 273.303 439.884 272.162 442.242 271.037C442.167 269.871 441.261 270.064 440.682 270.081C435.277 270.24 429.932 269.502 424.57 269.057C419.141 268.612 413.695 268.293 408.249 268.067C403.466 267.865 398.666 267.89 393.883 267.79C390.073 267.714 386.465 268.57 383.024 270.148C378.082 272.413 373.156 274.713 368.205 276.962C366.007 277.969 363.766 278.883 361.484 279.865ZM357.12 295.515C357.338 295.859 357.456 296.06 357.59 296.253C362.037 302.287 366.502 308.32 370.941 314.362C371.637 315.31 372.518 315.872 373.643 316.107C378.241 317.081 382.823 318.13 387.43 319.011C393.589 320.186 399.765 321.251 405.941 322.334C410.473 323.131 415.012 323.878 419.552 324.65C422.027 325.069 424.503 325.489 427.138 325.942C426.962 325.682 426.903 325.573 426.819 325.472C420.878 318.717 414.232 312.675 407.51 306.717C406.302 305.652 404.917 304.569 403.415 304.099C400.822 303.294 398.104 302.79 395.402 302.463C391.424 301.976 387.413 301.783 383.419 301.414C378.191 300.936 373.03 300.029 367.962 298.687C364.387 297.747 360.871 296.623 357.12 295.515Z" fill="#292929" stroke="white" stroke-width="2" mask="url(#path-2-inside-1_16_29)"/>
<path d="M419.475 290.879C419.872 290.573 420.358 290.445 421.131 290.532C425.952 291.078 430.818 291.416 435.625 291.867C438.873 292.171 442.089 292.386 445.251 292.935V292.936C445.715 293.018 446.189 293.267 446.691 293.621C447.19 293.973 447.652 294.379 448.153 294.782C448.154 294.784 448.155 294.787 448.156 294.79C448.167 294.827 448.178 294.893 448.179 294.993C448.181 295.194 448.141 295.464 448.058 295.758C447.976 296.048 447.859 296.34 447.724 296.583C447.584 296.835 447.445 296.996 447.339 297.07C447.085 297.244 446.794 297.383 446.504 297.503C446.3 297.587 446.046 297.685 445.852 297.765C439.47 297.124 433.493 296.533 427.516 295.916H427.517C425.198 295.673 422.877 295.388 420.552 295.102H420.551C420.274 295.066 420 294.988 419.761 294.872L419.543 294.758C419.048 294.478 418.654 294.112 418.413 293.747C418.13 293.318 418.108 292.979 418.208 292.765L418.209 292.763C418.661 291.789 419.048 291.207 419.475 290.879Z" fill="#292929" stroke="white"/>
<path d="M430.726 303.455V303.456C436.268 303.96 441.792 304.436 447.331 304.948V304.949C449.829 305.184 452.322 305.435 454.796 305.761V305.762C455.936 305.914 456.85 306.621 457.655 307.562L457.657 307.565C457.671 307.582 457.723 307.673 457.735 307.897C457.746 308.106 457.718 308.367 457.65 308.643C457.526 309.149 457.298 309.594 457.059 309.835L456.956 309.925L456.952 309.928C456.716 310.107 456.434 310.252 456.154 310.376C456.015 310.437 455.881 310.491 455.755 310.542C455.686 310.57 455.615 310.6 455.548 310.629C451.76 310.268 448.219 309.946 444.74 309.607L441.236 309.258C437.549 308.881 433.862 308.428 430.167 307.991H430.166C429.916 307.963 429.665 307.899 429.449 307.805C428.877 307.546 428.395 307.141 428.087 306.716C427.769 306.275 427.693 305.896 427.755 305.663L427.756 305.659C428.127 304.221 429.39 303.336 430.726 303.455Z" fill="#292929" stroke="white"/>
<path d="M300.226 283.968C302.366 284.279 304.506 284.598 306.646 284.908C304.095 290.874 301.544 296.849 298.993 302.815C294.554 313.196 288.344 322.384 280.498 330.49C273.139 338.101 264.706 344.361 256.004 350.336C244.785 358.039 232.34 362.789 219.3 366.187C211.009 368.344 202.685 370.383 194.327 372.271C188.68 373.546 182.898 373.723 177.125 373.286C162.079 372.153 147.453 368.973 133.171 364.198C124.184 361.194 115.557 357.359 107.577 352.207C98.1366 346.115 90.5844 338.118 84.1818 328.963C75.3708 316.368 69.6143 302.421 65.8885 287.577C63.5977 278.447 62.3306 269.174 62.2215 259.751C62.0201 243.371 64.1431 227.352 69.5052 211.828C74.1876 198.292 81.2867 186.1 90.2152 174.947C94.092 170.097 98.1534 165.415 102.802 161.278C109.087 155.681 116.111 151.242 123.697 147.65C124.754 147.147 125.837 146.643 126.768 145.947C130.536 143.127 134.79 141.256 139.087 139.435C148.418 135.483 157.934 132.109 167.877 130.045C173.726 128.828 179.625 128.082 185.608 127.855C188.52 127.746 191.415 127.318 194.319 127.066C202.635 126.345 210.917 126.487 219.14 128.132C228.371 129.97 237.593 131.824 246.656 134.358C257.095 137.278 267.265 140.895 276.898 145.93C285.617 150.487 292.49 156.906 297.264 165.608C300.21 170.978 303.575 176.122 306.738 181.375C311.295 188.936 314.022 197.159 315.457 205.828C317.085 215.62 317.454 225.497 317.018 235.391C316.539 246.157 315.012 256.789 312.486 267.269C312.369 267.756 312.209 268.234 312.075 268.713C309.986 268.193 307.888 267.672 305.798 267.152C306.512 263.342 307.409 259.549 307.888 255.706C308.685 249.236 309.423 242.741 309.776 236.238C310.036 231.472 309.709 226.664 309.499 221.88C309.222 215.52 308.366 209.218 307.049 202.991C305.572 196.01 303.398 189.272 299.664 183.129C296.811 178.43 293.824 173.815 291.029 169.09C286.775 161.882 280.935 156.361 273.567 152.459C265.662 148.271 257.313 145.192 248.762 142.632C239.582 139.888 230.225 137.891 220.844 135.995C215.557 134.929 210.254 133.888 204.833 133.989C199.849 134.081 194.864 134.375 189.888 134.728C185.315 135.046 180.741 135.399 176.202 136.003C170.798 136.725 165.452 137.832 160.233 139.485C155.005 141.147 149.735 142.683 144.507 144.369C141.621 145.301 138.625 146.123 135.973 147.55C130.578 150.453 125.358 153.675 120.122 156.872C108.013 164.274 97.7255 173.655 89.5606 185.294C83.2168 194.332 78.4924 204.166 75.0855 214.655C72.7779 221.763 70.7555 228.946 69.6479 236.339C68.9011 241.298 68.4983 246.308 68.0535 251.301C67.6004 256.361 67.9276 261.421 68.5822 266.43C69.178 270.937 70.0591 275.409 70.9318 279.865C72.2408 286.57 73.7597 293.224 76.168 299.635C81.186 313.003 88.4026 325.027 98.1366 335.483C106.629 344.596 116.782 351.2 128.614 355.236C144.121 360.523 159.646 365.709 176.151 366.909C180.641 367.236 185.155 367.261 189.586 366.506C195.091 365.566 200.579 364.475 206 363.158C213.115 361.429 220.257 359.692 227.23 357.477C239.078 353.701 249.845 347.726 259.797 340.291C264.857 336.515 269.598 332.378 274.154 328.023C278.879 323.509 283.267 318.742 286.532 313.045C291.902 303.73 296.14 293.887 300.226 283.968Z" fill="#FDFEFE"/>
<path d="M300.226 283.968C296.148 293.887 291.902 303.722 286.548 313.036C283.276 318.734 278.887 323.5 274.171 328.015C269.606 332.378 264.865 336.515 259.814 340.283C249.853 347.709 239.095 353.692 227.247 357.469C220.273 359.692 213.141 361.429 206.016 363.149C200.595 364.467 195.108 365.558 189.603 366.498C185.172 367.261 180.649 367.228 176.168 366.9C159.662 365.709 144.138 360.523 128.631 355.228C116.799 351.192 106.645 344.596 98.1534 335.475C88.4194 325.019 81.1944 312.994 76.1848 299.627C73.7764 293.207 72.266 286.553 70.9485 279.857C70.0758 275.392 69.1863 270.928 68.5989 266.422C67.936 261.412 67.6171 256.344 68.0703 251.292C68.515 246.299 68.9178 241.29 69.6646 236.33C70.7723 228.938 72.7946 221.755 75.1023 214.647C78.5092 204.158 83.2419 194.323 89.5774 185.286C97.7422 173.647 108.03 164.265 120.139 156.864C125.367 153.667 130.595 150.445 135.99 147.541C138.642 146.115 141.629 145.292 144.524 144.361C149.744 142.674 155.013 141.13 160.25 139.477C165.469 137.824 170.814 136.716 176.218 135.995C180.758 135.382 185.332 135.038 189.905 134.719C194.881 134.375 199.865 134.073 204.85 133.981C210.262 133.88 215.566 134.912 220.861 135.986C230.242 137.883 239.599 139.88 248.779 142.624C257.33 145.183 265.687 148.263 273.584 152.45C280.951 156.352 286.783 161.874 291.046 169.082C293.841 173.815 296.828 178.43 299.681 183.121C303.415 189.263 305.58 196.001 307.065 202.983C308.383 209.218 309.239 215.511 309.516 221.872C309.725 226.655 310.053 231.463 309.793 236.23C309.44 242.733 308.702 249.228 307.905 255.698C307.435 259.541 306.528 263.326 305.815 267.144C298.615 265.516 291.424 263.888 284.224 262.251C278.82 261.026 273.416 259.784 268.012 258.542C267.852 258.509 267.701 258.433 267.55 258.375C267.693 257.25 267.903 256.126 267.978 254.993C268.297 249.95 268.666 244.906 268.834 239.855C269.086 232.504 268.616 225.195 266.971 217.995C265.327 210.829 262.23 204.284 258.513 197.999C256.44 194.491 254.124 191.143 251.003 188.5C248.762 186.603 246.32 184.933 243.895 183.263C238.65 179.655 233.406 176.063 227.448 173.63C219.09 170.206 210.489 168.008 201.409 168.025C197.491 168.033 193.572 168.125 189.645 168.134C184.501 168.15 179.416 168.763 174.414 169.913C157.111 173.899 143.14 183.272 131.669 196.58C124.737 204.628 119.61 213.774 115.599 223.584C109.801 237.757 107.652 252.442 109.238 267.664C110.094 275.854 112.1 283.784 114.735 291.579C117.605 300.08 122.27 307.38 128.748 313.556C133.674 318.256 139.221 322.116 145.036 325.615C152.731 330.247 160.997 333.368 169.858 334.795C173.584 335.391 177.36 335.852 181.127 336.012C185.541 336.205 189.997 336.331 194.377 335.894C198.38 335.5 202.366 334.535 206.251 333.419C214.743 330.969 222.606 327.092 229.965 322.208C239.389 315.956 247.101 307.959 253.621 298.779C258.672 291.663 261.836 283.7 264.085 275.325C268.767 276.567 273.449 277.792 278.124 279.059C285.399 281.057 292.741 282.819 300.226 283.968Z" fill="#292929"/>
<path d="M261.332 256.889C254.946 255.329 248.577 253.709 242.175 252.224C237.853 251.217 233.49 250.394 229.151 249.48C229.051 249.463 228.958 249.421 228.866 249.387C229.017 246.828 229.252 244.277 229.277 241.718C229.302 239.796 229.067 237.874 228.933 235.953C228.807 234.031 228.799 232.093 228.497 230.196C227.943 226.706 227.062 223.29 225.619 220.026C223.269 214.706 219.644 210.611 214.399 208.026C211.303 206.499 207.971 205.693 204.623 204.896C200.746 203.982 196.819 203.445 192.859 203.201C187.975 202.908 183.125 203.336 178.417 204.628C174.599 205.677 170.764 206.793 167.097 208.27C162.364 210.183 158.479 213.422 155.013 217.148C151.153 221.285 148.435 226.11 146.689 231.455C145.044 236.49 144.205 241.684 144.205 246.979C144.205 249.866 144.23 252.803 144.7 255.639C145.338 259.499 146.916 263.074 148.938 266.447C151.531 270.752 154.829 274.461 158.748 277.566C161.785 279.974 165.125 281.929 168.7 283.498C173.458 285.588 178.476 286.553 183.586 286.838C186.489 286.998 189.452 286.687 192.347 286.259C197.776 285.454 202.802 283.44 207.527 280.654C211.068 278.564 214.324 276.106 217.361 273.345C219.543 271.364 221.515 269.208 222.916 266.581C224.721 267.06 226.542 267.496 228.329 268.025C234.195 269.737 240.194 270.71 246.219 271.625C249.954 272.195 253.654 272.976 257.372 273.681C257.623 273.731 257.858 273.874 258.093 273.974C257.992 274.243 257.875 274.503 257.799 274.78C255.492 282.5 252.127 289.708 247.545 296.346C243.559 302.119 238.801 307.196 233.406 311.652C229.143 315.168 224.586 318.272 219.753 320.983C215.306 323.483 210.724 325.615 205.798 327.033C200.73 328.485 195.569 329.374 190.308 329.542C185.122 329.71 179.919 329.802 174.767 328.929C171.67 328.409 168.574 327.83 165.511 327.134C158.731 325.581 152.504 322.678 146.58 319.095C142.233 316.46 138.189 313.414 134.538 309.906C132.155 307.615 129.973 305.089 127.909 302.497C124.72 298.494 122.329 293.996 120.676 289.163C119.442 285.538 118.427 281.837 117.462 278.136C116.95 276.164 116.673 274.117 116.421 272.086C116.186 270.257 116.136 268.402 115.993 266.556C115.792 263.988 115.498 261.421 115.414 258.853C115.347 256.797 115.507 254.724 115.616 252.66C115.708 250.982 115.784 249.295 116.035 247.634C116.514 244.428 117 241.214 117.672 238.042C119.031 231.589 121.322 225.438 124.309 219.564C125.912 216.418 127.523 213.263 129.403 210.284C132.919 204.712 137.089 199.643 141.898 195.104C148.904 188.491 156.7 183.062 165.62 179.361C172.098 176.676 178.878 175.166 185.869 174.612C189.578 174.318 193.286 173.999 196.995 173.831C199.06 173.739 201.132 173.873 203.197 174.016C205.63 174.184 208.081 174.36 210.489 174.729C218.645 175.988 226.088 179.143 233.104 183.431C245.8 191.185 254.863 201.817 259.184 216.216C260.829 221.687 261.718 227.293 261.92 232.999C262.046 236.792 262.205 240.585 262.096 244.378C262.004 248.557 261.601 252.727 261.332 256.889Z" fill="#292929"/>
<path d="M222.53 247.869C219.325 247.046 216.119 246.232 212.922 245.393C208.198 244.151 203.49 242.876 198.766 241.617C197.029 241.155 196.467 240.241 196.609 238.445C196.836 235.642 196.953 232.831 197.146 230.02C197.18 229.5 197.054 229.206 196.509 229.097C195.762 228.938 195.032 228.644 194.277 228.56C192.514 228.359 191.675 228.887 191.314 230.641C190.996 232.177 190.777 233.754 190.761 235.315C190.635 245.167 186.993 253.692 181.11 261.396C180.28 262.486 179.357 263.51 178.501 264.584C177.418 265.944 177.695 267.79 179.113 268.797C180.028 269.451 182 268.906 182.965 267.706C185.264 264.828 187.563 261.941 189.837 259.038C191.356 257.099 191.298 257.217 193.63 257.888C197.927 259.13 202.29 260.154 206.603 261.37C209.943 262.319 213.241 263.426 216.564 264.467C212.78 270.551 207.283 274.469 200.721 277.054C193.891 279.747 186.808 280.721 179.533 279.84C172.031 278.934 165.695 275.602 160.501 270.139C152.706 261.949 148.728 252.358 150.457 240.946C152.328 228.619 158.848 219.397 169.832 213.447C175.211 210.535 181.136 209.402 187.169 209.05C193.018 208.714 198.841 209.168 204.598 210.393C208.752 211.274 212.377 213.002 215.179 216.258C216.883 218.239 218.016 220.563 219.107 222.904C221.607 228.258 223 233.889 223.076 239.788C223.093 242.49 222.715 245.175 222.53 247.869Z" fill="#FCD08B"/>
<path d="M261.332 256.889C261.609 252.719 262.004 248.557 262.121 244.386C262.222 240.602 262.071 236.8 261.945 233.007C261.752 227.301 260.854 221.696 259.209 216.225C254.888 201.817 245.825 191.193 233.129 183.44C226.122 179.152 218.679 176.005 210.514 174.738C208.106 174.368 205.656 174.192 203.222 174.024C201.158 173.882 199.077 173.747 197.021 173.84C193.303 174.008 189.603 174.326 185.894 174.62C178.904 175.174 172.124 176.684 165.645 179.37C156.725 183.07 148.93 188.5 141.923 195.112C137.115 199.652 132.953 204.72 129.428 210.292C127.549 213.271 125.929 216.426 124.335 219.573C121.347 225.447 119.065 231.598 117.697 238.051C117.026 241.223 116.539 244.437 116.061 247.642C115.817 249.304 115.733 250.99 115.641 252.668C115.532 254.733 115.373 256.797 115.44 258.861C115.524 261.437 115.826 263.997 116.019 266.565C116.161 268.411 116.212 270.265 116.447 272.095C116.698 274.125 116.975 276.173 117.487 278.145C118.452 281.854 119.468 285.554 120.701 289.171C122.354 294.004 124.737 298.502 127.935 302.505C129.999 305.089 132.181 307.624 134.564 309.915C138.214 313.422 142.259 316.468 146.605 319.103C152.53 322.695 158.748 325.598 165.536 327.142C168.599 327.839 171.696 328.418 174.792 328.938C179.944 329.81 185.147 329.71 190.333 329.55C195.594 329.383 200.747 328.493 205.823 327.041C210.749 325.632 215.331 323.5 219.778 320.991C224.603 318.272 229.168 315.176 233.431 311.66C238.827 307.204 243.585 302.127 247.571 296.354C252.152 289.716 255.517 282.508 257.825 274.788C257.909 274.511 258.026 274.251 258.119 273.983C260.099 274.436 262.079 274.889 264.068 275.342C261.819 283.717 258.656 291.68 253.604 298.796C247.084 307.976 239.372 315.981 229.949 322.225C222.589 327.1 214.727 330.985 206.235 333.436C202.358 334.552 198.363 335.508 194.361 335.911C189.98 336.347 185.525 336.222 181.111 336.029C177.343 335.861 173.567 335.408 169.841 334.812C160.98 333.385 152.714 330.272 145.019 325.632C139.204 322.132 133.657 318.272 128.732 313.573C122.254 307.397 117.588 300.097 114.718 291.596C112.092 283.792 110.078 275.862 109.222 267.681C107.636 252.467 109.776 237.774 115.582 223.601C119.602 213.791 124.721 204.645 131.652 196.597C143.123 183.288 157.095 173.915 174.398 169.929C179.399 168.771 184.484 168.159 189.628 168.15C193.547 168.142 197.466 168.041 201.393 168.041C210.472 168.033 219.073 170.223 227.431 173.647C233.389 176.08 238.634 179.672 243.878 183.28C246.303 184.95 248.745 186.62 250.986 188.516C254.107 191.16 256.423 194.508 258.496 198.015C262.205 204.3 265.31 210.854 266.955 218.012C268.608 225.212 269.069 232.521 268.818 239.872C268.641 244.923 268.272 249.966 267.962 255.01C267.895 256.143 267.685 257.267 267.534 258.391C265.469 257.896 263.397 257.393 261.332 256.889Z" fill="#FDFEFE"/>
<path d="M222.531 247.869C222.724 245.183 223.093 242.498 223.068 239.813C223 233.914 221.599 228.283 219.098 222.929C217.999 220.58 216.875 218.264 215.171 216.283C212.369 213.028 208.735 211.299 204.59 210.418C198.833 209.193 193.01 208.74 187.161 209.075C181.119 209.419 175.203 210.561 169.824 213.472C158.84 219.413 152.32 228.636 150.448 240.971C148.72 252.383 152.697 261.975 160.493 270.165C165.687 275.627 172.023 278.959 179.525 279.865C186.808 280.746 193.882 279.764 200.713 277.079C207.275 274.494 212.78 270.576 216.556 264.492C218.687 265.205 220.81 265.91 222.942 266.623C221.54 269.25 219.568 271.406 217.387 273.387C214.349 276.148 211.093 278.606 207.552 280.696C202.828 283.49 197.801 285.496 192.372 286.301C189.485 286.729 186.515 287.048 183.611 286.88C178.493 286.595 173.483 285.63 168.725 283.54C165.15 281.971 161.81 280.024 158.773 277.608C154.854 274.494 151.565 270.794 148.963 266.489C146.932 263.124 145.355 259.541 144.726 255.681C144.256 252.845 144.23 249.916 144.23 247.021C144.23 241.726 145.07 236.523 146.714 231.497C148.46 226.152 151.179 221.327 155.039 217.19C158.504 213.464 162.389 210.225 167.122 208.312C170.789 206.835 174.624 205.719 178.442 204.67C183.158 203.377 188.008 202.941 192.884 203.243C196.844 203.478 200.772 204.015 204.648 204.938C207.997 205.727 211.328 206.541 214.424 208.068C219.669 210.644 223.286 214.748 225.644 220.068C227.087 223.332 227.968 226.739 228.522 230.238C228.824 232.135 228.824 234.073 228.958 235.995C229.084 237.916 229.319 239.846 229.302 241.76C229.269 244.319 229.034 246.87 228.891 249.429C226.751 248.884 224.637 248.372 222.531 247.869Z" fill="#FFFDFC"/>
<path d="M193.555 251.552C194.235 249.782 194.831 248.238 195.468 246.576C197.205 247.055 198.9 247.508 200.596 247.978C210.455 250.747 220.299 253.558 230.335 255.622C237.727 257.141 245.162 258.492 252.521 260.187C257.875 261.421 263.103 263.208 268.44 264.534C275.111 266.187 281.841 267.605 288.546 269.158C296.711 271.046 304.85 273.009 313.015 274.872C323.731 277.314 334.463 279.689 345.196 282.08C351.54 283.498 357.892 284.858 364.228 286.31C367.207 286.998 370.152 287.854 373.114 288.626C373.433 288.71 373.777 288.71 374.113 288.718C378.459 288.861 382.823 288.869 387.161 289.163C392.095 289.498 396.971 290.304 401.687 291.865C403.869 292.586 404.766 295.683 403.248 297.478C402.92 297.873 402.199 298.15 401.67 298.133C399.967 298.091 398.271 297.898 396.576 297.739C394.017 297.495 391.458 297.193 388.89 296.992C383.117 296.539 377.444 295.515 371.847 294.055C362.34 291.579 352.866 288.936 343.3 286.687C335.428 284.841 327.457 283.398 319.51 281.887C308.291 279.756 297.021 277.868 285.835 275.569C281.019 274.578 276.361 272.808 271.62 271.415C262.801 268.822 253.847 266.758 244.734 265.549C234.698 264.223 225.09 261.362 215.608 258.005C209.826 255.958 203.877 254.657 197.927 253.273C196.459 252.945 195.091 252.173 193.555 251.552Z" fill="#FCD08B"/>
<path d="M361.483 279.865C363.766 278.883 366.006 277.969 368.205 276.962C373.156 274.713 378.082 272.413 383.024 270.148C386.473 268.57 390.073 267.714 393.883 267.79C398.674 267.89 403.466 267.865 408.249 268.067C413.695 268.293 419.141 268.612 424.57 269.057C429.94 269.502 435.277 270.24 440.681 270.081C441.26 270.064 442.167 269.871 442.242 271.037C439.884 272.162 437.518 273.303 435.143 274.427C425.795 278.858 416.095 282.399 406.461 286.117C404.498 286.872 402.584 286.477 400.654 286.058C395.913 285.026 391.122 284.346 386.28 284.103C382.739 283.918 379.189 283.884 375.648 283.658C374.23 283.566 372.812 283.23 371.436 282.836C368.138 281.904 364.874 280.88 361.483 279.865Z" fill="#C0AF9B"/>
<path d="M357.12 295.515C360.871 296.623 364.387 297.747 367.962 298.687C373.03 300.021 378.191 300.936 383.419 301.414C387.413 301.775 391.424 301.976 395.402 302.463C398.104 302.79 400.822 303.294 403.415 304.099C404.909 304.569 406.302 305.643 407.51 306.717C414.232 312.675 420.878 318.717 426.819 325.472C426.903 325.564 426.962 325.682 427.138 325.942C424.495 325.497 422.027 325.078 419.552 324.65C415.012 323.878 410.473 323.131 405.941 322.334C399.765 321.251 393.589 320.186 387.43 319.011C382.815 318.13 378.233 317.081 373.643 316.107C372.518 315.872 371.637 315.31 370.941 314.362C366.502 308.312 362.046 302.287 357.59 296.253C357.447 296.069 357.338 295.859 357.12 295.515Z" fill="#C0AF9B"/>
</g>
<g clip-path="url(#clip2_16_29)">
<path d="M513.157 385.064H506.146V323.727H515.495L527.281 356.449C528.016 358.586 528.751 360.723 529.485 362.86C530.198 365.019 530.921 367.156 531.656 369.271H532.056C532.791 367.156 533.492 365.019 534.16 362.86C534.805 360.723 535.507 358.586 536.263 356.449L547.85 323.727H557.299V385.064H549.987V351.307C549.987 348.569 550.109 345.531 550.354 342.192C550.621 338.875 550.844 335.87 551.022 333.176H550.654L545.78 347.1L534.193 378.887H529.051L517.465 347.1L512.59 333.176H512.223C512.401 335.87 512.601 338.875 512.824 342.192C513.046 345.531 513.157 348.569 513.157 351.307V385.064ZM583.844 386.2C580.038 386.2 576.877 385.064 574.361 382.794C571.824 380.501 570.555 377.329 570.555 373.278C570.555 368.291 572.781 364.474 577.233 361.825C581.707 359.176 588.775 357.328 598.436 356.282C598.436 354.346 598.169 352.509 597.634 350.773C597.1 349.014 596.165 347.59 594.83 346.499C593.494 345.408 591.58 344.863 589.086 344.863C586.46 344.863 583.989 345.364 581.674 346.365C579.381 347.367 577.333 348.491 575.53 349.738L572.525 344.395C574.64 343.037 577.244 341.713 580.338 340.422C583.41 339.153 586.76 338.519 590.389 338.519C595.931 338.519 599.949 340.21 602.443 343.594C604.936 347 606.182 351.541 606.182 357.217V385.064H599.838L599.17 379.655H598.903C596.766 381.391 594.44 382.916 591.925 384.23C589.409 385.543 586.716 386.2 583.844 386.2ZM586.081 380.023C588.263 380.023 590.322 379.488 592.259 378.42C594.195 377.374 596.254 375.882 598.436 373.946V361.324C590.89 362.259 585.603 363.661 582.575 365.531C579.548 367.401 578.034 369.805 578.034 372.743C578.034 375.281 578.813 377.129 580.372 378.286C581.93 379.444 583.833 380.023 586.081 380.023ZM628.053 385.064H620.473V318.518H628.053V363.561H628.353L647.686 339.62H656.201L640.975 357.851L658.271 385.064H649.856L636.567 363.194L628.053 373.111V385.064ZM674.432 385.064H666.752V339.62H674.432V385.064ZM670.692 330.271C669.2 330.271 667.965 329.826 666.986 328.936C666.028 328.023 665.55 326.788 665.55 325.229C665.55 323.738 666.028 322.525 666.986 321.59C667.965 320.655 669.2 320.187 670.692 320.187C672.183 320.187 673.419 320.655 674.398 321.59C675.355 322.525 675.834 323.738 675.834 325.229C675.834 326.788 675.355 328.023 674.398 328.936C673.419 329.826 672.183 330.271 670.692 330.271ZM697.437 385.064H689.758V339.62H696.135L696.77 346.165H697.07C699.252 343.983 701.555 342.169 703.982 340.722C706.408 339.253 709.18 338.519 712.296 338.519C717.104 338.519 720.61 340.032 722.814 343.06C725.018 346.065 726.119 350.472 726.119 356.282V385.064H718.473V357.317C718.473 353.066 717.783 349.971 716.403 348.035C715.045 346.12 712.864 345.163 709.858 345.163C707.566 345.163 705.495 345.753 703.648 346.933C701.8 348.113 699.73 349.86 697.437 352.175V385.064ZM756.237 406C750.695 406 746.176 404.943 742.681 402.828C739.186 400.713 737.439 397.697 737.439 393.779C737.439 391.843 738.029 389.984 739.208 388.203C740.41 386.422 742.035 384.853 744.083 383.495V383.094C742.97 382.427 742.024 381.469 741.245 380.223C740.466 378.976 740.076 377.474 740.076 375.715C740.076 373.779 740.6 372.098 741.646 370.673C742.714 369.249 743.838 368.124 745.018 367.301V366.934C743.527 365.687 742.169 364.006 740.945 361.892C739.743 359.777 739.142 357.373 739.142 354.679C739.142 351.385 739.921 348.525 741.479 346.098C743.037 343.65 745.118 341.78 747.723 340.489C750.35 339.175 753.188 338.519 756.237 338.519C757.484 338.519 758.664 338.63 759.777 338.853C760.912 339.053 761.88 339.309 762.682 339.62H778.475V345.531H769.126C770.194 346.532 771.085 347.857 771.797 349.504C772.509 351.151 772.866 352.943 772.866 354.88C772.866 358.107 772.12 360.912 770.628 363.294C769.137 365.654 767.145 367.479 764.652 368.77C762.158 370.039 759.354 370.673 756.237 370.673C753.811 370.673 751.54 370.139 749.426 369.071C748.602 369.761 747.912 370.529 747.356 371.374C746.799 372.22 746.521 373.267 746.521 374.513C746.521 375.938 747.1 377.118 748.257 378.052C749.392 378.987 751.496 379.455 754.568 379.455H763.349C768.647 379.455 772.621 380.312 775.27 382.026C777.919 383.74 779.243 386.5 779.243 390.307C779.243 393.111 778.308 395.694 776.438 398.053C774.568 400.435 771.919 402.36 768.491 403.83C765.063 405.277 760.979 406 756.237 406ZM756.237 365.531C758.864 365.531 761.123 364.552 763.015 362.593C764.908 360.634 765.854 357.996 765.854 354.679C765.854 351.385 764.919 348.803 763.049 346.933C761.179 345.063 758.908 344.128 756.237 344.128C753.566 344.128 751.296 345.063 749.426 346.933C747.556 348.803 746.621 351.385 746.621 354.679C746.621 357.996 747.567 360.634 749.459 362.593C751.351 364.552 753.611 365.531 756.237 365.531ZM757.373 400.691C761.736 400.691 765.219 399.734 767.824 397.819C770.45 395.927 771.764 393.801 771.764 391.442C771.764 389.305 770.962 387.836 769.36 387.034C767.779 386.233 765.52 385.832 762.581 385.832H754.735C753.867 385.832 752.921 385.766 751.897 385.632C750.873 385.498 749.86 385.309 748.858 385.064C747.233 386.244 746.042 387.491 745.285 388.804C744.551 390.117 744.183 391.431 744.183 392.744C744.183 395.17 745.352 397.096 747.689 398.521C750.027 399.968 753.254 400.691 757.373 400.691ZM824.687 386.2C820.68 386.2 817.063 385.265 813.835 383.395C810.585 381.525 808.025 378.809 806.155 375.248C804.286 371.708 803.351 367.446 803.351 362.459C803.351 357.34 804.364 352.999 806.389 349.437C808.415 345.898 811.097 343.193 814.436 341.323C817.775 339.454 821.37 338.519 825.221 338.519C828.226 338.519 830.797 339.042 832.934 340.088C835.094 341.156 836.952 342.403 838.51 343.828L834.57 348.903C833.279 347.701 831.899 346.733 830.43 345.998C828.961 345.241 827.325 344.863 825.522 344.863C822.784 344.863 820.335 345.597 818.176 347.066C816.017 348.536 814.336 350.595 813.134 353.244C811.91 355.893 811.298 358.964 811.298 362.459C811.298 367.624 812.589 371.809 815.171 375.014C817.775 378.219 821.159 379.822 825.321 379.822C827.436 379.822 829.406 379.377 831.231 378.487C833.034 377.574 834.615 376.494 835.973 375.248L839.345 380.39C837.297 382.193 835.027 383.618 832.534 384.664C830.04 385.688 827.425 386.2 824.687 386.2ZM857.009 385.064H849.362V318.518H857.009V336.649L856.741 345.998C858.923 343.928 861.216 342.169 863.62 340.722C866.024 339.253 868.784 338.519 871.901 338.519C876.686 338.519 880.192 340.032 882.418 343.06C884.622 346.065 885.724 350.472 885.724 356.282V385.064H878.044V357.317C878.044 353.066 877.365 349.971 876.008 348.035C874.627 346.12 872.446 345.163 869.463 345.163C867.148 345.163 865.078 345.753 863.253 346.933C861.405 348.113 859.324 349.86 857.009 352.175V385.064ZM910.7 386.2C906.893 386.2 903.721 385.064 901.184 382.794C898.668 380.501 897.411 377.329 897.411 373.278C897.411 368.291 899.637 364.474 904.089 361.825C908.541 359.176 915.597 357.328 925.258 356.282C925.258 354.346 925.002 352.509 924.49 350.773C923.956 349.014 923.021 347.59 921.685 346.499C920.327 345.408 918.402 344.863 915.909 344.863C913.304 344.863 910.845 345.364 908.529 346.365C906.237 347.367 904.178 348.491 902.352 349.738L899.381 344.395C901.495 343.037 904.1 341.713 907.194 340.422C910.266 339.153 913.616 338.519 917.244 338.519C922.787 338.519 926.805 340.21 929.298 343.594C931.791 347 933.038 351.541 933.038 357.217V385.064H926.66L926.026 379.655H925.725C923.611 381.391 921.296 382.916 918.78 384.23C916.243 385.543 913.549 386.2 910.7 386.2ZM912.937 380.023C915.118 380.023 917.177 379.488 919.114 378.42C921.028 377.374 923.076 375.882 925.258 373.946V361.324C917.734 362.259 912.458 363.661 909.431 365.531C906.404 367.401 904.89 369.805 904.89 372.743C904.89 375.281 905.669 377.129 907.227 378.286C908.785 379.444 910.689 380.023 912.937 380.023ZM955.008 385.064H947.329V339.62H953.706L954.341 346.165H954.641C956.823 343.983 959.127 342.169 961.553 340.722C963.979 339.253 966.751 338.519 969.867 338.519C974.675 338.519 978.181 340.032 980.385 343.06C982.589 346.065 983.691 350.472 983.691 356.282V385.064H976.044V357.317C976.044 353.066 975.354 349.971 973.974 348.035C972.616 346.12 970.435 345.163 967.43 345.163C965.137 345.163 963.067 345.753 961.219 346.933C959.371 348.113 957.301 349.86 955.008 352.175V385.064ZM1013.81 406C1008.27 406 1003.75 404.943 1000.25 402.828C996.757 400.713 995.01 397.697 995.01 393.779C995.01 391.843 995.6 389.984 996.779 388.203C997.982 386.422 999.606 384.853 1001.65 383.495V383.094C1000.54 382.427 999.595 381.469 998.816 380.223C998.037 378.976 997.648 377.474 997.648 375.715C997.648 373.779 998.171 372.098 999.217 370.673C1000.29 369.249 1001.41 368.124 1002.59 367.301V366.934C1001.1 365.687 999.74 364.006 998.516 361.892C997.314 359.777 996.713 357.373 996.713 354.679C996.713 351.385 997.492 348.525 999.05 346.098C1000.61 343.65 1002.69 341.78 1005.29 340.489C1007.92 339.175 1010.76 338.519 1013.81 338.519C1015.05 338.519 1016.23 338.63 1017.35 338.853C1018.48 339.053 1019.45 339.309 1020.25 339.62H1036.05V345.531H1026.7C1027.77 346.532 1028.66 347.857 1029.37 349.504C1030.08 351.151 1030.44 352.943 1030.44 354.88C1030.44 358.107 1029.69 360.912 1028.2 363.294C1026.71 365.654 1024.72 367.479 1022.22 368.77C1019.73 370.039 1016.92 370.673 1013.81 370.673C1011.38 370.673 1009.11 370.139 1007 369.071C1006.17 369.761 1005.48 370.529 1004.93 371.374C1004.37 372.22 1004.09 373.267 1004.09 374.513C1004.09 375.938 1004.67 377.118 1005.83 378.052C1006.96 378.987 1009.07 379.455 1012.14 379.455H1020.92C1026.22 379.455 1030.19 380.312 1032.84 382.026C1035.49 383.74 1036.81 386.5 1036.81 390.307C1036.81 393.111 1035.88 395.694 1034.01 398.053C1032.14 400.435 1029.49 402.36 1026.06 403.83C1022.63 405.277 1018.55 406 1013.81 406ZM1013.81 365.531C1016.44 365.531 1018.69 364.552 1020.59 362.593C1022.48 360.634 1023.42 357.996 1023.42 354.679C1023.42 351.385 1022.49 348.803 1020.62 346.933C1018.75 345.063 1016.48 344.128 1013.81 344.128C1011.14 344.128 1008.87 345.063 1007 346.933C1005.13 348.803 1004.19 351.385 1004.19 354.679C1004.19 357.996 1005.14 360.634 1007.03 362.593C1008.92 364.552 1011.18 365.531 1013.81 365.531ZM1014.94 400.691C1019.31 400.691 1022.79 399.734 1025.39 397.819C1028.02 395.927 1029.33 393.801 1029.33 391.442C1029.33 389.305 1028.53 387.836 1026.93 387.034C1025.35 386.233 1023.09 385.832 1020.15 385.832H1012.31C1011.44 385.832 1010.49 385.766 1009.47 385.632C1008.44 385.498 1007.43 385.309 1006.43 385.064C1004.8 386.244 1003.61 387.491 1002.86 388.804C1002.12 390.117 1001.75 391.431 1001.75 392.744C1001.75 395.17 1002.92 397.096 1005.26 398.521C1007.6 399.968 1010.83 400.691 1014.94 400.691ZM1064.03 386.2C1059.98 386.2 1056.29 385.242 1052.97 383.328C1049.68 381.436 1047.06 378.709 1045.13 375.148C1043.19 371.608 1042.22 367.379 1042.22 362.459C1042.22 357.473 1043.2 353.199 1045.16 349.638C1047.14 346.076 1049.69 343.338 1052.81 341.424C1055.92 339.487 1059.2 338.519 1062.62 338.519C1068.41 338.519 1072.88 340.444 1076.01 344.295C1079.18 348.168 1080.76 353.344 1080.76 359.821C1080.76 360.645 1080.73 361.446 1080.69 362.226C1080.67 363.005 1080.59 363.672 1080.46 364.229H1049.8C1050.11 369.015 1051.63 372.844 1054.34 375.715C1057.06 378.587 1060.6 380.023 1064.96 380.023C1067.14 380.023 1069.15 379.7 1070.97 379.054C1072.82 378.386 1074.58 377.529 1076.25 376.483L1078.99 381.525C1077.05 382.772 1074.85 383.862 1072.37 384.797C1069.93 385.732 1067.14 386.2 1064.03 386.2ZM1049.7 358.72H1074.01C1074.01 354.09 1073.03 350.584 1071.07 348.202C1069.11 345.798 1066.35 344.596 1062.79 344.596C1059.61 344.596 1056.76 345.82 1054.24 348.269C1051.73 350.739 1050.21 354.223 1049.7 358.72ZM1124.96 386.2C1120.11 386.2 1116.73 384.797 1114.81 381.993C1112.92 379.188 1111.98 375.537 1111.98 371.041V345.898H1105.23V340.088L1112.34 339.62L1113.28 326.932H1119.72V339.62H1131.98V345.898H1119.72V371.141C1119.72 373.946 1120.24 376.116 1121.29 377.652C1122.32 379.165 1124.13 379.922 1126.73 379.922C1127.56 379.922 1128.44 379.789 1129.37 379.522C1130.31 379.232 1131.14 378.965 1131.88 378.72L1133.38 384.497C1132.13 384.942 1130.77 385.332 1129.3 385.665C1127.86 386.022 1126.41 386.2 1124.96 386.2ZM1159.92 386.2C1156.25 386.2 1152.81 385.265 1149.61 383.395C1146.4 381.525 1143.82 378.809 1141.86 375.248C1139.88 371.708 1138.89 367.446 1138.89 362.459C1138.89 357.34 1139.88 352.999 1141.86 349.437C1143.82 345.898 1146.4 343.193 1149.61 341.323C1152.81 339.454 1156.25 338.519 1159.92 338.519C1163.66 338.519 1167.12 339.454 1170.31 341.323C1173.49 343.193 1176.06 345.898 1178.02 349.437C1179.98 352.999 1180.96 357.34 1180.96 362.459C1180.96 367.446 1179.98 371.708 1178.02 375.248C1176.06 378.809 1173.49 381.525 1170.31 383.395C1167.12 385.265 1163.66 386.2 1159.92 386.2ZM1159.92 379.822C1163.86 379.822 1167.04 378.219 1169.44 375.014C1171.82 371.809 1173.01 367.624 1173.01 362.459C1173.01 357.206 1171.82 352.965 1169.44 349.738C1167.04 346.488 1163.86 344.863 1159.92 344.863C1156.07 344.863 1152.93 346.488 1150.51 349.738C1148.06 352.965 1146.83 357.206 1146.83 362.459C1146.83 367.624 1148.06 371.809 1150.51 375.014C1152.93 378.219 1156.07 379.822 1159.92 379.822ZM1208.27 406C1202.73 406 1198.21 404.943 1194.72 402.828C1191.22 400.713 1189.47 397.697 1189.47 393.779C1189.47 391.843 1190.06 389.984 1191.24 388.203C1192.45 386.422 1194.07 384.853 1196.12 383.495V383.094C1195.01 382.427 1194.06 381.469 1193.28 380.223C1192.5 378.976 1192.11 377.474 1192.11 375.715C1192.11 373.779 1192.63 372.098 1193.68 370.673C1194.75 369.249 1195.87 368.124 1197.05 367.301V366.934C1195.56 365.687 1194.2 364.006 1192.98 361.892C1191.78 359.777 1191.18 357.373 1191.18 354.679C1191.18 351.385 1191.96 348.525 1193.51 346.098C1195.07 343.65 1197.15 341.78 1199.76 340.489C1202.38 339.175 1205.22 338.519 1208.27 338.519C1209.52 338.519 1210.7 338.63 1211.81 338.853C1212.95 339.053 1213.92 339.309 1214.72 339.62H1230.51V345.531H1221.16C1222.23 346.532 1223.12 347.857 1223.83 349.504C1224.54 351.151 1224.9 352.943 1224.9 354.88C1224.9 358.107 1224.15 360.912 1222.66 363.294C1221.17 365.654 1219.18 367.479 1216.69 368.77C1214.19 370.039 1211.39 370.673 1208.27 370.673C1205.85 370.673 1203.58 370.139 1201.46 369.071C1200.64 369.761 1199.95 370.529 1199.39 371.374C1198.83 372.22 1198.56 373.267 1198.56 374.513C1198.56 375.938 1199.13 377.118 1200.29 378.052C1201.43 378.987 1203.53 379.455 1206.6 379.455H1215.38C1220.68 379.455 1224.66 380.312 1227.3 382.026C1229.95 383.74 1231.28 386.5 1231.28 390.307C1231.28 393.111 1230.34 395.694 1228.47 398.053C1226.6 400.435 1223.95 402.36 1220.53 403.83C1217.1 405.277 1213.01 406 1208.27 406ZM1208.27 365.531C1210.9 365.531 1213.16 364.552 1215.05 362.593C1216.94 360.634 1217.89 357.996 1217.89 354.679C1217.89 351.385 1216.95 348.803 1215.08 346.933C1213.21 345.063 1210.94 344.128 1208.27 344.128C1205.6 344.128 1203.33 345.063 1201.46 346.933C1199.59 348.803 1198.66 351.385 1198.66 354.679C1198.66 357.996 1199.6 360.634 1201.49 362.593C1203.39 364.552 1205.65 365.531 1208.27 365.531ZM1209.41 400.691C1213.77 400.691 1217.25 399.734 1219.86 397.819C1222.49 395.927 1223.8 393.801 1223.8 391.442C1223.8 389.305 1223 387.836 1221.39 387.034C1219.81 386.233 1217.55 385.832 1214.62 385.832H1206.77C1205.9 385.832 1204.96 385.766 1203.93 385.632C1202.91 385.498 1201.89 385.309 1200.89 385.064C1199.27 386.244 1198.08 387.491 1197.32 388.804C1196.59 390.117 1196.22 391.431 1196.22 392.744C1196.22 395.17 1197.39 397.096 1199.72 398.521C1202.06 399.968 1205.29 400.691 1209.41 400.691ZM1258.49 386.2C1254.44 386.2 1250.76 385.242 1247.44 383.328C1244.14 381.436 1241.53 378.709 1239.59 375.148C1237.66 371.608 1236.69 367.379 1236.69 362.459C1236.69 357.473 1237.67 353.199 1239.63 349.638C1241.61 346.076 1244.16 343.338 1247.27 341.424C1250.39 339.487 1253.66 338.519 1257.09 338.519C1262.88 338.519 1267.34 340.444 1270.48 344.295C1273.64 348.168 1275.22 353.344 1275.22 359.821C1275.22 360.645 1275.2 361.446 1275.15 362.226C1275.13 363.005 1275.05 363.672 1274.92 364.229H1244.27C1244.58 369.015 1246.09 372.844 1248.81 375.715C1251.52 378.587 1255.06 380.023 1259.43 380.023C1261.61 380.023 1263.61 379.7 1265.44 379.054C1267.28 378.386 1269.04 377.529 1270.71 376.483L1273.45 381.525C1271.51 382.772 1269.31 383.862 1266.84 384.797C1264.39 385.732 1261.61 386.2 1258.49 386.2ZM1244.17 358.72H1268.47C1268.47 354.09 1267.5 350.584 1265.54 348.202C1263.58 345.798 1260.82 344.596 1257.26 344.596C1254.07 344.596 1251.22 345.82 1248.71 348.269C1246.19 350.739 1244.68 354.223 1244.17 358.72ZM1300.73 386.2C1295.88 386.2 1292.49 384.797 1290.58 381.993C1288.69 379.188 1287.74 375.537 1287.74 371.041V345.898H1281V340.088L1288.11 339.62L1289.04 326.932H1295.49V339.62H1307.74V345.898H1295.49V371.141C1295.49 373.946 1296.01 376.116 1297.06 377.652C1298.08 379.165 1299.89 379.922 1302.5 379.922C1303.32 379.922 1304.2 379.789 1305.14 379.522C1306.07 379.232 1306.91 378.965 1307.64 378.72L1309.14 384.497C1307.9 384.942 1306.54 385.332 1305.07 385.665C1303.62 386.022 1302.18 386.2 1300.73 386.2ZM1325.71 385.064H1318.03V318.518H1325.71V336.649L1325.4 345.998C1327.59 343.928 1329.88 342.169 1332.28 340.722C1334.69 339.253 1337.45 338.519 1340.56 338.519C1345.37 338.519 1348.88 340.032 1351.08 343.06C1353.29 346.065 1354.39 350.472 1354.39 356.282V385.064H1346.74V357.317C1346.74 353.066 1346.05 349.971 1344.67 348.035C1343.31 346.12 1341.13 345.163 1338.13 345.163C1335.83 345.163 1333.76 345.753 1331.92 346.933C1330.07 348.113 1328 349.86 1325.71 352.175V385.064ZM1387.31 386.2C1383.26 386.2 1379.59 385.242 1376.29 383.328C1372.97 381.436 1370.35 378.709 1368.41 375.148C1366.5 371.608 1365.54 367.379 1365.54 362.459C1365.54 357.473 1366.52 353.199 1368.48 349.638C1370.44 346.076 1372.97 343.338 1376.09 341.424C1379.21 339.487 1382.48 338.519 1385.91 338.519C1391.7 338.519 1396.17 340.444 1399.33 344.295C1402.47 348.168 1404.04 353.344 1404.04 359.821C1404.04 360.645 1404.03 361.446 1404.01 362.226C1403.96 363.005 1403.88 363.672 1403.77 364.229H1373.09C1373.4 369.015 1374.91 372.844 1377.63 375.715C1380.34 378.587 1383.88 380.023 1388.24 380.023C1390.43 380.023 1392.44 379.7 1394.29 379.054C1396.11 378.386 1397.87 377.529 1399.56 376.483L1402.27 381.525C1400.33 382.772 1398.14 383.862 1395.69 384.797C1393.22 385.732 1390.43 386.2 1387.31 386.2ZM1373.02 358.72H1397.33C1397.33 354.09 1396.34 350.584 1394.36 348.202C1392.4 345.798 1389.65 344.596 1386.11 344.596C1382.92 344.596 1380.06 345.82 1377.53 348.269C1375.01 350.739 1373.51 354.223 1373.02 358.72ZM1422.94 385.064H1415.26V339.62H1421.64L1422.27 347.868H1422.57C1424.13 344.996 1426.02 342.715 1428.25 341.023C1430.49 339.353 1432.9 338.519 1435.46 338.519C1437.26 338.519 1438.89 338.83 1440.33 339.454L1438.83 346.165C1438.07 345.92 1437.38 345.742 1436.76 345.631C1436.14 345.497 1435.36 345.43 1434.42 345.43C1432.49 345.43 1430.48 346.209 1428.41 347.768C1426.32 349.326 1424.5 352.042 1422.94 355.915V385.064Z" fill="white"/>
</g>
<g clip-path="url(#clip3_16_29)">
<path d="M533.826 223.113C533.826 214.454 533.703 200.374 533.459 180.875C534.75 181.275 537.165 181.598 540.704 181.843C544.266 182.11 547.85 182.31 551.456 182.444C555.084 182.555 557.8 182.555 559.603 182.444C567.483 182.043 575.23 180.296 582.843 177.202C590.455 174.107 596.777 169.778 601.808 164.213C605.948 159.828 608.698 154.697 610.055 148.82C611.413 142.943 611.28 136.844 609.655 130.522C608.052 124.2 604.925 118.201 600.272 112.525C591.235 101.417 577.934 95.2846 560.371 94.1271C551.467 93.6151 539.135 94.6502 523.375 97.2324C522.996 97.3437 522.674 97.3993 522.406 97.3993C521.761 97.288 521.115 97.2324 520.47 97.2324C516.73 97.2324 513.502 98.49 510.787 101.005C508.071 103.521 506.657 106.648 506.546 110.388C506.413 112.191 506.312 115.931 506.246 121.607C506.179 127.306 506.146 134.084 506.146 141.942C506.146 149.822 506.179 158.058 506.246 166.65C506.312 175.243 506.379 183.468 506.446 191.326C506.513 199.206 506.58 206.017 506.646 211.76C506.691 217.503 506.713 221.288 506.713 223.113C506.713 226.853 508.071 230.014 510.787 232.596C513.502 235.423 516.697 236.781 520.37 236.669C524.065 236.536 527.237 235.245 529.886 232.796C532.513 230.325 533.826 227.098 533.826 223.113ZM558.434 155.331C556.119 155.442 553.726 155.442 551.256 155.331C548.807 155.198 545.902 154.997 542.541 154.73L533.459 153.762H533.258C533.258 141.897 533.325 131.635 533.459 122.976C543.787 121.418 552.179 120.839 558.635 121.24C568.318 121.752 575.218 124.523 579.337 129.554C582.052 132.915 583.51 136.054 583.711 138.97C583.911 141.864 583.165 144.279 581.474 146.216C579.403 148.664 576.242 150.768 571.991 152.526C567.739 154.263 563.22 155.198 558.434 155.331ZM627.953 231.227C630.802 234.076 634.03 235.434 637.636 235.3C641.264 235.167 644.403 233.842 647.052 231.327C649.678 228.812 650.992 225.55 650.992 221.544C650.88 206.696 650.758 195.21 650.624 187.085C650.224 179.472 650.291 173.595 650.825 169.455C659.217 165.448 669.345 161.386 681.21 157.268C685.217 155.843 687.765 153.584 688.856 150.49C689.969 147.373 689.969 144.234 688.856 141.074C687.765 137.913 685.795 135.464 682.946 133.728C680.119 131.991 676.702 131.824 672.695 133.227C662.367 136.855 654.62 140.083 649.456 142.91C648.432 139.17 646.785 136.566 644.514 135.097C642.266 133.605 639.784 132.86 637.068 132.86C633.328 132.86 630.134 134.184 627.485 136.833C624.836 139.482 623.512 143.322 623.512 148.353C623.512 159.972 623.578 172.95 623.712 187.285C623.445 188.688 623.445 190.168 623.712 191.726C623.712 199.094 623.768 209.167 623.879 221.944C623.879 225.55 625.237 228.645 627.953 231.227ZM731.195 236.669C741.523 238.717 750.361 238.45 757.706 235.868C763.783 233.687 769.081 229.947 773.6 224.649C778.119 219.351 781.469 213.73 783.651 207.787C785.854 201.977 787.279 195.911 787.924 189.589C789.082 183.535 788.982 177.079 787.624 170.223C786.266 163.389 783.751 157.101 780.078 151.358C776.405 145.615 771.663 141.318 765.854 138.469C761.713 136.399 753.577 134.396 741.445 132.459C737.839 130.789 734.222 130.667 730.594 132.092C730.082 132.336 729.314 132.592 728.29 132.86C725.708 133.639 724.35 134.028 724.216 134.028C719.564 135.431 715.757 137.423 712.797 140.005C707.744 144.279 703.637 149.321 700.476 155.131C697.315 160.941 695.122 167.14 693.898 173.729C692.674 180.296 692.451 186.807 693.23 193.262C694.521 203.724 698.394 213.029 704.85 221.176C711.172 229.301 719.953 234.466 731.195 236.669ZM736.203 210.325C726.787 208.388 721.434 201.677 720.143 190.19C719.363 184.38 719.942 178.76 721.879 173.328C723.815 167.897 726.598 163.634 730.226 160.54L732.163 159.772C732.274 159.772 733.432 159.449 735.636 158.804C739.375 159.716 742.77 160.328 745.82 160.64C748.847 160.974 751.652 161.72 754.234 162.877C756.549 164.035 758.285 166.227 759.443 169.455C760.622 172.683 761.246 176.389 761.313 180.574C761.357 184.781 760.901 188.988 759.944 193.195C758.964 197.38 757.539 201.02 755.67 204.114C753.8 207.208 751.507 209.278 748.791 210.325C745.964 211.349 741.768 211.349 736.203 210.325ZM819.678 235.1C823.819 235.234 827.302 233.041 830.13 228.522L832.467 230.058C840.859 234.466 850.542 236.024 861.516 234.733C870.042 233.82 877.332 231.238 883.387 226.986C889.464 222.712 894.116 217.225 897.344 210.525C902.887 198.905 903.788 186.44 900.048 173.128C896.442 158.793 889.475 147.752 879.146 140.005C873.203 135.486 866.747 132.715 859.78 131.691C852.679 130.667 844.999 131.635 836.741 134.596L834.003 135.765C834.003 132.915 834.003 128.33 834.003 122.008C833.891 115.686 833.836 111.49 833.836 109.42C833.702 105.035 832.244 101.74 829.462 99.5363C826.679 97.3548 823.518 96.2974 819.979 96.3642C816.417 96.4087 813.312 97.5663 810.663 99.8368C808.036 102.085 806.723 105.413 806.723 109.82C807.369 161.197 807.302 198.315 806.523 221.176C806.389 224.783 807.613 227.977 810.196 230.759C812.778 233.52 815.939 234.966 819.678 235.1ZM858.812 207.987C853.135 208.499 848.617 207.854 845.255 206.051C844.343 205.672 843.118 204.515 841.582 202.578L838.277 198.304C836.852 196.368 835.494 194.687 834.203 193.262C834.337 187.074 834.403 179.595 834.403 170.824L834.604 170.624C835.383 168.554 836.93 166.55 839.245 164.614C843.385 161.764 845.901 160.15 846.791 159.772C852.735 157.457 858.099 158.036 862.885 161.508C868.161 165.515 871.834 171.648 873.904 179.906C875.974 186.762 875.651 193.095 872.936 198.905C870.353 204.181 865.645 207.208 858.812 207.987ZM947.496 224.248C947.496 219.863 947.529 214.509 947.596 208.188C947.663 201.866 947.696 195.121 947.696 187.953C947.696 180.785 947.696 173.685 947.696 166.65C947.696 159.616 947.696 153.194 947.696 147.384C947.562 132.025 947.496 119.181 947.496 108.852C947.496 105.224 946.594 102.341 944.791 100.204C942.988 98.0894 940.729 96.6759 938.013 95.9635C935.297 95.2512 932.581 95.2512 929.866 95.9635C927.172 96.6759 924.913 98.0894 923.088 100.204C921.284 102.341 920.383 105.224 920.383 108.852L920.583 168.086C920.717 205.283 920.65 223.881 920.383 223.881C920.383 228.266 921.707 231.594 924.356 233.865C927.005 236.113 930.099 237.27 933.639 237.337C937.2 237.404 940.372 236.335 943.155 234.132C945.915 231.95 947.362 228.656 947.496 224.248ZM1017.01 237.037C1023.74 237.037 1030.36 235.946 1036.88 233.764C1043.4 231.561 1048.72 228.589 1052.84 224.849C1056.98 221.11 1059.05 217.17 1059.05 213.029C1059.05 210.069 1057.93 207.453 1055.68 205.183C1053.41 202.934 1050.59 201.81 1047.23 201.81C1044.27 201.81 1041.95 202.489 1040.25 203.847C1038.58 205.183 1036.78 206.819 1034.84 208.755C1033.04 210.447 1030.97 211.716 1028.63 212.562C1026.32 213.385 1023.22 213.864 1019.35 213.997C1010.83 214.265 1004.47 212.617 1000.29 209.056C996.078 205.516 993.585 200.575 992.806 194.231L999.584 194.431C1007.73 194.832 1015.36 195.032 1022.46 195.032C1029.94 195.032 1038.52 194.576 1048.2 193.663C1052.99 193.285 1056.79 191.86 1059.62 189.389C1062.47 186.94 1063.89 183.523 1063.89 179.138C1063.89 170.479 1062.09 162.632 1058.48 155.598C1054.86 148.564 1049.49 142.988 1042.39 138.87C1035.16 134.729 1026.51 132.659 1016.45 132.659C1006.63 132.659 997.848 135.052 990.101 139.838C982.355 144.602 976.423 151.057 972.304 159.204C968.164 167.463 966.094 177.202 966.094 188.421C966.094 197.347 968.131 205.483 972.204 212.829C976.256 220.197 982.155 226.074 989.901 230.459C997.648 234.844 1006.69 237.037 1017.01 237.037ZM993.207 174.497C994.119 167.774 996.635 163 1000.75 160.173C1004.89 157.323 1010.26 155.832 1016.85 155.698C1024.7 155.565 1030.16 157.179 1033.21 160.54C1036.24 163.901 1037.88 168.353 1038.15 173.896C1034.01 174.942 1027.49 175.532 1018.58 175.666C1009.28 175.911 1000.82 175.521 993.207 174.497ZM1165.37 223.113C1165.37 217.036 1165.5 211.449 1165.77 206.351C1166.01 201.254 1166.2 196.156 1166.33 191.059C1166.47 185.961 1166.21 180.24 1165.57 173.896C1165.7 173.006 1165.83 171.982 1165.97 170.824C1165.97 170.557 1165.97 170.323 1165.97 170.123C1165.97 169.945 1165.97 169.789 1165.97 169.655L1166.33 168.086C1166.33 167.841 1166.33 167.619 1166.33 167.418C1166.33 167.218 1166.33 167.062 1166.33 166.951C1166.6 165.905 1166.8 165.192 1166.94 164.814C1168.34 162.61 1170.56 160.896 1173.61 159.672C1176.64 158.448 1179.96 158.025 1183.56 158.403C1187.06 158.67 1189.96 159.616 1192.28 161.241C1194.62 162.844 1196.17 164.87 1196.95 167.318C1197.6 169.388 1198.11 172.104 1198.49 175.465C1198.87 178.827 1199.16 182.21 1199.36 185.616C1199.56 189.044 1199.66 191.86 1199.66 194.064C1199.52 198.961 1199.29 204.025 1198.96 209.256C1198.64 214.487 1198.49 218.783 1198.49 222.145C1198.36 226.263 1199.51 229.424 1201.96 231.627C1204.43 233.809 1207.37 234.966 1210.78 235.1C1214.2 235.234 1217.24 234.265 1219.89 232.195C1222.54 230.125 1223.93 227.031 1224.07 222.913C1224.07 220.197 1224.22 216.123 1224.53 210.692C1224.87 205.283 1225.09 199.74 1225.2 194.064C1225.2 191.348 1225.08 187.853 1224.83 183.579C1224.57 179.327 1224.14 175.009 1223.56 170.624C1222.99 166.239 1222.24 162.555 1221.33 159.572C1218.75 151.58 1214.17 145.325 1207.6 140.806C1201.02 136.288 1193.71 133.639 1185.7 132.86C1179.89 132.348 1174.01 132.926 1168.07 134.596C1162.15 136.265 1156.86 139.104 1152.21 143.11C1145.35 136.922 1136.96 133.372 1127.03 132.459C1118.64 131.68 1110.7 133.038 1103.19 136.532C1100.5 134.084 1097.34 132.86 1093.71 132.86C1089.97 132.993 1086.81 134.384 1084.23 137.033C1081.65 139.66 1080.35 142.854 1080.35 146.616C1080.73 184.436 1080.92 209.479 1080.92 221.744C1080.92 225.35 1081.84 228.222 1083.66 230.359C1085.46 232.496 1087.72 233.92 1090.44 234.633C1093.13 235.345 1095.84 235.345 1098.55 234.633C1101.27 233.92 1103.53 232.496 1105.33 230.359C1107.13 228.222 1108.04 225.35 1108.04 221.744C1108.04 208.967 1107.91 190.825 1107.67 167.318V166.55C1107.91 165.526 1108.1 164.814 1108.24 164.413C1109.66 162.232 1111.89 160.529 1114.91 159.305C1117.96 158.058 1121.29 157.635 1124.9 158.036C1128.39 158.281 1131.3 159.215 1133.61 160.84C1135.93 162.443 1137.47 164.48 1138.25 166.951C1138.9 168.999 1139.42 171.381 1139.82 174.096C1139.82 174.608 1139.88 175.131 1139.99 175.666C1140.39 178.76 1140.66 182.722 1140.79 187.553C1140.9 192.405 1140.9 196.445 1140.79 199.673L1140.39 210.892C1140.12 216.324 1139.93 220.13 1139.82 222.312C1139.69 226.452 1140.85 229.624 1143.3 231.828C1145.74 234.009 1148.68 235.167 1152.11 235.3C1155.54 235.434 1158.57 234.466 1161.19 232.395C1163.84 230.325 1165.23 227.231 1165.37 223.113ZM1299.19 237.037C1309.79 237.437 1319.44 235.345 1328.14 230.759C1336.87 226.174 1344.39 219.974 1350.71 212.161C1357.04 204.348 1361.88 195.856 1365.24 186.684C1368.6 177.402 1370.34 167.685 1370.45 157.535C1370.58 147.407 1368.52 137.634 1364.27 128.218C1359.89 118.78 1353.17 110.967 1344.14 104.779C1340.13 102.063 1336.06 99.9926 1331.92 98.568C1327.8 97.1433 1324.5 96.3086 1322.03 96.0637C1319.45 95.7966 1316.1 95.5962 1311.98 95.4627C1310.94 95.4627 1309.97 95.407 1309.08 95.2957C1308.16 95.1622 1306.67 95.0954 1304.6 95.0954H1300.56C1296.42 95.0954 1292.74 95.4849 1289.51 96.264C1281.39 98.5791 1274.1 102.419 1267.64 107.784C1261.18 113.126 1256.08 119.225 1252.31 126.081C1248.44 133.049 1245.54 140.339 1243.6 147.952C1241.66 155.565 1240.83 163.768 1241.09 172.56C1241.36 188.565 1246.2 202.89 1255.62 215.533C1260.14 221.744 1266.14 226.786 1273.62 230.659C1281.12 234.532 1289.64 236.658 1299.19 237.037ZM1300.36 210.525C1293.77 210.391 1288.12 208.611 1283.4 205.183C1278.7 201.754 1275.03 197.135 1272.38 191.326C1269.73 185.516 1268.34 178.938 1268.21 171.592C1267.94 159.327 1270.42 148.831 1275.65 140.105C1280.88 131.402 1288.09 125.369 1297.26 122.008C1299.06 121.362 1300.81 121.173 1302.5 121.44C1304.3 121.44 1305.53 121.496 1306.17 121.607C1306.82 121.874 1307.85 122.075 1309.28 122.208C1310.68 122.342 1312.62 122.464 1315.09 122.575C1317.54 122.709 1319.53 123.032 1321.06 123.544C1322.49 124.078 1323.75 124.634 1324.84 125.213C1325.95 125.792 1327.34 126.66 1329.01 127.818C1335.73 132.47 1340.15 139.181 1342.27 147.952C1344.4 156.745 1343.47 166.561 1339.46 177.402C1337.01 183.857 1333.75 189.6 1329.68 194.631C1325.63 199.662 1321.09 203.602 1316.06 206.451C1311 209.278 1305.77 210.636 1300.36 210.525ZM1414.42 260.877C1414.56 249.636 1414.69 239.107 1414.82 229.29C1418.3 231.627 1421.85 233.308 1425.47 234.332C1434.25 236.914 1444.18 235.434 1455.29 229.891C1461.75 226.663 1466.95 222.501 1470.89 217.403C1474.83 212.283 1477.6 206.663 1479.2 200.541C1480.82 194.398 1481.44 188.165 1481.04 181.843C1480.66 175.521 1479.37 169.522 1477.16 163.846C1472 150.668 1463.86 141.496 1452.75 136.332C1440.11 130.656 1426.82 131.691 1412.89 139.437C1410.17 135.186 1406.35 133.06 1401.43 133.06C1397.69 133.06 1394.5 134.384 1391.85 137.033C1389.2 139.66 1387.88 142.854 1387.88 146.616C1387.88 200.196 1387.69 238.15 1387.31 260.477C1387.31 264.862 1388.63 268.19 1391.28 270.46C1393.93 272.708 1397.03 273.866 1400.57 273.933C1404.13 273.999 1407.29 272.931 1410.05 270.727C1412.83 268.546 1414.29 265.262 1414.42 260.877ZM1433.22 209.356C1430.1 209.356 1426.93 208.288 1423.71 206.151C1420.48 204.014 1417.57 200.564 1414.99 195.8V173.529C1419.64 166.428 1424.11 162.031 1428.38 160.34C1432.63 158.67 1437.02 158.87 1441.54 160.941C1445.92 163.011 1449.54 167.207 1452.39 173.529C1454.7 180.63 1455.02 187.308 1453.36 193.563C1451.66 199.818 1448.3 204.236 1443.27 206.819C1438.51 209.156 1435.16 210.002 1433.22 209.356ZM1535.26 236.669C1538.36 236.669 1541.33 236.469 1544.18 236.068C1552.7 234.777 1560.03 231.939 1566.15 227.554C1572.29 223.169 1575.94 216.969 1577.1 208.956C1577.23 208.065 1577.3 206.774 1577.3 205.082C1577.3 199.918 1576.08 195.243 1573.63 191.059C1571.16 186.851 1567.79 183.334 1563.54 180.507C1560.83 178.571 1558.24 177.012 1555.8 175.833C1553.21 174.809 1550.89 173.84 1548.82 172.928C1545.72 171.525 1542.7 170.368 1539.74 169.455C1535.33 168.03 1531.97 166.806 1529.65 165.782C1527.72 164.87 1526.36 164.157 1525.58 163.645C1524.69 163.133 1524.24 162.488 1524.24 161.709C1524.24 160.551 1525.08 159.65 1526.75 159.004C1529.06 158.358 1531.83 158.036 1535.06 158.036C1538.56 158.036 1542.24 158.681 1546.11 159.972C1547.14 160.351 1548.75 161.319 1550.95 162.877L1555.6 166.35C1558.31 168.153 1561.03 169.054 1563.74 169.054C1567.22 169.054 1570.15 167.708 1572.56 165.014C1574.94 162.299 1576.13 159.26 1576.13 155.899C1576.13 152.293 1574.77 149.321 1572.06 146.984C1563.53 139.237 1553.59 134.785 1542.24 133.628C1539.66 133.36 1537.72 133.227 1536.43 133.227C1529.84 133.227 1523.45 134.462 1517.26 136.933C1507.83 140.806 1501.82 145.904 1499.23 152.226C1497.94 154.942 1497.3 157.846 1497.3 160.941C1497.3 164.68 1498.27 168.487 1500.2 172.36C1503.05 178.303 1509.18 183.334 1518.6 187.452C1520.67 188.499 1524.1 189.856 1528.88 191.526L1537.4 194.832C1543.48 197.28 1547.35 199.284 1549.02 200.842C1550.44 202.244 1551.16 203.724 1551.16 205.283V206.051C1550.89 208.9 1547.34 211.037 1540.5 212.462C1537.79 212.84 1535.53 213.029 1533.73 213.029C1531.28 213.029 1528.37 212.517 1525.01 211.493C1522.81 210.581 1521.32 209.345 1520.54 207.787L1519.4 205.483L1517.06 201.61C1514.48 197.737 1511 195.8 1506.61 195.8C1503.12 195.8 1499.98 197.058 1497.2 199.573C1494.44 202.088 1493.06 205.027 1493.06 208.388C1493.06 210.191 1493.64 212.194 1494.79 214.398L1496.53 217.47L1497.9 219.807C1500.08 223.414 1502.53 226.318 1505.24 228.522C1508.87 231.104 1513.36 233.108 1518.7 234.532C1524.06 235.957 1529.58 236.669 1535.26 236.669Z" fill="white"/>
</g>
</g>
<defs>
<clipPath id="clip0_16_29">
<rect width="1600" height="500" fill="white"/>
</clipPath>
<clipPath id="clip1_16_29">
<rect width="435.437" height="310.154" fill="white" transform="translate(23 95.5146)"/>
</clipPath>
<clipPath id="clip2_16_29">
<rect width="934.188" height="87.482" fill="white" transform="translate(506.146 318.518)"/>
</clipPath>
<clipPath id="clip3_16_29">
<rect width="1071.15" height="179.936" fill="white" transform="translate(506.146 94)"/>
</clipPath>
</defs>
</svg>
