<svg width="1555" height="312" viewBox="0 0 1555 312" fill="none" xmlns="http://www.w3.org/2000/svg">
<g clip-path="url(#clip0_16_31)">
<path d="M158.161 4.2572C158.495 4.20142 158.912 4.19797 159.482 4.24451C159.764 4.26752 160.055 4.30048 160.385 4.33826C160.703 4.37463 161.065 4.41692 161.426 4.44958L161.44 4.45056C171.49 5.30622 181.532 6.17898 191.575 7.05994H191.577C201.964 7.96391 212.403 8.94862 222.833 9.78845H222.836C228.612 10.2482 234.207 11.6753 240.114 13.0541V13.0531C247.658 14.8224 255.173 16.7853 262.643 18.891H262.644C269.61 20.8541 275.822 24.5907 281.821 29.0404L281.822 29.0414C287.743 33.4276 293.584 37.8244 299.129 42.5326L299.13 42.5336C304.007 46.6705 307.504 52.1185 310.324 58.142V58.1439C315.634 69.4704 320.098 81.1738 324.096 93.0775V93.0785C325.404 96.9793 326.081 101.087 326.347 105.288L326.395 106.13C326.78 113.867 327.048 121.616 327.249 129.371V129.373C327.39 134.737 327.432 140.095 327.34 145.449C327.209 152.665 326.379 159.861 325.152 167.041C324.397 171.448 323.561 175.815 322.733 180.24C315.331 178.557 307.957 176.903 300.591 175.166H300.59C297.756 174.498 294.985 173.729 292.129 172.953C294.563 162.615 296.043 152.129 296.515 141.51V141.509C296.957 131.482 296.585 121.426 294.922 111.426V111.425C293.437 102.505 290.626 93.971 285.878 86.0931C282.648 80.7288 279.371 75.7308 276.456 70.4144V70.4135C271.426 61.2467 264.177 54.4809 255.054 49.722C245.835 44.9117 236.166 41.375 226.304 38.5209L224.329 37.9594L222.606 37.4867C213.988 35.163 205.263 33.4167 196.631 31.6888H196.63C188.648 30.0924 180.653 29.8712 172.694 30.4564L171.102 30.5844C167.976 30.8554 165.367 31.2587 162.515 31.3656H162.513C156.384 31.5977 150.346 32.3622 144.368 33.6058C134.208 35.715 124.529 39.1523 115.112 43.141L115.109 43.142C110.843 44.9534 106.311 46.9205 102.267 49.9554C101.576 50.4717 100.742 50.8674 99.6265 51.3988C91.8586 55.0765 84.6276 59.6412 78.1392 65.4193L78.1382 65.4203C73.3373 69.7012 69.1749 74.5075 65.2632 79.3929V79.3939C56.1818 90.7456 48.9302 103.186 44.1421 117.018V117.02C38.671 132.859 36.5169 149.172 36.7212 165.79C36.8412 175.418 38.1277 184.876 40.4634 194.193V194.194C44.2479 209.272 50.1232 223.503 59.1323 236.403L59.1333 236.404C65.6732 245.755 73.4543 254.016 83.2212 260.316C91.4161 265.607 100.242 269.524 109.377 272.578C123.83 277.409 138.66 280.637 153.936 281.787C159.883 282.236 165.918 282.071 171.876 280.717L171.877 280.718C180.265 278.823 188.616 276.777 196.929 274.615H196.93C210.129 271.172 222.881 266.328 234.418 258.406C243.158 252.405 251.749 246.032 259.294 238.238C267.343 229.922 273.728 220.479 278.292 209.807C279.567 206.824 280.842 203.838 282.118 200.853C283.142 198.456 284.166 196.058 285.19 193.661C286.503 193.844 287.745 194.017 289.021 194.26V194.261C296.374 195.678 303.711 197.12 311.057 198.587L311.06 198.588C313.352 199.043 315.621 199.532 317.917 200.027C316.388 204.733 315.004 209.291 313.233 213.781L313.232 213.782C307.408 228.568 299.18 241.922 288.644 253.868C282.933 260.338 276.387 265.916 269.336 271.046C260.856 277.213 252.134 282.839 242.786 287.385C231.264 292.989 219.265 297.314 206.855 300.417L205.653 300.714C196.411 302.961 187.112 305.023 177.791 306.996L173.794 307.837C170.712 308.481 167.753 308.435 164.081 308.777H164.076C162.699 308.907 161.323 309.038 159.939 309.168H148.625C148.383 309.118 147.977 309.037 147.681 309.006L147.657 309.003L147.631 309.001L145.504 308.835C143.766 308.708 142.102 308.597 140.424 308.42L139.415 308.306C130.849 307.263 122.374 305.58 113.886 303.659H113.885C102.21 301.017 90.6855 297.738 79.1138 294.381C71.303 292.115 64.0182 288.813 57.3228 284.274C49.8802 279.228 43.3041 273.137 37.0864 266.519L35.8472 265.188C24.6979 253.109 16.3286 239.25 10.2798 223.934H10.2808C7.00762 215.632 4.81172 207.066 3.8833 198.239L3.79736 197.383C3.27411 191.91 3.13109 186.49 2.79736 180.826V180.821C2.75123 180.062 2.70483 179.302 2.65869 178.543C2.61413 177.81 2.56849 177.076 2.52393 176.343C2.50748 170.246 2.5083 164.148 2.5083 158.055C2.60691 157.233 2.80526 155.979 2.85791 154.892C3.39936 144.137 5.54265 133.623 8.46631 123.158V123.157C12.9027 107.256 19.3168 92.2839 28.3257 78.5238L29.2056 77.1957C35.3048 68.0962 42.5863 59.9482 50.5181 52.2572C57.6885 45.3114 65.1746 38.8234 73.3325 33.2035C84.1625 25.7434 95.6299 19.5329 107.886 14.9222C111.483 13.5703 115.271 13.0194 119.514 12.0785L119.513 12.0775C127.22 10.3751 134.926 8.70059 142.652 7.11853H142.654C147.794 6.0605 152.973 5.11827 158.159 4.25818L158.161 4.2572Z" fill="#292929" stroke="white" stroke-width="5"/>
<mask id="path-2-inside-1_16_31" fill="white">
<path d="M321.155 198.167C317.95 197.487 314.753 196.774 311.539 196.136C304.196 194.667 296.846 193.224 289.486 191.806C287.556 191.437 285.593 191.21 283.638 190.917C281.498 190.606 279.358 190.287 277.218 189.977C269.741 188.827 262.391 187.065 255.098 185.085C250.424 183.817 245.734 182.592 241.06 181.35C239.079 180.897 237.099 180.444 235.11 179.991C234.867 179.89 234.64 179.748 234.388 179.697C230.671 179.001 226.97 178.212 223.236 177.641C217.211 176.727 211.203 175.753 205.346 174.041C203.55 173.521 201.738 173.076 199.933 172.598C197.802 171.885 195.679 171.18 193.548 170.467C190.233 169.426 186.935 168.319 183.587 167.37C179.282 166.154 174.919 165.13 170.614 163.888C168.273 163.217 168.331 163.099 166.821 165.037C164.547 167.941 162.248 170.828 159.948 173.706C158.983 174.906 157.011 175.451 156.097 174.797C154.679 173.781 154.402 171.935 155.484 170.584C156.34 169.51 157.263 168.486 158.094 167.395C163.976 159.692 167.618 151.158 167.744 141.315C167.761 139.754 167.979 138.177 168.298 136.641C168.659 134.887 169.498 134.359 171.26 134.56C172.015 134.644 172.745 134.946 173.492 135.097C174.038 135.206 174.163 135.5 174.13 136.02C173.937 138.823 173.828 141.642 173.593 144.445C173.45 146.241 174.012 147.155 175.749 147.617C180.465 148.867 185.181 150.143 189.906 151.393C193.103 152.241 196.308 153.046 199.514 153.869C201.628 154.38 203.735 154.884 205.849 155.396C205.942 155.429 206.034 155.471 206.135 155.488C210.481 156.394 214.837 157.225 219.158 158.232C225.561 159.726 231.93 161.337 238.316 162.898C240.38 163.401 242.453 163.896 244.517 164.4C244.668 164.458 244.819 164.534 244.978 164.568C250.382 165.81 255.786 167.043 261.191 168.277C268.382 169.913 275.582 171.532 282.782 173.16C284.871 173.681 286.969 174.201 289.058 174.721C292.7 175.686 296.325 176.727 300.001 177.599C307.83 179.446 315.684 181.199 323.522 182.987C323.908 183.079 324.311 183.104 324.713 183.163C327.684 184.086 330.436 183.557 333.256 182.324C339.281 179.697 345.457 177.423 351.457 174.755C354.864 173.236 358.069 171.264 361.325 169.418C362.5 168.746 363.691 168.319 365.034 168.377C370.757 168.621 376.48 168.864 382.194 169.124C388.48 169.409 394.773 169.737 401.058 170.014C408.283 170.332 415.508 170.626 422.742 170.928C424.546 171.004 425.762 171.944 426.425 173.563C427.105 175.233 426.879 176.836 425.561 178.094C423.044 180.494 420.199 182.383 416.935 183.666C408.334 187.065 399.774 190.556 391.182 193.971C387.103 195.591 385.87 196.74 385.92 202.161C385.945 205.316 387.271 207.842 389.688 209.931C396.216 215.562 402.351 221.621 408.157 227.981C409.819 229.794 410.608 232.043 410.692 234.485C410.775 236.868 409.349 238.42 406.957 238.361C405.027 238.311 403.089 238.043 401.192 237.69C389.554 235.534 377.932 233.318 366.301 231.128C360.981 230.13 355.652 229.131 350.324 228.149C347.488 227.629 345.138 226.269 343.535 223.886C338.92 217.031 333.373 210.913 328.288 204.435C327.331 203.218 326.711 201.741 326.006 200.348C325.846 200.046 325.98 199.593 325.98 199.056C324.411 198.762 322.783 198.469 321.155 198.167ZM170.555 157.552C172.091 158.173 173.459 158.945 174.919 159.289C180.868 160.674 186.818 161.975 192.599 164.022C202.082 167.379 211.698 170.24 221.726 171.566C230.839 172.774 239.793 174.839 248.612 177.432C253.353 178.825 258.01 180.595 262.827 181.585C274.013 183.885 285.282 185.773 296.502 187.904C304.448 189.414 312.42 190.849 320.291 192.704C329.857 194.953 339.323 197.596 348.839 200.072C354.436 201.523 360.108 202.547 365.882 203.009C368.449 203.21 371 203.52 373.568 203.755C375.263 203.915 376.967 204.108 378.662 204.15C379.19 204.167 379.904 203.89 380.239 203.495C381.75 201.699 380.86 198.603 378.678 197.881C373.962 196.321 369.087 195.515 364.153 195.179C359.815 194.886 355.451 194.877 351.104 194.735C350.769 194.726 350.425 194.726 350.106 194.642C347.144 193.879 344.207 193.014 341.219 192.326C334.884 190.866 328.531 189.507 322.188 188.097C311.463 185.705 300.731 183.331 290.007 180.889C281.842 179.026 273.694 177.071 265.537 175.174C258.841 173.622 252.111 172.204 245.432 170.551C240.095 169.225 234.867 167.437 229.513 166.204C222.162 164.509 214.727 163.158 207.326 161.639C197.29 159.575 187.439 156.764 177.587 153.994C175.892 153.516 174.197 153.063 172.46 152.593C171.831 154.238 171.235 155.782 170.555 157.552ZM338.484 185.865C341.865 186.88 345.138 187.904 348.436 188.835C349.812 189.221 351.23 189.566 352.648 189.658C356.189 189.884 359.739 189.918 363.28 190.103C368.122 190.354 372.914 191.026 377.655 192.058C379.585 192.477 381.498 192.872 383.461 192.117C393.095 188.399 402.804 184.858 412.143 180.427C414.518 179.303 416.884 178.162 419.242 177.037C419.167 175.871 418.261 176.064 417.682 176.081C412.278 176.24 406.932 175.502 401.57 175.057C396.141 174.612 390.695 174.293 385.249 174.067C380.466 173.865 375.666 173.89 370.883 173.79C367.073 173.714 363.465 174.57 360.024 176.148C355.082 178.413 350.156 180.713 345.205 182.962C343.007 183.968 340.766 184.883 338.484 185.865ZM334.12 201.515C334.338 201.859 334.456 202.06 334.59 202.253C339.037 208.287 343.502 214.32 347.941 220.362C348.637 221.31 349.518 221.872 350.643 222.107C355.241 223.081 359.823 224.13 364.43 225.011C370.589 226.186 376.765 227.251 382.941 228.334C387.473 229.131 392.012 229.878 396.552 230.65C399.028 231.069 401.503 231.489 404.138 231.942C403.962 231.682 403.903 231.573 403.819 231.472C397.878 224.717 391.232 218.675 384.51 212.717C383.302 211.652 381.917 210.569 380.415 210.099C377.822 209.294 375.104 208.79 372.402 208.463C368.424 207.976 364.413 207.783 360.419 207.414C355.191 206.936 350.03 206.029 344.962 204.687C341.387 203.747 337.871 202.623 334.12 201.515Z"/>
</mask>
<path d="M321.155 198.167C317.95 197.487 314.753 196.774 311.539 196.136C304.196 194.667 296.846 193.224 289.486 191.806C287.556 191.437 285.593 191.21 283.638 190.917C281.498 190.606 279.358 190.287 277.218 189.977C269.741 188.827 262.391 187.065 255.098 185.085C250.424 183.817 245.734 182.592 241.06 181.35C239.079 180.897 237.099 180.444 235.11 179.991C234.867 179.89 234.64 179.748 234.388 179.697C230.671 179.001 226.97 178.212 223.236 177.641C217.211 176.727 211.203 175.753 205.346 174.041C203.55 173.521 201.738 173.076 199.933 172.598C197.802 171.885 195.679 171.18 193.548 170.467C190.233 169.426 186.935 168.319 183.587 167.37C179.282 166.154 174.919 165.13 170.614 163.888C168.273 163.217 168.331 163.099 166.821 165.037C164.547 167.941 162.248 170.828 159.948 173.706C158.983 174.906 157.011 175.451 156.097 174.797C154.679 173.781 154.402 171.935 155.484 170.584C156.34 169.51 157.263 168.486 158.094 167.395C163.976 159.692 167.618 151.158 167.744 141.315C167.761 139.754 167.979 138.177 168.298 136.641C168.659 134.887 169.498 134.359 171.26 134.56C172.015 134.644 172.745 134.946 173.492 135.097C174.038 135.206 174.163 135.5 174.13 136.02C173.937 138.823 173.828 141.642 173.593 144.445C173.45 146.241 174.012 147.155 175.749 147.617C180.465 148.867 185.181 150.143 189.906 151.393C193.103 152.241 196.308 153.046 199.514 153.869C201.628 154.38 203.735 154.884 205.849 155.396C205.942 155.429 206.034 155.471 206.135 155.488C210.481 156.394 214.837 157.225 219.158 158.232C225.561 159.726 231.93 161.337 238.316 162.898C240.38 163.401 242.453 163.896 244.517 164.4C244.668 164.458 244.819 164.534 244.978 164.568C250.382 165.81 255.786 167.043 261.191 168.277C268.382 169.913 275.582 171.532 282.782 173.16C284.871 173.681 286.969 174.201 289.058 174.721C292.7 175.686 296.325 176.727 300.001 177.599C307.83 179.446 315.684 181.199 323.522 182.987C323.908 183.079 324.311 183.104 324.713 183.163C327.684 184.086 330.436 183.557 333.256 182.324C339.281 179.697 345.457 177.423 351.457 174.755C354.864 173.236 358.069 171.264 361.325 169.418C362.5 168.746 363.691 168.319 365.034 168.377C370.757 168.621 376.48 168.864 382.194 169.124C388.48 169.409 394.773 169.737 401.058 170.014C408.283 170.332 415.508 170.626 422.742 170.928C424.546 171.004 425.762 171.944 426.425 173.563C427.105 175.233 426.879 176.836 425.561 178.094C423.044 180.494 420.199 182.383 416.935 183.666C408.334 187.065 399.774 190.556 391.182 193.971C387.103 195.591 385.87 196.74 385.92 202.161C385.945 205.316 387.271 207.842 389.688 209.931C396.216 215.562 402.351 221.621 408.157 227.981C409.819 229.794 410.608 232.043 410.692 234.485C410.775 236.868 409.349 238.42 406.957 238.361C405.027 238.311 403.089 238.043 401.192 237.69C389.554 235.534 377.932 233.318 366.301 231.128C360.981 230.13 355.652 229.131 350.324 228.149C347.488 227.629 345.138 226.269 343.535 223.886C338.92 217.031 333.373 210.913 328.288 204.435C327.331 203.218 326.711 201.741 326.006 200.348C325.846 200.046 325.98 199.593 325.98 199.056C324.411 198.762 322.783 198.469 321.155 198.167ZM170.555 157.552C172.091 158.173 173.459 158.945 174.919 159.289C180.868 160.674 186.818 161.975 192.599 164.022C202.082 167.379 211.698 170.24 221.726 171.566C230.839 172.774 239.793 174.839 248.612 177.432C253.353 178.825 258.01 180.595 262.827 181.585C274.013 183.885 285.282 185.773 296.502 187.904C304.448 189.414 312.42 190.849 320.291 192.704C329.857 194.953 339.323 197.596 348.839 200.072C354.436 201.523 360.108 202.547 365.882 203.009C368.449 203.21 371 203.52 373.568 203.755C375.263 203.915 376.967 204.108 378.662 204.15C379.19 204.167 379.904 203.89 380.239 203.495C381.75 201.699 380.86 198.603 378.678 197.881C373.962 196.321 369.087 195.515 364.153 195.179C359.815 194.886 355.451 194.877 351.104 194.735C350.769 194.726 350.425 194.726 350.106 194.642C347.144 193.879 344.207 193.014 341.219 192.326C334.884 190.866 328.531 189.507 322.188 188.097C311.463 185.705 300.731 183.331 290.007 180.889C281.842 179.026 273.694 177.071 265.537 175.174C258.841 173.622 252.111 172.204 245.432 170.551C240.095 169.225 234.867 167.437 229.513 166.204C222.162 164.509 214.727 163.158 207.326 161.639C197.29 159.575 187.439 156.764 177.587 153.994C175.892 153.516 174.197 153.063 172.46 152.593C171.831 154.238 171.235 155.782 170.555 157.552ZM338.484 185.865C341.865 186.88 345.138 187.904 348.436 188.835C349.812 189.221 351.23 189.566 352.648 189.658C356.189 189.884 359.739 189.918 363.28 190.103C368.122 190.354 372.914 191.026 377.655 192.058C379.585 192.477 381.498 192.872 383.461 192.117C393.095 188.399 402.804 184.858 412.143 180.427C414.518 179.303 416.884 178.162 419.242 177.037C419.167 175.871 418.261 176.064 417.682 176.081C412.278 176.24 406.932 175.502 401.57 175.057C396.141 174.612 390.695 174.293 385.249 174.067C380.466 173.865 375.666 173.89 370.883 173.79C367.073 173.714 363.465 174.57 360.024 176.148C355.082 178.413 350.156 180.713 345.205 182.962C343.007 183.968 340.766 184.883 338.484 185.865ZM334.12 201.515C334.338 201.859 334.456 202.06 334.59 202.253C339.037 208.287 343.502 214.32 347.941 220.362C348.637 221.31 349.518 221.872 350.643 222.107C355.241 223.081 359.823 224.13 364.43 225.011C370.589 226.186 376.765 227.251 382.941 228.334C387.473 229.131 392.012 229.878 396.552 230.65C399.028 231.069 401.503 231.489 404.138 231.942C403.962 231.682 403.903 231.573 403.819 231.472C397.878 224.717 391.232 218.675 384.51 212.717C383.302 211.652 381.917 210.569 380.415 210.099C377.822 209.294 375.104 208.79 372.402 208.463C368.424 207.976 364.413 207.783 360.419 207.414C355.191 206.936 350.03 206.029 344.962 204.687C341.387 203.747 337.871 202.623 334.12 201.515Z" fill="#292929" stroke="white" stroke-width="10" mask="url(#path-2-inside-1_16_31)"/>
<path d="M396.475 196.879C396.872 196.573 397.358 196.445 398.131 196.532C402.952 197.078 407.818 197.416 412.625 197.867C415.873 198.171 419.089 198.386 422.251 198.935V198.936C422.715 199.018 423.189 199.267 423.691 199.621C424.19 199.973 424.652 200.379 425.153 200.782C425.154 200.784 425.155 200.787 425.156 200.79C425.167 200.827 425.178 200.893 425.179 200.993C425.181 201.194 425.141 201.464 425.058 201.758C424.976 202.048 424.859 202.34 424.724 202.583C424.584 202.835 424.445 202.996 424.339 203.07C424.085 203.244 423.794 203.383 423.504 203.503C423.3 203.587 423.046 203.684 422.852 203.765C416.47 203.124 410.493 202.533 404.516 201.916H404.517C402.198 201.673 399.877 201.388 397.552 201.102H397.551C397.274 201.066 397 200.988 396.761 200.872L396.543 200.758C396.048 200.478 395.654 200.112 395.413 199.747C395.13 199.318 395.108 198.979 395.208 198.765L395.209 198.763C395.661 197.789 396.048 197.207 396.475 196.879Z" fill="white" stroke="white"/>
<path d="M407.726 209.455V209.456C413.268 209.96 418.792 210.436 424.331 210.948V210.949C426.829 211.184 429.322 211.435 431.796 211.761V211.762C432.936 211.914 433.85 212.621 434.655 213.562L434.657 213.565C434.671 213.582 434.723 213.673 434.735 213.897C434.746 214.106 434.718 214.367 434.65 214.643C434.526 215.149 434.298 215.594 434.059 215.835L433.956 215.925L433.952 215.928C433.716 216.107 433.434 216.252 433.154 216.376C433.015 216.437 432.881 216.491 432.755 216.542C432.686 216.57 432.615 216.6 432.548 216.629C428.76 216.268 425.219 215.946 421.74 215.607L418.236 215.258C414.549 214.881 410.862 214.428 407.167 213.991H407.166C406.916 213.963 406.665 213.899 406.449 213.805C405.877 213.546 405.395 213.141 405.087 212.716C404.769 212.275 404.693 211.896 404.755 211.663L404.756 211.659C405.127 210.221 406.39 209.336 407.726 209.455Z" fill="white" stroke="white"/>
<path d="M277.226 189.968C279.366 190.279 281.506 190.598 283.646 190.908C281.095 196.874 278.544 202.849 275.993 208.815C271.554 219.196 265.344 228.384 257.498 236.49C250.139 244.101 241.706 250.361 233.004 256.336C221.785 264.039 209.34 268.789 196.3 272.187C188.009 274.344 179.685 276.383 171.327 278.271C165.68 279.546 159.898 279.723 154.125 279.286C139.079 278.153 124.453 274.973 110.171 270.198C101.184 267.194 92.5572 263.359 84.577 258.207C75.1366 252.115 67.5844 244.118 61.1818 234.963C52.3708 222.367 46.6143 208.421 42.8885 193.577C40.5977 184.447 39.3306 175.174 39.2215 165.751C39.0201 149.371 41.1431 133.352 46.5052 117.828C51.1876 104.292 58.2867 92.0995 67.2152 80.9474C71.092 76.0972 75.1534 71.4148 79.8023 67.2778C86.0874 61.6808 93.111 57.2417 100.697 53.6502C101.754 53.1467 102.837 52.6432 103.768 51.9468C107.536 49.1272 111.79 47.256 116.087 45.435C125.418 41.4827 134.934 38.1094 144.877 36.0451C150.726 34.8283 156.625 34.0815 162.608 33.8549C165.52 33.7458 168.415 33.3179 171.319 33.0661C179.635 32.3445 187.917 32.4871 196.14 34.1318C205.371 35.9695 214.593 37.824 223.656 40.3582C234.095 43.2784 244.265 46.8951 253.898 51.93C262.617 56.4865 269.49 62.9059 274.264 71.6078C277.21 76.9783 280.575 82.1222 283.738 87.3752C288.295 94.9358 291.022 103.159 292.457 111.828C294.085 121.62 294.454 131.497 294.018 141.391C293.539 152.157 292.012 162.789 289.486 173.269C289.369 173.756 289.209 174.234 289.075 174.713C286.986 174.192 284.888 173.672 282.798 173.152C283.512 169.342 284.409 165.549 284.888 161.706C285.685 155.236 286.423 148.741 286.776 142.238C287.036 137.472 286.709 132.664 286.499 127.88C286.222 121.52 285.366 115.218 284.049 108.991C282.572 102.01 280.398 95.2715 276.664 89.129C273.811 84.4298 270.824 79.8146 268.029 75.0902C263.775 67.882 257.935 62.3605 250.567 58.4585C242.662 54.2712 234.313 51.1915 225.762 48.6322C216.582 45.8882 207.225 43.891 197.844 41.9946C192.557 40.9289 187.254 39.8883 181.833 39.989C176.849 40.0813 171.864 40.375 166.888 40.7275C162.315 41.0463 157.741 41.3988 153.202 42.003C147.798 42.7246 142.452 43.8323 137.233 45.4854C132.005 47.1469 126.735 48.6825 121.507 50.3692C118.621 51.3006 115.625 52.123 112.973 53.5495C107.578 56.4529 102.358 59.6752 97.1221 62.8723C85.0133 70.2735 74.7255 79.6551 66.5606 91.294C60.2168 100.331 55.4924 110.166 52.0855 120.655C49.7779 127.763 47.7555 134.946 46.6479 142.339C45.9011 147.298 45.4983 152.308 45.0535 157.301C44.6004 162.361 44.9276 167.421 45.5822 172.43C46.178 176.936 47.0591 181.409 47.9318 185.865C49.2408 192.57 50.7597 199.224 53.168 205.635C58.186 219.003 65.4026 231.027 75.1366 241.483C83.6287 250.596 93.7823 257.2 105.614 261.236C121.121 266.523 136.646 271.709 153.151 272.909C157.641 273.236 162.155 273.261 166.586 272.506C172.091 271.566 177.579 270.475 183 269.158C190.115 267.429 197.257 265.692 204.23 263.477C216.078 259.701 226.845 253.726 236.797 246.291C241.857 242.515 246.598 238.378 251.154 234.023C255.879 229.509 260.267 224.742 263.532 219.044C268.902 209.73 273.14 199.887 277.226 189.968Z" fill="#292929"/>
<path d="M277.226 189.968C273.148 199.887 268.902 209.722 263.548 219.036C260.276 224.734 255.887 229.5 251.171 234.015C246.606 238.378 241.865 242.515 236.814 246.283C226.853 253.709 216.095 259.692 204.247 263.468C197.273 265.692 190.141 267.429 183.016 269.149C177.595 270.467 172.108 271.558 166.603 272.498C162.172 273.261 157.649 273.228 153.168 272.9C136.662 271.709 121.138 266.523 105.631 261.228C93.7991 257.192 83.6455 250.596 75.1534 241.475C65.4194 231.019 58.1944 218.994 53.1848 205.627C50.7764 199.207 49.266 192.553 47.9485 185.857C47.0758 181.392 46.1863 176.928 45.5989 172.422C44.936 167.412 44.6171 162.344 45.0703 157.292C45.515 152.299 45.9178 147.29 46.6646 142.33C47.7723 134.938 49.7946 127.755 52.1023 120.647C55.5092 110.158 60.2419 100.323 66.5774 91.2856C74.7422 79.6467 85.0301 70.2651 97.1388 62.8639C102.367 59.6668 107.595 56.4445 112.99 53.5411C115.642 52.1146 118.629 51.2922 121.524 50.3608C126.744 48.6741 132.013 47.1301 137.25 45.477C142.469 43.8239 147.814 42.7162 153.218 41.9946C157.758 41.382 162.332 41.0379 166.905 40.7191C171.881 40.375 176.865 40.0729 181.85 39.9806C187.262 39.8799 192.566 40.9121 197.861 41.9862C207.242 43.8826 216.599 45.8798 225.779 48.6238C234.33 51.1831 242.687 54.2628 250.584 58.4501C257.951 62.3521 263.783 67.8736 268.046 75.0818C270.841 79.8145 273.828 84.4298 276.681 89.1206C280.415 95.2631 282.58 102.001 284.065 108.983C285.383 115.218 286.239 121.511 286.516 127.872C286.725 132.655 287.053 137.463 286.793 142.23C286.44 148.733 285.702 155.228 284.905 161.698C284.435 165.541 283.528 169.325 282.815 173.144C275.615 171.516 268.424 169.888 261.224 168.251C255.82 167.026 250.416 165.784 245.012 164.542C244.852 164.509 244.701 164.433 244.55 164.375C244.693 163.25 244.903 162.126 244.978 160.993C245.297 155.95 245.666 150.906 245.834 145.855C246.086 138.504 245.616 131.195 243.971 123.995C242.327 116.829 239.23 110.284 235.513 103.999C233.44 100.491 231.124 97.1428 228.003 94.4995C225.762 92.603 223.32 90.9331 220.895 89.2632C215.65 85.6549 210.406 82.0634 204.448 79.6299C196.09 76.2062 187.489 74.0077 178.409 74.0245C174.491 74.0329 170.572 74.1252 166.645 74.1336C161.501 74.1504 156.416 74.7629 151.414 75.9126C134.111 79.8985 120.14 89.2716 108.669 102.58C101.737 110.628 96.6102 119.774 92.5991 129.584C86.8007 143.757 84.6525 158.442 86.2384 173.664C87.0944 181.854 89.0999 189.784 91.7348 197.579C94.6046 206.08 99.2703 213.38 105.748 219.556C110.674 224.255 116.221 228.116 122.036 231.615C129.731 236.247 137.997 239.368 146.858 240.795C150.584 241.391 154.36 241.852 158.127 242.012C162.541 242.205 166.997 242.331 171.377 241.894C175.38 241.5 179.366 240.535 183.251 239.419C191.743 236.968 199.606 233.092 206.965 228.208C216.389 221.956 224.101 213.959 230.621 204.779C235.672 197.663 238.836 189.7 241.085 181.325C245.767 182.567 250.449 183.792 255.124 185.059C262.399 187.056 269.741 188.819 277.226 189.968Z" fill="#292929"/>
<path d="M238.332 162.889C231.946 161.329 225.577 159.709 219.175 158.224C214.853 157.217 210.49 156.394 206.151 155.48C206.051 155.463 205.958 155.421 205.866 155.387C206.017 152.828 206.252 150.277 206.277 147.718C206.302 145.796 206.067 143.874 205.933 141.953C205.807 140.031 205.799 138.093 205.497 136.196C204.943 132.705 204.062 129.29 202.619 126.026C200.269 120.706 196.644 116.611 191.399 114.026C188.303 112.499 184.971 111.693 181.623 110.896C177.746 109.982 173.819 109.445 169.859 109.201C164.975 108.908 160.125 109.335 155.417 110.628C151.599 111.677 147.764 112.793 144.097 114.27C139.364 116.183 135.479 119.422 132.013 123.148C128.153 127.285 125.435 132.11 123.689 137.455C122.044 142.49 121.205 147.684 121.205 152.979C121.205 155.866 121.23 158.803 121.7 161.639C122.338 165.499 123.916 169.074 125.938 172.447C128.531 176.752 131.829 180.461 135.748 183.566C138.785 185.974 142.125 187.929 145.7 189.498C150.458 191.588 155.476 192.553 160.586 192.838C163.489 192.998 166.452 192.687 169.347 192.259C174.776 191.454 179.802 189.44 184.527 186.654C188.068 184.564 191.324 182.106 194.361 179.345C196.543 177.364 198.515 175.208 199.916 172.581C201.721 173.06 203.542 173.496 205.329 174.025C211.195 175.737 217.194 176.71 223.219 177.625C226.954 178.195 230.654 178.976 234.372 179.68C234.623 179.731 234.858 179.873 235.093 179.974C234.992 180.243 234.875 180.503 234.799 180.78C232.492 188.5 229.127 195.708 224.545 202.346C220.559 208.119 215.801 213.196 210.406 217.652C206.143 221.168 201.586 224.272 196.753 226.983C192.306 229.483 187.724 231.615 182.798 233.033C177.73 234.485 172.569 235.374 167.308 235.542C162.122 235.71 156.919 235.802 151.767 234.929C148.67 234.409 145.574 233.83 142.511 233.134C135.731 231.581 129.504 228.678 123.58 225.095C119.233 222.46 115.189 219.414 111.538 215.906C109.155 213.615 106.973 211.089 104.909 208.497C101.72 204.494 99.3289 199.996 97.6758 195.163C96.4423 191.538 95.4269 187.837 94.4619 184.136C93.95 182.164 93.6731 180.117 93.4214 178.086C93.1864 176.257 93.1361 174.402 92.9934 172.556C92.792 169.988 92.4983 167.421 92.4144 164.853C92.3473 162.797 92.5067 160.724 92.6158 158.66C92.7081 156.982 92.7836 155.295 93.0354 153.634C93.5137 150.428 94.0004 147.214 94.6717 144.042C96.0311 137.589 98.3219 131.438 101.309 125.564C102.912 122.418 104.523 119.262 106.403 116.284C109.919 110.712 114.089 105.643 118.898 101.104C125.904 94.4911 133.7 89.0619 142.62 85.3613C149.098 82.676 155.878 81.1656 162.869 80.6118C166.578 80.3181 170.286 79.9992 173.995 79.8314C176.06 79.739 178.132 79.8733 180.197 80.016C182.63 80.1838 185.081 80.36 187.489 80.7292C195.645 81.9879 203.088 85.1431 210.104 89.4311C222.8 97.1847 231.863 107.817 236.184 122.216C237.829 127.687 238.718 133.293 238.92 138.999C239.046 142.792 239.205 146.585 239.096 150.378C239.004 154.557 238.601 158.727 238.332 162.889Z" fill="#292929"/>
<path d="M199.53 153.869C196.325 153.046 193.119 152.232 189.922 151.393C185.198 150.151 180.49 148.876 175.766 147.617C174.029 147.155 173.467 146.241 173.609 144.445C173.836 141.642 173.953 138.831 174.146 136.02C174.18 135.5 174.054 135.206 173.509 135.097C172.762 134.938 172.032 134.644 171.277 134.56C169.514 134.359 168.675 134.887 168.314 136.641C167.996 138.177 167.777 139.754 167.761 141.315C167.635 151.167 163.993 159.692 158.11 167.396C157.28 168.486 156.357 169.51 155.501 170.584C154.418 171.944 154.695 173.79 156.113 174.797C157.028 175.451 159 174.906 159.965 173.706C162.264 170.828 164.563 167.941 166.837 165.038C168.356 163.099 168.298 163.217 170.63 163.888C174.927 165.13 179.29 166.154 183.603 167.37C186.943 168.319 190.241 169.426 193.564 170.467C189.78 176.551 184.283 180.469 177.721 183.054C170.891 185.747 163.808 186.721 156.533 185.84C149.031 184.934 142.695 181.602 137.501 176.139C129.706 167.949 125.728 158.358 127.457 146.946C129.328 134.619 135.848 125.397 146.832 119.447C152.211 116.535 158.136 115.402 164.169 115.05C170.018 114.714 175.841 115.168 181.598 116.393C185.752 117.274 189.377 119.002 192.179 122.258C193.883 124.239 195.016 126.563 196.107 128.904C198.607 134.258 200 139.889 200.076 145.788C200.093 148.49 199.715 151.175 199.53 153.869Z" fill="#FCD08B"/>
<path d="M238.332 162.889C238.609 158.719 239.004 154.557 239.121 150.386C239.222 146.602 239.071 142.8 238.945 139.007C238.752 133.301 237.854 127.696 236.209 122.225C231.888 107.817 222.825 97.1931 210.129 89.4395C203.122 85.1515 195.679 82.0047 187.514 80.7376C185.106 80.3684 182.656 80.1922 180.222 80.0243C178.158 79.8817 176.077 79.7474 174.021 79.8397C170.303 80.0076 166.603 80.3264 162.894 80.6201C155.904 81.174 149.124 82.6844 142.645 85.3697C133.725 89.0703 125.93 94.4995 118.923 101.112C114.115 105.652 109.953 110.72 106.428 116.292C104.549 119.271 102.929 122.426 101.335 125.573C98.3473 131.447 96.0648 137.598 94.697 144.051C94.0257 147.223 93.539 150.436 93.0607 153.642C92.8174 155.303 92.7335 156.99 92.6412 158.668C92.5321 160.733 92.3726 162.797 92.4398 164.861C92.5237 167.437 92.8258 169.997 93.0188 172.565C93.1614 174.411 93.2118 176.265 93.4467 178.094C93.6985 180.125 93.9754 182.173 94.4873 184.145C95.4523 187.854 96.4676 191.554 97.7012 195.171C99.3543 200.004 101.737 204.502 104.935 208.505C106.999 211.089 109.181 213.624 111.564 215.914C115.214 219.422 119.259 222.468 123.605 225.103C129.53 228.695 135.748 231.598 142.536 233.142C145.599 233.838 148.696 234.417 151.792 234.938C156.944 235.81 162.147 235.71 167.333 235.55C172.594 235.382 177.747 234.493 182.823 233.041C187.749 231.632 192.331 229.5 196.778 226.991C201.603 224.272 206.168 221.176 210.431 217.66C215.827 213.204 220.585 208.127 224.571 202.354C229.152 195.716 232.517 188.508 234.825 180.788C234.909 180.511 235.026 180.251 235.119 179.983C237.099 180.436 239.079 180.889 241.068 181.342C238.819 189.717 235.656 197.68 230.604 204.796C224.084 213.976 216.372 221.981 206.949 228.225C199.589 233.1 191.727 236.985 183.235 239.436C179.358 240.552 175.363 241.508 171.361 241.911C166.98 242.347 162.525 242.221 158.111 242.028C154.343 241.861 150.567 241.408 146.841 240.812C137.98 239.385 129.714 236.272 122.019 231.632C116.204 228.132 110.657 224.272 105.732 219.573C99.2536 213.397 94.588 206.097 91.7181 197.596C89.0916 189.792 87.0777 181.862 86.2217 173.681C84.6358 158.467 86.7756 143.774 92.5824 129.601C96.6019 119.791 101.721 110.645 108.652 102.597C120.123 89.2884 134.095 79.9153 151.398 75.9293C156.399 74.7713 161.484 74.1588 166.628 74.1504C170.547 74.142 174.466 74.0413 178.393 74.0413C187.472 74.0329 196.073 76.223 204.431 79.6467C210.389 82.0802 215.634 85.6717 220.878 89.28C223.303 90.9499 225.745 92.6198 227.986 94.5163C231.107 97.1596 233.423 100.508 235.496 104.015C239.205 110.3 242.31 116.854 243.955 124.012C245.608 131.212 246.069 138.521 245.818 145.872C245.641 150.923 245.272 155.966 244.962 161.01C244.895 162.142 244.685 163.267 244.534 164.391C242.469 163.896 240.397 163.393 238.332 162.889Z" fill="#FDFEFE"/>
<path d="M199.531 153.869C199.724 151.183 200.093 148.498 200.068 145.813C200 139.914 198.599 134.283 196.098 128.929C194.999 126.58 193.875 124.264 192.171 122.283C189.369 119.028 185.735 117.299 181.59 116.418C175.833 115.193 170.01 114.74 164.161 115.075C158.119 115.419 152.203 116.56 146.824 119.472C135.84 125.413 129.32 134.636 127.448 146.971C125.72 158.383 129.697 167.975 137.493 176.165C142.687 181.627 149.023 184.959 156.525 185.865C163.808 186.746 170.882 185.764 177.713 183.079C184.275 180.494 189.78 176.576 193.556 170.492C195.687 171.205 197.81 171.91 199.942 172.623C198.54 175.25 196.568 177.406 194.387 179.387C191.349 182.148 188.093 184.606 184.552 186.696C179.828 189.49 174.801 191.496 169.372 192.301C166.485 192.729 163.515 193.048 160.611 192.88C155.493 192.595 150.483 191.63 145.725 189.54C142.15 187.971 138.81 186.024 135.773 183.608C131.854 180.494 128.565 176.794 125.963 172.489C123.932 169.124 122.355 165.541 121.726 161.681C121.256 158.845 121.23 155.916 121.23 153.021C121.23 147.726 122.07 142.523 123.714 137.497C125.46 132.152 128.179 127.327 132.039 123.19C135.504 119.464 139.389 116.225 144.122 114.312C147.789 112.835 151.624 111.719 155.442 110.67C160.158 109.377 165.008 108.941 169.884 109.243C173.844 109.478 177.772 110.015 181.648 110.938C184.997 111.727 188.328 112.541 191.424 114.068C196.669 116.644 200.286 120.748 202.644 126.068C204.087 129.332 204.968 132.739 205.522 136.238C205.824 138.135 205.824 140.073 205.958 141.995C206.084 143.916 206.319 145.846 206.302 147.76C206.269 150.319 206.034 152.87 205.891 155.429C203.751 154.884 201.637 154.372 199.531 153.869Z" fill="#FFFDFC"/>
<path d="M170.555 157.552C171.235 155.782 171.831 154.238 172.468 152.576C174.205 153.055 175.9 153.508 177.596 153.978C187.455 156.747 197.299 159.558 207.335 161.622C214.727 163.141 222.162 164.492 229.521 166.187C234.875 167.421 240.103 169.208 245.44 170.534C252.111 172.187 258.841 173.605 265.546 175.158C273.711 177.046 281.85 179.009 290.015 180.872C300.731 183.314 311.463 185.689 322.196 188.08C328.54 189.498 334.892 190.858 341.228 192.31C344.207 192.998 347.152 193.854 350.114 194.626C350.433 194.709 350.777 194.709 351.113 194.718C355.459 194.861 359.823 194.869 364.161 195.163C369.095 195.498 373.971 196.304 378.687 197.865C380.869 198.586 381.766 201.683 380.248 203.478C379.92 203.873 379.199 204.15 378.67 204.133C376.967 204.091 375.271 203.898 373.576 203.739C371.017 203.495 368.458 203.193 365.89 202.992C360.117 202.539 354.444 201.515 348.847 200.055C339.34 197.579 329.866 194.936 320.3 192.687C312.428 190.841 304.457 189.398 296.51 187.887C285.291 185.756 274.021 183.868 262.835 181.569C258.019 180.578 253.361 178.808 248.62 177.415C239.801 174.822 230.847 172.758 221.734 171.549C211.698 170.223 202.09 167.362 192.608 164.005C186.826 161.958 180.877 160.657 174.927 159.273C173.459 158.945 172.091 158.173 170.555 157.552Z" fill="#C0AF9B"/>
<path d="M338.483 185.865C340.766 184.883 343.006 183.969 345.205 182.962C350.156 180.713 355.082 178.413 360.024 176.148C363.473 174.57 367.073 173.714 370.883 173.79C375.674 173.89 380.466 173.865 385.249 174.067C390.695 174.293 396.141 174.612 401.57 175.057C406.94 175.502 412.277 176.24 417.681 176.081C418.26 176.064 419.167 175.871 419.242 177.037C416.884 178.162 414.518 179.303 412.143 180.427C402.795 184.858 393.095 188.399 383.461 192.117C381.498 192.872 379.584 192.477 377.654 192.058C372.913 191.026 368.122 190.346 363.28 190.103C359.739 189.918 356.189 189.884 352.648 189.658C351.23 189.566 349.812 189.23 348.436 188.836C345.138 187.904 341.874 186.88 338.483 185.865Z" fill="#FFA483"/>
<path d="M334.12 201.515C337.871 202.623 341.387 203.747 344.962 204.687C350.03 206.021 355.191 206.936 360.419 207.414C364.413 207.775 368.424 207.976 372.402 208.463C375.104 208.79 377.822 209.294 380.415 210.099C381.909 210.569 383.302 211.643 384.51 212.717C391.232 218.675 397.878 224.717 403.819 231.472C403.903 231.564 403.962 231.682 404.138 231.942C401.495 231.497 399.027 231.078 396.552 230.65C392.012 229.878 387.473 229.131 382.941 228.334C376.765 227.251 370.589 226.186 364.43 225.011C359.815 224.13 355.233 223.081 350.643 222.107C349.518 221.872 348.637 221.31 347.941 220.362C343.502 214.312 339.046 208.287 334.59 202.253C334.447 202.069 334.338 201.859 334.12 201.515Z" fill="#FFA483"/>
<path d="M295.383 169.954L320.846 176.777L320 182L293.83 175.75L295.383 169.954Z" fill="#292929"/>
<path d="M287.281 191L316.5 197L314.5 202.5L286 198L287.281 191Z" fill="#292929"/>
</g>
<g clip-path="url(#clip1_16_31)">
<path d="M490.157 291.064H483.146V229.727H492.495L504.281 262.449C505.016 264.586 505.751 266.723 506.485 268.86C507.198 271.019 507.921 273.156 508.656 275.271H509.056C509.791 273.156 510.492 271.019 511.16 268.86C511.805 266.723 512.507 264.586 513.263 262.449L524.85 229.727H534.299V291.064H526.987V257.307C526.987 254.569 527.109 251.531 527.354 248.192C527.621 244.875 527.844 241.87 528.022 239.176H527.654L522.78 253.1L511.193 284.887H506.051L494.465 253.1L489.59 239.176H489.223C489.401 241.87 489.601 244.875 489.824 248.192C490.046 251.531 490.157 254.569 490.157 257.307V291.064ZM560.844 292.2C557.038 292.2 553.877 291.064 551.361 288.794C548.824 286.501 547.555 283.329 547.555 279.278C547.555 274.291 549.781 270.474 554.233 267.825C558.707 265.176 565.775 263.328 575.436 262.282C575.436 260.346 575.169 258.509 574.634 256.773C574.1 255.014 573.165 253.59 571.83 252.499C570.494 251.408 568.58 250.863 566.086 250.863C563.46 250.863 560.989 251.364 558.674 252.365C556.381 253.367 554.333 254.491 552.53 255.738L549.525 250.395C551.64 249.037 554.244 247.713 557.338 246.422C560.41 245.153 563.76 244.519 567.389 244.519C572.931 244.519 576.949 246.21 579.443 249.594C581.936 253 583.182 257.541 583.182 263.217V291.064H576.838L576.17 285.655H575.903C573.766 287.391 571.44 288.916 568.925 290.23C566.409 291.543 563.716 292.2 560.844 292.2ZM563.081 286.022C565.263 286.022 567.322 285.488 569.259 284.42C571.195 283.374 573.254 281.882 575.436 279.945V267.324C567.89 268.259 562.603 269.661 559.575 271.531C556.548 273.401 555.034 275.805 555.034 278.743C555.034 281.281 555.813 283.129 557.372 284.286C558.93 285.444 560.833 286.022 563.081 286.022ZM605.053 291.064H597.473V224.518H605.053V269.561H605.353L624.686 245.62H633.201L617.975 263.851L635.271 291.064H626.856L613.567 269.194L605.053 279.111V291.064ZM651.432 291.064H643.752V245.62H651.432V291.064ZM647.692 236.271C646.2 236.271 644.965 235.826 643.986 234.936C643.028 234.023 642.55 232.788 642.55 231.229C642.55 229.738 643.028 228.525 643.986 227.59C644.965 226.655 646.2 226.187 647.692 226.187C649.183 226.187 650.419 226.655 651.398 227.59C652.355 228.525 652.834 229.738 652.834 231.229C652.834 232.788 652.355 234.023 651.398 234.936C650.419 235.826 649.183 236.271 647.692 236.271ZM674.437 291.064H666.758V245.62H673.135L673.77 252.165H674.07C676.252 249.983 678.555 248.169 680.982 246.722C683.408 245.253 686.18 244.519 689.296 244.519C694.104 244.519 697.61 246.032 699.814 249.06C702.018 252.065 703.119 256.472 703.119 262.282V291.064H695.473V263.317C695.473 259.066 694.783 255.971 693.403 254.035C692.045 252.12 689.864 251.163 686.858 251.163C684.566 251.163 682.495 251.753 680.648 252.933C678.8 254.113 676.73 255.86 674.437 258.175V291.064ZM733.237 312C727.695 312 723.176 310.943 719.681 308.828C716.186 306.713 714.439 303.697 714.439 299.779C714.439 297.843 715.029 295.984 716.208 294.203C717.41 292.422 719.035 290.853 721.083 289.495V289.094C719.97 288.427 719.024 287.469 718.245 286.223C717.466 284.976 717.076 283.474 717.076 281.715C717.076 279.779 717.6 278.098 718.646 276.673C719.714 275.249 720.838 274.124 722.018 273.301V272.934C720.527 271.687 719.169 270.006 717.945 267.892C716.743 265.777 716.142 263.373 716.142 260.679C716.142 257.385 716.921 254.525 718.479 252.098C720.037 249.65 722.118 247.78 724.723 246.489C727.35 245.175 730.188 244.519 733.237 244.519C734.484 244.519 735.664 244.63 736.777 244.853C737.912 245.053 738.88 245.309 739.682 245.62H755.475V251.531H746.126C747.194 252.532 748.085 253.857 748.797 255.504C749.509 257.151 749.866 258.943 749.866 260.88C749.866 264.107 749.12 266.912 747.628 269.294C746.137 271.654 744.145 273.479 741.652 274.77C739.158 276.039 736.354 276.673 733.237 276.673C730.811 276.673 728.54 276.139 726.426 275.071C725.602 275.761 724.912 276.529 724.356 277.374C723.799 278.22 723.521 279.267 723.521 280.513C723.521 281.938 724.1 283.118 725.257 284.052C726.392 284.987 728.496 285.455 731.568 285.455H740.349C745.647 285.455 749.621 286.312 752.27 288.026C754.919 289.74 756.243 292.5 756.243 296.307C756.243 299.111 755.308 301.694 753.438 304.053C751.568 306.435 748.919 308.36 745.491 309.83C742.063 311.277 737.979 312 733.237 312ZM733.237 271.531C735.864 271.531 738.123 270.552 740.015 268.593C741.908 266.634 742.854 263.996 742.854 260.679C742.854 257.385 741.919 254.803 740.049 252.933C738.179 251.063 735.908 250.128 733.237 250.128C730.566 250.128 728.296 251.063 726.426 252.933C724.556 254.803 723.621 257.385 723.621 260.679C723.621 263.996 724.567 266.634 726.459 268.593C728.351 270.552 730.611 271.531 733.237 271.531ZM734.373 306.691C738.736 306.691 742.219 305.734 744.824 303.819C747.45 301.927 748.764 299.801 748.764 297.442C748.764 295.305 747.962 293.836 746.36 293.034C744.779 292.233 742.52 291.832 739.581 291.832H731.735C730.867 291.832 729.921 291.766 728.897 291.632C727.873 291.498 726.86 291.309 725.858 291.064C724.233 292.244 723.042 293.491 722.285 294.804C721.551 296.117 721.183 297.431 721.183 298.744C721.183 301.17 722.352 303.096 724.689 304.521C727.027 305.967 730.254 306.691 734.373 306.691ZM801.687 292.2C797.68 292.2 794.063 291.265 790.835 289.395C787.585 287.525 785.025 284.809 783.155 281.248C781.286 277.708 780.351 273.446 780.351 268.459C780.351 263.339 781.364 258.999 783.389 255.437C785.415 251.898 788.097 249.193 791.436 247.323C794.775 245.454 798.37 244.519 802.221 244.519C805.226 244.519 807.797 245.042 809.934 246.088C812.094 247.156 813.952 248.403 815.51 249.828L811.57 254.903C810.279 253.701 808.899 252.733 807.43 251.998C805.961 251.241 804.325 250.863 802.522 250.863C799.784 250.863 797.335 251.597 795.176 253.066C793.017 254.536 791.336 256.595 790.134 259.244C788.91 261.893 788.298 264.964 788.298 268.459C788.298 273.624 789.589 277.809 792.171 281.014C794.775 284.219 798.159 285.822 802.321 285.822C804.436 285.822 806.406 285.377 808.231 284.487C810.034 283.574 811.615 282.494 812.973 281.248L816.345 286.39C814.297 288.193 812.027 289.617 809.534 290.664C807.04 291.688 804.425 292.2 801.687 292.2ZM834.009 291.064H826.362V224.518H834.009V242.649L833.741 251.998C835.923 249.928 838.216 248.169 840.62 246.722C843.024 245.253 845.784 244.519 848.901 244.519C853.686 244.519 857.192 246.032 859.418 249.06C861.622 252.065 862.724 256.472 862.724 262.282V291.064H855.044V263.317C855.044 259.066 854.365 255.971 853.008 254.035C851.627 252.12 849.446 251.163 846.463 251.163C844.148 251.163 842.078 251.753 840.253 252.933C838.405 254.113 836.324 255.86 834.009 258.175V291.064ZM887.7 292.2C883.893 292.2 880.721 291.064 878.184 288.794C875.668 286.501 874.411 283.329 874.411 279.278C874.411 274.291 876.637 270.474 881.089 267.825C885.541 265.176 892.597 263.328 902.258 262.282C902.258 260.346 902.002 258.509 901.49 256.773C900.956 255.014 900.021 253.59 898.685 252.499C897.327 251.408 895.402 250.863 892.909 250.863C890.304 250.863 887.845 251.364 885.529 252.365C883.237 253.367 881.178 254.491 879.352 255.738L876.381 250.395C878.495 249.037 881.1 247.713 884.194 246.422C887.266 245.153 890.616 244.519 894.244 244.519C899.787 244.519 903.805 246.21 906.298 249.594C908.791 253 910.038 257.541 910.038 263.217V291.064H903.66L903.026 285.655H902.725C900.611 287.391 898.296 288.916 895.78 290.23C893.243 291.543 890.549 292.2 887.7 292.2ZM889.937 286.022C892.118 286.022 894.177 285.488 896.114 284.42C898.028 283.374 900.076 281.882 902.258 279.945V267.324C894.734 268.259 889.458 269.661 886.431 271.531C883.404 273.401 881.89 275.805 881.89 278.743C881.89 281.281 882.669 283.129 884.227 284.286C885.785 285.444 887.689 286.022 889.937 286.022ZM932.008 291.064H924.329V245.62H930.706L931.341 252.165H931.641C933.823 249.983 936.127 248.169 938.553 246.722C940.979 245.253 943.751 244.519 946.867 244.519C951.675 244.519 955.181 246.032 957.385 249.06C959.589 252.065 960.691 256.472 960.691 262.282V291.064H953.044V263.317C953.044 259.066 952.354 255.971 950.974 254.035C949.616 252.12 947.435 251.163 944.43 251.163C942.137 251.163 940.067 251.753 938.219 252.933C936.371 254.113 934.301 255.86 932.008 258.175V291.064ZM990.808 312C985.266 312 980.747 310.943 977.252 308.828C973.757 306.713 972.01 303.697 972.01 299.779C972.01 297.843 972.6 295.984 973.779 294.203C974.982 292.422 976.606 290.853 978.654 289.495V289.094C977.541 288.427 976.595 287.469 975.816 286.223C975.037 284.976 974.648 283.474 974.648 281.715C974.648 279.779 975.171 278.098 976.217 276.673C977.285 275.249 978.41 274.124 979.589 273.301V272.934C978.098 271.687 976.74 270.006 975.516 267.892C974.314 265.777 973.713 263.373 973.713 260.679C973.713 257.385 974.492 254.525 976.05 252.098C977.608 249.65 979.689 247.78 982.294 246.489C984.921 245.175 987.759 244.519 990.808 244.519C992.055 244.519 993.235 244.63 994.348 244.853C995.483 245.053 996.451 245.309 997.253 245.62H1013.05V251.531H1003.7C1004.77 252.532 1005.66 253.857 1006.37 255.504C1007.08 257.151 1007.44 258.943 1007.44 260.88C1007.44 264.107 1006.69 266.912 1005.2 269.294C1003.71 271.654 1001.72 273.479 999.223 274.77C996.73 276.039 993.925 276.673 990.808 276.673C988.382 276.673 986.112 276.139 983.997 275.071C983.173 275.761 982.483 276.529 981.927 277.374C981.37 278.22 981.092 279.267 981.092 280.513C981.092 281.938 981.671 283.118 982.828 284.052C983.963 284.987 986.067 285.455 989.139 285.455H997.92C1003.22 285.455 1007.19 286.312 1009.84 288.026C1012.49 289.74 1013.81 292.5 1013.81 296.307C1013.81 299.111 1012.88 301.694 1011.01 304.053C1009.14 306.435 1006.49 308.36 1003.06 309.83C999.634 311.277 995.55 312 990.808 312ZM990.808 271.531C993.435 271.531 995.694 270.552 997.587 268.593C999.479 266.634 1000.42 263.996 1000.42 260.679C1000.42 257.385 999.49 254.803 997.62 252.933C995.75 251.063 993.48 250.128 990.808 250.128C988.137 250.128 985.867 251.063 983.997 252.933C982.127 254.803 981.192 257.385 981.192 260.679C981.192 263.996 982.138 266.634 984.03 268.593C985.922 270.552 988.182 271.531 990.808 271.531ZM991.944 306.691C996.307 306.691 999.79 305.734 1002.39 303.819C1005.02 301.927 1006.33 299.801 1006.33 297.442C1006.33 295.305 1005.53 293.836 1003.93 293.034C1002.35 292.233 1000.09 291.832 997.153 291.832H989.306C988.438 291.832 987.492 291.766 986.468 291.632C985.444 291.498 984.431 291.309 983.429 291.064C981.804 292.244 980.613 293.491 979.856 294.804C979.122 296.117 978.755 297.431 978.755 298.744C978.755 301.17 979.923 303.096 982.261 304.521C984.598 305.967 987.826 306.691 991.944 306.691ZM1041.03 292.2C1036.98 292.2 1033.29 291.242 1029.97 289.328C1026.68 287.436 1024.06 284.709 1022.13 281.148C1020.19 277.608 1019.22 273.379 1019.22 268.459C1019.22 263.473 1020.2 259.199 1022.16 255.638C1024.14 252.076 1026.69 249.338 1029.81 247.424C1032.92 245.487 1036.2 244.519 1039.62 244.519C1045.41 244.519 1049.88 246.444 1053.01 250.295C1056.18 254.168 1057.76 259.344 1057.76 265.821C1057.76 266.645 1057.73 267.446 1057.69 268.226C1057.67 269.005 1057.59 269.672 1057.46 270.229H1026.8C1027.11 275.015 1028.63 278.844 1031.34 281.715C1034.06 284.587 1037.6 286.022 1041.96 286.022C1044.14 286.022 1046.15 285.7 1047.97 285.054C1049.82 284.386 1051.58 283.529 1053.25 282.483L1055.99 287.525C1054.05 288.772 1051.85 289.862 1049.37 290.797C1046.93 291.732 1044.14 292.2 1041.03 292.2ZM1026.7 264.72H1051.01C1051.01 260.09 1050.03 256.584 1048.07 254.202C1046.11 251.798 1043.35 250.596 1039.79 250.596C1036.61 250.596 1033.76 251.82 1031.24 254.269C1028.73 256.739 1027.21 260.223 1026.7 264.72ZM1101.96 292.2C1097.11 292.2 1093.73 290.797 1091.81 287.992C1089.92 285.188 1088.98 281.537 1088.98 277.041V251.898H1082.23V246.088L1089.34 245.62L1090.28 232.932H1096.72V245.62H1108.98V251.898H1096.72V277.141C1096.72 279.945 1097.24 282.116 1098.29 283.652C1099.32 285.165 1101.13 285.922 1103.73 285.922C1104.56 285.922 1105.44 285.789 1106.37 285.522C1107.31 285.232 1108.14 284.965 1108.88 284.72L1110.38 290.497C1109.13 290.942 1107.77 291.332 1106.3 291.665C1104.86 292.022 1103.41 292.2 1101.96 292.2ZM1136.92 292.2C1133.25 292.2 1129.81 291.265 1126.61 289.395C1123.4 287.525 1120.82 284.809 1118.86 281.248C1116.88 277.708 1115.89 273.446 1115.89 268.459C1115.89 263.339 1116.88 258.999 1118.86 255.437C1120.82 251.898 1123.4 249.193 1126.61 247.323C1129.81 245.454 1133.25 244.519 1136.92 244.519C1140.66 244.519 1144.12 245.454 1147.31 247.323C1150.49 249.193 1153.06 251.898 1155.02 255.437C1156.98 258.999 1157.96 263.339 1157.96 268.459C1157.96 273.446 1156.98 277.708 1155.02 281.248C1153.06 284.809 1150.49 287.525 1147.31 289.395C1144.12 291.265 1140.66 292.2 1136.92 292.2ZM1136.92 285.822C1140.86 285.822 1144.04 284.219 1146.44 281.014C1148.82 277.809 1150.01 273.624 1150.01 268.459C1150.01 263.206 1148.82 258.965 1146.44 255.738C1144.04 252.488 1140.86 250.863 1136.92 250.863C1133.07 250.863 1129.93 252.488 1127.51 255.738C1125.06 258.965 1123.83 263.206 1123.83 268.459C1123.83 273.624 1125.06 277.809 1127.51 281.014C1129.93 284.219 1133.07 285.822 1136.92 285.822ZM1185.27 312C1179.73 312 1175.21 310.943 1171.72 308.828C1168.22 306.713 1166.47 303.697 1166.47 299.779C1166.47 297.843 1167.06 295.984 1168.24 294.203C1169.45 292.422 1171.07 290.853 1173.12 289.495V289.094C1172.01 288.427 1171.06 287.469 1170.28 286.223C1169.5 284.976 1169.11 283.474 1169.11 281.715C1169.11 279.779 1169.63 278.098 1170.68 276.673C1171.75 275.249 1172.87 274.124 1174.05 273.301V272.934C1172.56 271.687 1171.2 270.006 1169.98 267.892C1168.78 265.777 1168.18 263.373 1168.18 260.679C1168.18 257.385 1168.96 254.525 1170.51 252.098C1172.07 249.65 1174.15 247.78 1176.76 246.489C1179.38 245.175 1182.22 244.519 1185.27 244.519C1186.52 244.519 1187.7 244.63 1188.81 244.853C1189.95 245.053 1190.92 245.309 1191.72 245.62H1207.51V251.531H1198.16C1199.23 252.532 1200.12 253.857 1200.83 255.504C1201.54 257.151 1201.9 258.943 1201.9 260.88C1201.9 264.107 1201.15 266.912 1199.66 269.294C1198.17 271.654 1196.18 273.479 1193.69 274.77C1191.19 276.039 1188.39 276.673 1185.27 276.673C1182.85 276.673 1180.58 276.139 1178.46 275.071C1177.64 275.761 1176.95 276.529 1176.39 277.374C1175.83 278.22 1175.56 279.267 1175.56 280.513C1175.56 281.938 1176.13 283.118 1177.29 284.052C1178.43 284.987 1180.53 285.455 1183.6 285.455H1192.38C1197.68 285.455 1201.66 286.312 1204.3 288.026C1206.95 289.74 1208.28 292.5 1208.28 296.307C1208.28 299.111 1207.34 301.694 1205.47 304.053C1203.6 306.435 1200.95 308.36 1197.53 309.83C1194.1 311.277 1190.01 312 1185.27 312ZM1185.27 271.531C1187.9 271.531 1190.16 270.552 1192.05 268.593C1193.94 266.634 1194.89 263.996 1194.89 260.679C1194.89 257.385 1193.95 254.803 1192.08 252.933C1190.21 251.063 1187.94 250.128 1185.27 250.128C1182.6 250.128 1180.33 251.063 1178.46 252.933C1176.59 254.803 1175.66 257.385 1175.66 260.679C1175.66 263.996 1176.6 266.634 1178.49 268.593C1180.39 270.552 1182.65 271.531 1185.27 271.531ZM1186.41 306.691C1190.77 306.691 1194.25 305.734 1196.86 303.819C1199.49 301.927 1200.8 299.801 1200.8 297.442C1200.8 295.305 1200 293.836 1198.39 293.034C1196.81 292.233 1194.55 291.832 1191.62 291.832H1183.77C1182.9 291.832 1181.96 291.766 1180.93 291.632C1179.91 291.498 1178.89 291.309 1177.89 291.064C1176.27 292.244 1175.08 293.491 1174.32 294.804C1173.59 296.117 1173.22 297.431 1173.22 298.744C1173.22 301.17 1174.39 303.096 1176.72 304.521C1179.06 305.967 1182.29 306.691 1186.41 306.691ZM1235.49 292.2C1231.44 292.2 1227.76 291.242 1224.44 289.328C1221.14 287.436 1218.53 284.709 1216.59 281.148C1214.66 277.608 1213.69 273.379 1213.69 268.459C1213.69 263.473 1214.67 259.199 1216.63 255.638C1218.61 252.076 1221.16 249.338 1224.27 247.424C1227.39 245.487 1230.66 244.519 1234.09 244.519C1239.88 244.519 1244.34 246.444 1247.48 250.295C1250.64 254.168 1252.22 259.344 1252.22 265.821C1252.22 266.645 1252.2 267.446 1252.15 268.226C1252.13 269.005 1252.05 269.672 1251.92 270.229H1221.27C1221.58 275.015 1223.09 278.844 1225.81 281.715C1228.52 284.587 1232.06 286.022 1236.43 286.022C1238.61 286.022 1240.61 285.7 1242.44 285.054C1244.28 284.386 1246.04 283.529 1247.71 282.483L1250.45 287.525C1248.51 288.772 1246.31 289.862 1243.84 290.797C1241.39 291.732 1238.61 292.2 1235.49 292.2ZM1221.17 264.72H1245.47C1245.47 260.09 1244.5 256.584 1242.54 254.202C1240.58 251.798 1237.82 250.596 1234.26 250.596C1231.07 250.596 1228.22 251.82 1225.71 254.269C1223.19 256.739 1221.68 260.223 1221.17 264.72ZM1277.73 292.2C1272.88 292.2 1269.49 290.797 1267.58 287.992C1265.69 285.188 1264.74 281.537 1264.74 277.041V251.898H1258V246.088L1265.11 245.62L1266.04 232.932H1272.49V245.62H1284.74V251.898H1272.49V277.141C1272.49 279.945 1273.01 282.116 1274.06 283.652C1275.08 285.165 1276.89 285.922 1279.5 285.922C1280.32 285.922 1281.2 285.789 1282.14 285.522C1283.07 285.232 1283.91 284.965 1284.64 284.72L1286.14 290.497C1284.9 290.942 1283.54 291.332 1282.07 291.665C1280.62 292.022 1279.18 292.2 1277.73 292.2ZM1302.71 291.064H1295.03V224.518H1302.71V242.649L1302.4 251.998C1304.59 249.928 1306.88 248.169 1309.28 246.722C1311.69 245.253 1314.45 244.519 1317.56 244.519C1322.37 244.519 1325.88 246.032 1328.08 249.06C1330.29 252.065 1331.39 256.472 1331.39 262.282V291.064H1323.74V263.317C1323.74 259.066 1323.05 255.971 1321.67 254.035C1320.31 252.12 1318.13 251.163 1315.13 251.163C1312.83 251.163 1310.76 251.753 1308.92 252.933C1307.07 254.113 1305 255.86 1302.71 258.175V291.064ZM1364.31 292.2C1360.26 292.2 1356.59 291.242 1353.29 289.328C1349.97 287.436 1347.35 284.709 1345.41 281.148C1343.5 277.608 1342.54 273.379 1342.54 268.459C1342.54 263.473 1343.52 259.199 1345.48 255.638C1347.44 252.076 1349.97 249.338 1353.09 247.424C1356.21 245.487 1359.48 244.519 1362.91 244.519C1368.7 244.519 1373.17 246.444 1376.33 250.295C1379.47 254.168 1381.04 259.344 1381.04 265.821C1381.04 266.645 1381.03 267.446 1381.01 268.226C1380.96 269.005 1380.88 269.672 1380.77 270.229H1350.09C1350.4 275.015 1351.91 278.844 1354.63 281.715C1357.34 284.587 1360.88 286.022 1365.24 286.022C1367.43 286.022 1369.44 285.7 1371.29 285.054C1373.11 284.386 1374.87 283.529 1376.56 282.483L1379.27 287.525C1377.33 288.772 1375.14 289.862 1372.69 290.797C1370.22 291.732 1367.43 292.2 1364.31 292.2ZM1350.02 264.72H1374.33C1374.33 260.09 1373.34 256.584 1371.36 254.202C1369.4 251.798 1366.65 250.596 1363.11 250.596C1359.92 250.596 1357.06 251.82 1354.53 254.269C1352.01 256.739 1350.51 260.223 1350.02 264.72ZM1399.94 291.064H1392.26V245.62H1398.64L1399.27 253.868H1399.57C1401.13 250.996 1403.02 248.715 1405.25 247.023C1407.49 245.353 1409.9 244.519 1412.46 244.519C1414.26 244.519 1415.89 244.83 1417.33 245.454L1415.83 252.165C1415.07 251.92 1414.38 251.742 1413.76 251.631C1413.14 251.497 1412.36 251.43 1411.42 251.43C1409.49 251.43 1407.48 252.209 1405.41 253.768C1403.32 255.326 1401.5 258.042 1399.94 261.915V291.064Z" fill="white"/>
</g>
<g clip-path="url(#clip2_16_31)">
<path d="M510.826 129.113C510.826 120.454 510.703 106.374 510.459 86.8745C511.75 87.2752 514.165 87.598 517.704 87.8428C521.266 88.11 524.85 88.3103 528.456 88.4439C532.084 88.5552 534.8 88.5552 536.603 88.4439C544.483 88.0432 552.23 86.2958 559.843 83.2016C567.455 80.1075 573.777 75.7779 578.808 70.2129C582.948 65.8276 585.698 60.6967 587.055 54.82C588.413 48.9434 588.28 42.8441 586.655 36.5223C585.052 30.2004 581.925 24.2013 577.272 18.525C568.235 7.41724 554.934 1.2846 537.371 0.127074C528.467 -0.384907 516.135 0.650187 500.375 3.23235C499.996 3.34365 499.674 3.3993 499.406 3.3993C498.761 3.288 498.115 3.23235 497.47 3.23235C493.73 3.23235 490.502 4.49004 487.787 7.00543C485.071 9.52082 483.657 12.6484 483.546 16.388C483.413 18.1911 483.312 21.9308 483.246 27.6071C483.179 33.3057 483.146 40.0839 483.146 47.9417C483.146 55.8217 483.179 64.058 483.246 72.6503C483.312 81.2427 483.379 89.4678 483.446 97.3256C483.513 105.206 483.58 112.017 483.646 117.76C483.691 123.503 483.713 127.288 483.713 129.113C483.713 132.853 485.071 136.014 487.787 138.596C490.502 141.423 493.697 142.781 497.37 142.669C501.065 142.536 504.237 141.245 506.886 138.796C509.513 136.325 510.826 133.098 510.826 129.113ZM535.434 61.3311C533.119 61.4424 530.726 61.4424 528.256 61.3311C525.807 61.1975 522.902 60.9972 519.541 60.7301L510.459 59.7618H510.258C510.258 47.8972 510.325 37.6353 510.459 28.9761C520.787 27.4179 529.179 26.8391 535.635 27.2398C545.318 27.7518 552.218 30.5232 556.337 35.554C559.052 38.9152 560.51 42.0539 560.711 44.97C560.911 47.8638 560.165 50.279 558.474 52.2156C556.403 54.6642 553.242 56.7678 548.991 58.5263C544.739 60.2626 540.22 61.1975 535.434 61.3311ZM604.953 137.227C607.802 140.076 611.03 141.434 614.636 141.3C618.264 141.167 621.403 139.842 624.052 137.327C626.678 134.812 627.992 131.55 627.992 127.544C627.88 112.696 627.758 101.21 627.624 93.0851C627.224 85.4721 627.291 79.5955 627.825 75.4551C636.217 71.4483 646.345 67.3858 658.21 63.2677C662.217 61.8431 664.765 59.5837 665.856 56.4895C666.969 53.3731 666.969 50.2345 665.856 47.0735C664.765 43.9126 662.795 41.464 659.946 39.7277C657.119 37.9914 653.702 37.8245 649.695 39.2269C639.367 42.8553 631.62 46.083 626.456 48.91C625.432 45.1703 623.785 42.5659 621.514 41.0967C619.266 39.6053 616.784 38.8596 614.068 38.8596C610.328 38.8596 607.134 40.184 604.485 42.833C601.836 45.4819 600.512 49.3218 600.512 54.3526C600.512 65.9723 600.578 78.9499 600.712 93.2854C600.445 94.6878 600.445 96.1681 600.712 97.7263C600.712 105.094 600.768 115.167 600.879 127.944C600.879 131.55 602.237 134.645 604.953 137.227ZM708.195 142.669C718.523 144.717 727.361 144.45 734.706 141.868C740.783 139.687 746.081 135.947 750.6 130.649C755.119 125.351 758.469 119.73 760.651 113.787C762.854 107.977 764.279 101.911 764.924 95.5893C766.082 89.5346 765.982 83.0792 764.624 76.2231C763.266 69.3892 760.751 63.1008 757.078 57.3577C753.405 51.6146 748.663 47.3184 742.854 44.4691C738.713 42.3989 730.577 40.3955 718.445 38.4589C714.839 36.7894 711.222 36.667 707.594 38.0916C707.082 38.3365 706.314 38.5925 705.29 38.8596C702.708 39.6387 701.35 40.0282 701.216 40.0282C696.564 41.4306 692.757 43.4229 689.797 46.0051C684.744 50.279 680.637 55.3209 677.476 61.1308C674.315 66.9406 672.122 73.1401 670.898 79.729C669.674 86.2958 669.451 92.8068 670.23 99.2623C671.521 109.724 675.394 119.029 681.85 127.176C688.172 135.301 696.953 140.466 708.195 142.669ZM713.203 116.325C703.787 114.388 698.434 107.677 697.143 96.1904C696.363 90.3805 696.942 84.7598 698.879 79.3284C700.815 73.8969 703.598 69.6341 707.226 66.54L709.163 65.772C709.274 65.772 710.432 65.4492 712.636 64.8037C716.375 65.7163 719.77 66.3285 722.82 66.6401C725.847 66.974 728.652 67.7197 731.234 68.8773C733.549 70.0348 735.285 72.2274 736.443 75.4551C737.622 78.6828 738.246 82.3891 738.313 86.574C738.357 90.7812 737.901 94.9883 736.944 99.1955C735.964 103.38 734.539 107.02 732.67 110.114C730.8 113.208 728.507 115.278 725.791 116.325C722.964 117.349 718.768 117.349 713.203 116.325ZM796.678 141.1C800.819 141.234 804.302 139.041 807.13 134.522L809.467 136.058C817.859 140.466 827.542 142.024 838.516 140.733C847.042 139.82 854.332 137.238 860.387 132.986C866.464 128.712 871.116 123.225 874.344 116.525C879.887 104.905 880.788 92.4395 877.048 79.128C873.442 64.7926 866.475 53.7516 856.146 46.0051C850.203 41.4863 843.747 38.7149 836.78 37.6909C829.679 36.667 821.999 37.6353 813.741 40.5959L811.003 41.7645C811.003 38.9152 811.003 34.3297 811.003 28.0078C810.891 21.6859 810.836 17.4899 810.836 15.4197C810.702 11.0345 809.244 7.74001 806.462 5.53627C803.679 3.35478 800.518 2.29743 796.979 2.36421C793.417 2.40873 790.312 3.56625 787.663 5.83678C785.036 8.08505 783.723 11.4129 783.723 15.8204C784.369 67.1966 784.302 104.315 783.523 127.176C783.389 130.783 784.613 133.977 787.196 136.759C789.778 139.52 792.939 140.966 796.678 141.1ZM835.812 113.987C830.135 114.499 825.617 113.854 822.255 112.051C821.343 111.672 820.118 110.515 818.582 108.578L815.277 104.304C813.852 102.368 812.494 100.687 811.203 99.2623C811.337 93.074 811.403 85.5946 811.403 76.8241L811.604 76.6238C812.383 74.5536 813.93 72.5502 816.245 70.6136C820.385 67.7643 822.901 66.1504 823.791 65.772C829.735 63.4569 835.099 64.0357 839.885 67.5083C845.161 71.5151 848.834 77.6477 850.904 85.9062C852.974 92.7623 852.651 99.0953 849.936 104.905C847.353 110.181 842.645 113.208 835.812 113.987ZM924.496 130.248C924.496 125.863 924.529 120.509 924.596 114.188C924.663 107.866 924.696 101.121 924.696 93.9532C924.696 86.7855 924.696 79.6845 924.696 72.6503C924.696 65.6162 924.696 59.1941 924.696 53.3843C924.562 38.0248 924.496 25.1808 924.496 14.8521C924.496 11.2237 923.594 8.34104 921.791 6.20407C919.988 4.08936 917.729 2.67585 915.013 1.96353C912.297 1.25121 909.581 1.25121 906.866 1.96353C904.172 2.67585 901.913 4.08936 900.088 6.20407C898.284 8.34104 897.383 11.2237 897.383 14.8521L897.583 74.0861C897.717 111.283 897.65 129.881 897.383 129.881C897.383 134.266 898.707 137.594 901.356 139.865C904.005 142.113 907.099 143.27 910.639 143.337C914.2 143.404 917.372 142.335 920.155 140.132C922.915 137.95 924.362 134.656 924.496 130.248ZM994.014 143.037C1000.74 143.037 1007.36 141.946 1013.88 139.764C1020.4 137.561 1025.72 134.589 1029.84 130.849C1033.98 127.11 1036.05 123.17 1036.05 119.029C1036.05 116.069 1034.93 113.453 1032.68 111.183C1030.41 108.934 1027.59 107.81 1024.23 107.81C1021.27 107.81 1018.95 108.489 1017.25 109.847C1015.58 111.183 1013.78 112.819 1011.84 114.755C1010.04 116.447 1007.97 117.716 1005.63 118.562C1003.32 119.385 1000.22 119.864 996.351 119.997C987.826 120.265 981.47 118.617 977.285 115.056C973.078 111.516 970.585 106.575 969.806 100.231L976.584 100.431C984.731 100.832 992.355 101.032 999.456 101.032C1006.94 101.032 1015.52 100.576 1025.2 99.6629C1029.99 99.2845 1033.79 97.8599 1036.62 95.389C1039.47 92.9404 1040.89 89.5235 1040.89 85.1382C1040.89 76.4791 1039.09 68.6324 1035.48 61.5982C1031.86 54.5641 1026.49 48.9879 1019.39 44.8698C1012.16 40.7294 1003.51 38.6592 993.446 38.6592C983.629 38.6592 974.848 41.0522 967.101 45.8381C959.355 50.6018 953.423 57.0572 949.304 65.2044C945.164 73.4628 943.094 83.2016 943.094 94.4207C943.094 103.347 945.131 111.483 949.204 118.829C953.256 126.197 959.155 132.074 966.901 136.459C974.648 140.844 983.685 143.037 994.014 143.037ZM970.207 80.497C971.119 73.7745 973.635 68.9997 977.753 66.1727C981.893 63.3234 987.258 61.832 993.847 61.6984C1001.7 61.5648 1007.16 63.1787 1010.21 66.54C1013.24 69.9012 1014.88 74.3532 1015.15 79.896C1011.01 80.9422 1004.49 81.5321 995.583 81.6657C986.278 81.9105 977.82 81.521 970.207 80.497ZM1142.37 129.113C1142.37 123.036 1142.5 117.449 1142.77 112.351C1143.01 107.254 1143.2 102.156 1143.33 97.0585C1143.47 91.961 1143.21 86.2401 1142.57 79.896C1142.7 79.0056 1142.83 77.9816 1142.97 76.8241C1142.97 76.557 1142.97 76.3233 1142.97 76.1229C1142.97 75.9448 1142.97 75.789 1142.97 75.6555L1143.33 74.0861C1143.33 73.8413 1143.33 73.6187 1143.33 73.4183C1143.33 73.218 1143.33 73.0622 1143.33 72.9509C1143.6 71.9046 1143.8 71.1923 1143.94 70.8139C1145.34 68.6101 1147.56 66.8961 1150.61 65.6718C1153.64 64.4475 1156.96 64.0246 1160.56 64.403C1164.06 64.6701 1166.96 65.6162 1169.28 67.2412C1171.62 68.8439 1173.17 70.8695 1173.95 73.3182C1174.6 75.3883 1175.11 78.1041 1175.49 81.4653C1175.87 84.8266 1176.16 88.2101 1176.36 91.6159C1176.56 95.044 1176.66 97.8599 1176.66 100.064C1176.52 104.961 1176.29 110.025 1175.96 115.256C1175.64 120.487 1175.49 124.783 1175.49 128.145C1175.36 132.263 1176.51 135.424 1178.96 137.627C1181.43 139.809 1184.37 140.966 1187.78 141.1C1191.2 141.234 1194.24 140.265 1196.89 138.195C1199.54 136.125 1200.93 133.031 1201.07 128.913C1201.07 126.197 1201.22 122.123 1201.53 116.692C1201.87 111.283 1202.09 105.74 1202.2 100.064C1202.2 97.3479 1202.08 93.8531 1201.83 89.5791C1201.57 85.3275 1201.14 81.009 1200.56 76.6238C1199.99 72.2385 1199.24 68.5545 1198.33 65.5717C1195.75 57.5803 1191.17 51.3252 1184.6 46.8064C1178.02 42.2876 1170.71 39.6387 1162.7 38.8596C1156.89 38.3476 1151.01 38.9264 1145.07 40.5959C1139.15 42.2654 1133.86 45.1035 1129.21 49.1103C1122.35 42.922 1113.96 39.3716 1104.03 38.4589C1095.64 37.6798 1087.7 39.0377 1080.19 42.5325C1077.5 40.0839 1074.34 38.8596 1070.71 38.8596C1066.97 38.9931 1063.81 40.3844 1061.23 43.0333C1058.65 45.66 1057.35 48.8543 1057.35 52.6163C1057.73 90.4361 1057.92 115.479 1057.92 127.744C1057.92 131.35 1058.84 134.222 1060.66 136.359C1062.46 138.496 1064.72 139.92 1067.44 140.633C1070.13 141.345 1072.84 141.345 1075.55 140.633C1078.27 139.92 1080.53 138.496 1082.33 136.359C1084.13 134.222 1085.04 131.35 1085.04 127.744C1085.04 114.967 1084.91 96.8248 1084.67 73.3182V72.5502C1084.91 71.5262 1085.1 70.8139 1085.24 70.4132C1086.66 68.2317 1088.89 66.5288 1091.91 65.3045C1094.96 64.058 1098.29 63.635 1101.9 64.0357C1105.39 64.2806 1108.3 65.2155 1110.61 66.8405C1112.93 68.4432 1114.47 70.48 1115.25 72.9509C1115.9 74.9988 1116.42 77.3806 1116.82 80.0963C1116.82 80.6083 1116.88 81.1314 1116.99 81.6657C1117.39 84.7598 1117.66 88.7221 1117.79 93.5526C1117.9 98.4052 1117.9 102.445 1117.79 105.673L1117.39 116.892C1117.12 122.324 1116.93 126.13 1116.82 128.312C1116.69 132.452 1117.85 135.624 1120.3 137.828C1122.74 140.009 1125.68 141.167 1129.11 141.3C1132.54 141.434 1135.57 140.466 1138.19 138.395C1140.84 136.325 1142.23 133.231 1142.37 129.113ZM1276.19 143.037C1286.79 143.437 1296.44 141.345 1305.14 136.759C1313.87 132.174 1321.39 125.974 1327.71 118.161C1334.04 110.348 1338.88 101.856 1342.24 92.6844C1345.6 83.402 1347.34 73.6854 1347.45 63.5349C1347.58 53.4065 1345.52 43.6344 1341.27 34.2184C1336.89 24.7801 1330.17 16.9668 1321.14 10.7785C1317.13 8.06278 1313.06 5.9926 1308.92 4.56796C1304.8 3.14331 1301.5 2.30856 1299.03 2.0637C1296.45 1.79658 1293.1 1.59624 1288.98 1.46268C1287.94 1.46268 1286.97 1.40703 1286.08 1.29573C1285.16 1.16217 1283.67 1.09539 1281.6 1.09539H1277.56C1273.42 1.09539 1269.74 1.48494 1266.51 2.26404C1258.39 4.57909 1251.1 8.41895 1244.64 13.7836C1238.18 19.126 1233.08 25.2253 1229.31 32.0814C1225.44 39.0488 1222.54 46.339 1220.6 53.9519C1218.66 61.5648 1217.83 69.7677 1218.09 78.5604C1218.36 94.5654 1223.2 108.89 1232.62 121.533C1237.14 127.744 1243.14 132.786 1250.62 136.659C1258.12 140.532 1266.64 142.658 1276.19 143.037ZM1277.36 116.525C1270.77 116.391 1265.12 114.611 1260.4 111.183C1255.7 107.754 1252.03 103.135 1249.38 97.3256C1246.73 91.5157 1245.34 84.9379 1245.21 77.5921C1244.94 65.3268 1247.42 54.8312 1252.65 46.1052C1257.88 37.4015 1265.09 31.3691 1274.26 28.0078C1276.06 27.3623 1277.81 27.173 1279.5 27.4402C1281.3 27.4402 1282.53 27.4958 1283.17 27.6071C1283.82 27.8742 1284.85 28.0746 1286.28 28.2081C1287.68 28.3417 1289.62 28.4641 1292.09 28.5754C1294.54 28.709 1296.53 29.0318 1298.06 29.5437C1299.49 30.078 1300.75 30.6345 1301.84 31.2132C1302.95 31.792 1304.34 32.6602 1306.01 33.8177C1312.73 38.47 1317.15 45.1814 1319.27 53.9519C1321.4 62.7446 1320.47 72.5613 1316.46 83.402C1314.01 89.8574 1310.75 95.6005 1306.68 100.631C1302.63 105.662 1298.09 109.602 1293.06 112.451C1288 115.278 1282.77 116.636 1277.36 116.525ZM1391.42 166.877C1391.56 155.636 1391.69 145.107 1391.82 135.29C1395.3 137.627 1398.85 139.308 1402.47 140.332C1411.25 142.914 1421.18 141.434 1432.29 135.891C1438.75 132.663 1443.95 128.501 1447.89 123.403C1451.83 118.283 1454.6 112.663 1456.2 106.541C1457.82 100.398 1458.44 94.1647 1458.04 87.8428C1457.66 81.521 1456.37 75.5219 1454.16 69.8456C1449 56.6676 1440.86 47.4965 1429.75 42.3321C1417.11 36.6558 1403.82 37.6909 1389.89 45.4374C1387.17 41.1858 1383.35 39.0599 1378.43 39.0599C1374.69 39.0599 1371.5 40.3844 1368.85 43.0333C1366.2 45.66 1364.88 48.8543 1364.88 52.6163C1364.88 106.196 1364.69 144.15 1364.31 166.477C1364.31 170.862 1365.63 174.19 1368.28 176.46C1370.93 178.708 1374.03 179.866 1377.57 179.933C1381.13 179.999 1384.29 178.931 1387.05 176.727C1389.83 174.546 1391.29 171.262 1391.42 166.877ZM1410.22 115.356C1407.1 115.356 1403.93 114.288 1400.71 112.151C1397.48 110.014 1394.57 106.564 1391.99 101.8V79.5287C1396.64 72.4278 1401.11 68.0314 1405.38 66.3396C1409.63 64.6701 1414.02 64.8705 1418.54 66.9406C1422.92 69.0108 1426.54 73.2069 1429.39 79.5287C1431.7 86.6297 1432.02 93.3077 1430.36 99.5628C1428.66 105.818 1425.3 110.236 1420.27 112.819C1415.51 115.156 1412.16 116.002 1410.22 115.356ZM1512.26 142.669C1515.36 142.669 1518.33 142.469 1521.18 142.068C1529.7 140.777 1537.03 137.939 1543.15 133.554C1549.29 129.169 1552.94 122.969 1554.1 114.956C1554.23 114.065 1554.3 112.774 1554.3 111.082C1554.3 105.918 1553.08 101.243 1550.63 97.0585C1548.16 92.8514 1544.79 89.3343 1540.54 86.5072C1537.83 84.5706 1535.24 83.0124 1532.8 81.8326C1530.21 80.8087 1527.89 79.8404 1525.82 78.9277C1522.72 77.5253 1519.7 76.3678 1516.74 75.4551C1512.33 74.0305 1508.97 72.8062 1506.65 71.7822C1504.72 70.8695 1503.36 70.1572 1502.58 69.6452C1501.69 69.1333 1501.24 68.4877 1501.24 67.7086C1501.24 66.5511 1502.08 65.6496 1503.75 65.004C1506.06 64.3585 1508.83 64.0357 1512.06 64.0357C1515.56 64.0357 1519.24 64.6812 1523.11 65.9723C1524.14 66.3508 1525.75 67.3191 1527.95 68.8773L1532.6 72.3498C1535.31 74.1529 1538.03 75.0544 1540.74 75.0544C1544.22 75.0544 1547.15 73.7077 1549.56 71.0142C1551.94 68.2985 1553.13 65.26 1553.13 61.8987C1553.13 58.2926 1551.77 55.3209 1549.06 52.9836C1540.53 45.2371 1530.59 40.7851 1519.24 39.6276C1516.66 39.3604 1514.72 39.2269 1513.43 39.2269C1506.84 39.2269 1500.45 40.4623 1494.26 42.9332C1484.83 46.8064 1478.82 51.904 1476.23 58.2258C1474.94 60.9416 1474.3 63.8465 1474.3 66.9406C1474.3 70.6803 1475.27 74.4868 1477.2 78.3601C1480.05 84.3035 1486.18 89.3343 1495.6 93.4524C1497.67 94.4986 1501.1 95.8565 1505.88 97.526L1514.4 100.832C1520.48 103.28 1524.35 105.284 1526.02 106.842C1527.44 108.244 1528.16 109.724 1528.16 111.283V112.051C1527.89 114.9 1524.34 117.037 1517.5 118.462C1514.79 118.84 1512.53 119.029 1510.73 119.029C1508.28 119.029 1505.37 118.517 1502.01 117.493C1499.81 116.581 1498.32 115.345 1497.54 113.787L1496.4 111.483L1494.06 107.61C1491.48 103.737 1488 101.8 1483.61 101.8C1480.12 101.8 1476.98 103.058 1474.2 105.573C1471.44 108.088 1470.06 111.027 1470.06 114.388C1470.06 116.191 1470.64 118.194 1471.79 120.398L1473.53 123.47L1474.9 125.807C1477.08 129.414 1479.53 132.318 1482.24 134.522C1485.87 137.104 1490.36 139.108 1495.7 140.532C1501.06 141.957 1506.58 142.669 1512.26 142.669Z" fill="white"/>
</g>
<defs>
<clipPath id="clip0_16_31">
<rect width="435.437" height="310.154" fill="white" transform="translate(0 1.51453)"/>
</clipPath>
<clipPath id="clip1_16_31">
<rect width="934.188" height="87.482" fill="white" transform="translate(483.146 224.518)"/>
</clipPath>
<clipPath id="clip2_16_31">
<rect width="1071.15" height="179.936" fill="white" transform="translate(483.146)"/>
</clipPath>
</defs>
</svg>
